M48
; DRILL file {KiCad 7.0.2} date Wed May  1 19:32:12 2024
; FORMAT={-:-/ absolute / inch / decimal}
; #@! TF.CreationDate,2024-05-01T19:32:12+01:00
; #@! TF.GenerationSoftware,Kicad,Pcbnew,7.0.2
; #@! TF.FileFunction,Plated,1,2,PTH
FMAT,2
INCH
; #@! TA.AperFunction,Plated,PTH,ComponentDrill
T1C0.0315
; #@! TA.AperFunction,Plated,PTH,ComponentDrill
T2C0.0394
; #@! TA.AperFunction,Plated,PTH,ComponentDrill
T3C0.0402
; #@! TA.AperFunction,Plated,PTH,ComponentDrill
T4C0.1260
%
G90
G05
T1
X5.49Y-3.22
X5.495Y-2.78
X5.5Y-2.51
X5.79Y-3.22
X5.795Y-2.78
X5.8Y-2.51
X5.9192Y-2.7804
X5.9192Y-2.8804
X5.92Y-2.41
X5.92Y-2.51
X5.9246Y-3.1202
X5.9246Y-3.2202
X6.2192Y-2.7804
X6.2192Y-2.8804
X6.22Y-2.41
X6.22Y-2.51
X6.2246Y-3.1202
X6.2246Y-3.2202
X6.325Y-2.78
X6.325Y-3.12
X6.625Y-2.78
X6.625Y-3.12
T2
X5.575Y-1.32
X5.675Y-1.32
X5.775Y-1.32
X5.875Y-1.32
X5.975Y-1.32
X6.785Y-1.59
X6.785Y-1.69
X6.785Y-1.9498
X6.785Y-2.0498
X6.785Y-2.41
X6.785Y-2.51
X6.785Y-2.78
X6.785Y-2.88
X6.785Y-3.12
X6.785Y-3.22
T3
X4.49Y-1.295
X4.49Y-1.395
X4.49Y-1.495
X4.49Y-1.595
X4.49Y-1.695
X4.49Y-1.795
X4.49Y-1.895
X4.49Y-1.995
X4.49Y-2.095
X4.49Y-2.195
X4.49Y-2.295
X4.49Y-2.395
X4.49Y-2.495
X4.49Y-2.595
X4.49Y-2.695
X4.49Y-2.795
X4.49Y-2.895
X4.49Y-2.995
X4.49Y-3.095
X4.49Y-3.195
X4.74Y-3.1859
X4.84Y-3.1859
X4.94Y-3.1859
X5.19Y-1.295
X5.19Y-1.395
X5.19Y-1.495
X5.19Y-1.595
X5.19Y-1.695
X5.19Y-1.795
X5.19Y-1.895
X5.19Y-1.995
X5.19Y-2.095
X5.19Y-2.195
X5.19Y-2.295
X5.19Y-2.395
X5.19Y-2.495
X5.19Y-2.595
X5.19Y-2.695
X5.19Y-2.795
X5.19Y-2.895
X5.19Y-2.995
X5.19Y-3.095
X5.19Y-3.195
T4
X4.44Y-1.05
X4.44Y-3.465
X6.98Y-1.05
X6.98Y-3.465
T0
M30
