%TF.GenerationSoftware,KiCad,Pcbnew,7.0.2*%
%TF.CreationDate,2024-05-01T19:32:08+01:00*%
%TF.ProjectId,PowerButtonPi,506f7765-7242-4757-9474-6f6e50692e6b,rev?*%
%TF.SameCoordinates,Original*%
%TF.FileFunction,Soldermask,Top*%
%TF.FilePolarity,Negative*%
%FSLAX46Y46*%
G04 Gerber Fmt 4.6, Leading zero omitted, Abs format (unit mm)*
G04 Created by KiCad (PCBNEW 7.0.2) date 2024-05-01 19:32:08*
%MOMM*%
%LPD*%
G01*
G04 APERTURE LIST*
%ADD10C,6.400000*%
%ADD11R,1.600000X1.600000*%
%ADD12O,1.600000X1.600000*%
%ADD13C,1.600000*%
%ADD14R,1.700000X1.700000*%
%ADD15O,1.700000X1.700000*%
%ADD16O,1.800000X1.800000*%
%ADD17O,1.500000X1.500000*%
%ADD18R,3.500000X1.700000*%
%ADD19R,1.700000X3.500000*%
G04 APERTURE END LIST*
D10*
%TO.C,H2*%
X112776000Y-88011000D03*
%TD*%
D11*
%TO.C,U2*%
X150368000Y-61214000D03*
D12*
X150368000Y-63754000D03*
X157988000Y-63754000D03*
X157988000Y-61214000D03*
%TD*%
D13*
%TO.C,R3*%
X160655000Y-79248000D03*
D12*
X168275000Y-79248000D03*
%TD*%
D11*
%TO.C,U3*%
X157968000Y-73162000D03*
D12*
X157968000Y-70622000D03*
X150348000Y-70622000D03*
X150348000Y-73162000D03*
%TD*%
D10*
%TO.C,H3*%
X177292000Y-26670000D03*
%TD*%
D14*
%TO.C,J3*%
X172339000Y-49525000D03*
D15*
X172339000Y-52065000D03*
%TD*%
D13*
%TO.C,R1*%
X139700000Y-63754000D03*
D12*
X147320000Y-63754000D03*
%TD*%
D14*
%TO.C,J6*%
X172339000Y-81788000D03*
D15*
X172339000Y-79248000D03*
%TD*%
D13*
%TO.C,R5*%
X139446000Y-81788000D03*
D12*
X147066000Y-81788000D03*
%TD*%
D14*
%TO.C,J5*%
X172339000Y-73152000D03*
D15*
X172339000Y-70612000D03*
%TD*%
D14*
%TO.C,J4*%
X172339000Y-63754000D03*
D15*
X172339000Y-61214000D03*
%TD*%
D10*
%TO.C,H4*%
X177292000Y-88011000D03*
%TD*%
D14*
%TO.C,J1*%
X141605000Y-33528000D03*
D15*
X144145000Y-33528000D03*
X146685000Y-33528000D03*
X149225000Y-33528000D03*
X151765000Y-33528000D03*
%TD*%
D13*
%TO.C,R4*%
X139573000Y-70612000D03*
D12*
X147193000Y-70612000D03*
%TD*%
D13*
%TO.C,R2*%
X160655000Y-70612000D03*
D12*
X168275000Y-70612000D03*
%TD*%
D10*
%TO.C,H1*%
X112776000Y-26670000D03*
%TD*%
D16*
%TO.C,U1*%
X120211000Y-33023000D03*
D17*
X120511000Y-36053000D03*
X125361000Y-36053000D03*
D16*
X125661000Y-33023000D03*
D15*
X114046000Y-32893000D03*
D18*
X113146000Y-32893000D03*
D15*
X114046000Y-35433000D03*
D18*
X113146000Y-35433000D03*
D14*
X114046000Y-37973000D03*
D18*
X113146000Y-37973000D03*
D15*
X114046000Y-40513000D03*
D18*
X113146000Y-40513000D03*
D15*
X114046000Y-43053000D03*
D18*
X113146000Y-43053000D03*
D15*
X114046000Y-45593000D03*
D18*
X113146000Y-45593000D03*
D15*
X114046000Y-48133000D03*
D18*
X113146000Y-48133000D03*
D14*
X114046000Y-50673000D03*
D18*
X113146000Y-50673000D03*
D15*
X114046000Y-53213000D03*
D18*
X113146000Y-53213000D03*
D15*
X114046000Y-55753000D03*
D18*
X113146000Y-55753000D03*
D15*
X114046000Y-58293000D03*
D18*
X113146000Y-58293000D03*
D15*
X114046000Y-60833000D03*
D18*
X113146000Y-60833000D03*
D14*
X114046000Y-63373000D03*
D18*
X113146000Y-63373000D03*
D15*
X114046000Y-65913000D03*
D18*
X113146000Y-65913000D03*
D15*
X114046000Y-68453000D03*
D18*
X113146000Y-68453000D03*
D15*
X114046000Y-70993000D03*
D18*
X113146000Y-70993000D03*
D15*
X114046000Y-73533000D03*
D18*
X113146000Y-73533000D03*
D14*
X114046000Y-76073000D03*
D18*
X113146000Y-76073000D03*
D15*
X114046000Y-78613000D03*
D18*
X113146000Y-78613000D03*
D15*
X114046000Y-81153000D03*
D18*
X113146000Y-81153000D03*
D15*
X131826000Y-81153000D03*
D18*
X132726000Y-81153000D03*
D15*
X131826000Y-78613000D03*
D18*
X132726000Y-78613000D03*
D14*
X131826000Y-76073000D03*
D18*
X132726000Y-76073000D03*
D15*
X131826000Y-73533000D03*
D18*
X132726000Y-73533000D03*
D15*
X131826000Y-70993000D03*
D18*
X132726000Y-70993000D03*
D15*
X131826000Y-68453000D03*
D18*
X132726000Y-68453000D03*
D15*
X131826000Y-65913000D03*
D18*
X132726000Y-65913000D03*
D14*
X131826000Y-63373000D03*
D18*
X132726000Y-63373000D03*
D15*
X131826000Y-60833000D03*
D18*
X132726000Y-60833000D03*
D15*
X131826000Y-58293000D03*
D18*
X132726000Y-58293000D03*
D15*
X131826000Y-55753000D03*
D18*
X132726000Y-55753000D03*
D15*
X131826000Y-53213000D03*
D18*
X132726000Y-53213000D03*
D14*
X131826000Y-50673000D03*
D18*
X132726000Y-50673000D03*
D15*
X131826000Y-48133000D03*
D18*
X132726000Y-48133000D03*
D15*
X131826000Y-45593000D03*
D18*
X132726000Y-45593000D03*
D15*
X131826000Y-43053000D03*
D18*
X132726000Y-43053000D03*
D15*
X131826000Y-40513000D03*
D18*
X132726000Y-40513000D03*
D14*
X131826000Y-37973000D03*
D18*
X132726000Y-37973000D03*
D15*
X131826000Y-35433000D03*
D18*
X132726000Y-35433000D03*
D15*
X131826000Y-32893000D03*
D18*
X132726000Y-32893000D03*
D15*
X120396000Y-80923000D03*
D19*
X120396000Y-81823000D03*
D14*
X122936000Y-80923000D03*
D19*
X122936000Y-81823000D03*
D15*
X125476000Y-80923000D03*
D19*
X125476000Y-81823000D03*
%TD*%
D14*
%TO.C,J2*%
X172339000Y-42926000D03*
D15*
X172339000Y-40386000D03*
%TD*%
D11*
%TO.C,U4*%
X158105000Y-81793000D03*
D12*
X158105000Y-79253000D03*
X150485000Y-79253000D03*
X150485000Y-81793000D03*
%TD*%
M02*
