%TF.GenerationSoftware,KiCad,Pcbnew,7.0.2*%
%TF.CreationDate,2024-05-01T19:32:08+01:00*%
%TF.ProjectId,PowerButtonPi,506f7765-7242-4757-9474-6f6e50692e6b,rev?*%
%TF.SameCoordinates,Original*%
%TF.FileFunction,Copper,L2,Bot*%
%TF.FilePolarity,Positive*%
%FSLAX46Y46*%
G04 Gerber Fmt 4.6, Leading zero omitted, Abs format (unit mm)*
G04 Created by KiCad (PCBNEW 7.0.2) date 2024-05-01 19:32:08*
%MOMM*%
%LPD*%
G01*
G04 APERTURE LIST*
%TA.AperFunction,ComponentPad*%
%ADD10C,6.400000*%
%TD*%
%TA.AperFunction,ComponentPad*%
%ADD11R,1.600000X1.600000*%
%TD*%
%TA.AperFunction,ComponentPad*%
%ADD12O,1.600000X1.600000*%
%TD*%
%TA.AperFunction,ComponentPad*%
%ADD13C,1.600000*%
%TD*%
%TA.AperFunction,ComponentPad*%
%ADD14R,1.700000X1.700000*%
%TD*%
%TA.AperFunction,ComponentPad*%
%ADD15O,1.700000X1.700000*%
%TD*%
%TA.AperFunction,Conductor*%
%ADD16C,0.250000*%
%TD*%
G04 APERTURE END LIST*
D10*
%TO.P,H2,1,1*%
%TO.N,GND*%
X112776000Y-88011000D03*
%TD*%
D11*
%TO.P,U2,1*%
%TO.N,Net-(U1-GPIO22)*%
X150368000Y-61214000D03*
D12*
%TO.P,U2,2*%
%TO.N,Net-(R1-Pad2)*%
X150368000Y-63754000D03*
%TO.P,U2,3*%
%TO.N,Net-(J4-Pin_1)*%
X157988000Y-63754000D03*
%TO.P,U2,4*%
%TO.N,Net-(J4-Pin_2)*%
X157988000Y-61214000D03*
%TD*%
D13*
%TO.P,R3,1*%
%TO.N,Net-(R3-Pad1)*%
X160655000Y-79248000D03*
D12*
%TO.P,R3,2*%
%TO.N,Net-(J6-Pin_2)*%
X168275000Y-79248000D03*
%TD*%
D11*
%TO.P,U3,1*%
%TO.N,Net-(J5-Pin_1)*%
X157968000Y-73162000D03*
D12*
%TO.P,U3,2*%
%TO.N,Net-(R2-Pad1)*%
X157968000Y-70622000D03*
%TO.P,U3,3*%
%TO.N,Net-(U1-GPIO17)*%
X150348000Y-70622000D03*
%TO.P,U3,4*%
%TO.N,+3V3*%
X150348000Y-73162000D03*
%TD*%
D10*
%TO.P,H3,1,1*%
%TO.N,GND*%
X177292000Y-26670000D03*
%TD*%
D14*
%TO.P,J3,1,Pin_1*%
%TO.N,GND*%
X172339000Y-49525000D03*
D15*
%TO.P,J3,2,Pin_2*%
%TO.N,POWER_BUTTON_LED*%
X172339000Y-52065000D03*
%TD*%
D13*
%TO.P,R1,1*%
%TO.N,GND*%
X139700000Y-63754000D03*
D12*
%TO.P,R1,2*%
%TO.N,Net-(R1-Pad2)*%
X147320000Y-63754000D03*
%TD*%
D14*
%TO.P,J6,1,Pin_1*%
%TO.N,Net-(J6-Pin_1)*%
X172339000Y-81788000D03*
D15*
%TO.P,J6,2,Pin_2*%
%TO.N,Net-(J6-Pin_2)*%
X172339000Y-79248000D03*
%TD*%
D13*
%TO.P,R5,1*%
%TO.N,GND*%
X139446000Y-81788000D03*
D12*
%TO.P,R5,2*%
%TO.N,Net-(U1-GPIO16)*%
X147066000Y-81788000D03*
%TD*%
D14*
%TO.P,J5,1,Pin_1*%
%TO.N,Net-(J5-Pin_1)*%
X172339000Y-73152000D03*
D15*
%TO.P,J5,2,Pin_2*%
%TO.N,Net-(J5-Pin_2)*%
X172339000Y-70612000D03*
%TD*%
D14*
%TO.P,J4,1,Pin_1*%
%TO.N,Net-(J4-Pin_1)*%
X172339000Y-63754000D03*
D15*
%TO.P,J4,2,Pin_2*%
%TO.N,Net-(J4-Pin_2)*%
X172339000Y-61214000D03*
%TD*%
D10*
%TO.P,H4,1,1*%
%TO.N,GND*%
X177292000Y-88011000D03*
%TD*%
D14*
%TO.P,J1,1,Pin_1*%
%TO.N,+3V3*%
X141605000Y-33528000D03*
D15*
%TO.P,J1,2,Pin_2*%
%TO.N,LED3_GND*%
X144145000Y-33528000D03*
%TO.P,J1,3,Pin_3*%
%TO.N,LED2_GND*%
X146685000Y-33528000D03*
%TO.P,J1,4,Pin_4*%
%TO.N,LED1_GND*%
X149225000Y-33528000D03*
%TO.P,J1,5,Pin_5*%
%TO.N,LED0_GND*%
X151765000Y-33528000D03*
%TD*%
D13*
%TO.P,R4,1*%
%TO.N,GND*%
X139573000Y-70612000D03*
D12*
%TO.P,R4,2*%
%TO.N,Net-(U1-GPIO17)*%
X147193000Y-70612000D03*
%TD*%
D13*
%TO.P,R2,1*%
%TO.N,Net-(R2-Pad1)*%
X160655000Y-70612000D03*
D12*
%TO.P,R2,2*%
%TO.N,Net-(J5-Pin_2)*%
X168275000Y-70612000D03*
%TD*%
D10*
%TO.P,H1,1,1*%
%TO.N,GND*%
X112776000Y-26670000D03*
%TD*%
D15*
%TO.P,U1,1,GPIO0*%
%TO.N,unconnected-(U1-GPIO0-Pad1)*%
X114046000Y-32893000D03*
%TO.P,U1,2,GPIO1*%
%TO.N,IN_POWER_BUTTON_SWITCH*%
X114046000Y-35433000D03*
D14*
%TO.P,U1,3,GND*%
%TO.N,GND*%
X114046000Y-37973000D03*
D15*
%TO.P,U1,4,GPIO2*%
%TO.N,unconnected-(U1-GPIO2-Pad4)*%
X114046000Y-40513000D03*
%TO.P,U1,5,GPIO3*%
%TO.N,unconnected-(U1-GPIO3-Pad5)*%
X114046000Y-43053000D03*
%TO.P,U1,6,GPIO4*%
%TO.N,unconnected-(U1-GPIO4-Pad6)*%
X114046000Y-45593000D03*
%TO.P,U1,7,GPIO5*%
%TO.N,POWER_BUTTON_LED*%
X114046000Y-48133000D03*
D14*
%TO.P,U1,8,GND*%
%TO.N,GND*%
X114046000Y-50673000D03*
D15*
%TO.P,U1,9,GPIO6*%
%TO.N,unconnected-(U1-GPIO6-Pad9)*%
X114046000Y-53213000D03*
%TO.P,U1,10,GPIO7*%
%TO.N,unconnected-(U1-GPIO7-Pad10)*%
X114046000Y-55753000D03*
%TO.P,U1,11,GPIO8*%
%TO.N,unconnected-(U1-GPIO8-Pad11)*%
X114046000Y-58293000D03*
%TO.P,U1,12,GPIO9*%
%TO.N,unconnected-(U1-GPIO9-Pad12)*%
X114046000Y-60833000D03*
D14*
%TO.P,U1,13,GND*%
%TO.N,GND*%
X114046000Y-63373000D03*
D15*
%TO.P,U1,14,GPIO10*%
%TO.N,unconnected-(U1-GPIO10-Pad14)*%
X114046000Y-65913000D03*
%TO.P,U1,15,GPIO11*%
%TO.N,unconnected-(U1-GPIO11-Pad15)*%
X114046000Y-68453000D03*
%TO.P,U1,16,GPIO12*%
%TO.N,unconnected-(U1-GPIO12-Pad16)*%
X114046000Y-70993000D03*
%TO.P,U1,17,GPIO13*%
%TO.N,unconnected-(U1-GPIO13-Pad17)*%
X114046000Y-73533000D03*
D14*
%TO.P,U1,18,GND*%
%TO.N,GND*%
X114046000Y-76073000D03*
D15*
%TO.P,U1,19,GPIO14*%
%TO.N,unconnected-(U1-GPIO14-Pad19)*%
X114046000Y-78613000D03*
%TO.P,U1,20,GPIO15*%
%TO.N,unconnected-(U1-GPIO15-Pad20)*%
X114046000Y-81153000D03*
%TO.P,U1,21,GPIO16*%
%TO.N,Net-(U1-GPIO16)*%
X131826000Y-81153000D03*
%TO.P,U1,22,GPIO17*%
%TO.N,Net-(U1-GPIO17)*%
X131826000Y-78613000D03*
D14*
%TO.P,U1,23,GND*%
%TO.N,GND*%
X131826000Y-76073000D03*
D15*
%TO.P,U1,24,GPIO18*%
%TO.N,LED0_GND*%
X131826000Y-73533000D03*
%TO.P,U1,25,GPIO19*%
%TO.N,LED1_GND*%
X131826000Y-70993000D03*
%TO.P,U1,26,GPIO20*%
%TO.N,LED2_GND*%
X131826000Y-68453000D03*
%TO.P,U1,27,GPIO21*%
%TO.N,LED3_GND*%
X131826000Y-65913000D03*
D14*
%TO.P,U1,28,GND*%
%TO.N,GND*%
X131826000Y-63373000D03*
D15*
%TO.P,U1,29,GPIO22*%
%TO.N,Net-(U1-GPIO22)*%
X131826000Y-60833000D03*
%TO.P,U1,30,RUN*%
%TO.N,unconnected-(U1-RUN-Pad30)*%
X131826000Y-58293000D03*
%TO.P,U1,31,GPIO26_ADC0*%
%TO.N,unconnected-(U1-GPIO26_ADC0-Pad31)*%
X131826000Y-55753000D03*
%TO.P,U1,32,GPIO27_ADC1*%
%TO.N,unconnected-(U1-GPIO27_ADC1-Pad32)*%
X131826000Y-53213000D03*
D14*
%TO.P,U1,33,AGND*%
%TO.N,unconnected-(U1-AGND-Pad33)*%
X131826000Y-50673000D03*
D15*
%TO.P,U1,34,GPIO28_ADC2*%
%TO.N,unconnected-(U1-GPIO28_ADC2-Pad34)*%
X131826000Y-48133000D03*
%TO.P,U1,35,ADC_VREF*%
%TO.N,unconnected-(U1-ADC_VREF-Pad35)*%
X131826000Y-45593000D03*
%TO.P,U1,36,3V3*%
%TO.N,+3V3*%
X131826000Y-43053000D03*
%TO.P,U1,37,3V3_EN*%
%TO.N,unconnected-(U1-3V3_EN-Pad37)*%
X131826000Y-40513000D03*
D14*
%TO.P,U1,38,GND*%
%TO.N,GND*%
X131826000Y-37973000D03*
D15*
%TO.P,U1,39,VSYS*%
%TO.N,unconnected-(U1-VSYS-Pad39)*%
X131826000Y-35433000D03*
%TO.P,U1,40,VBUS*%
%TO.N,unconnected-(U1-VBUS-Pad40)*%
X131826000Y-32893000D03*
%TO.P,U1,41,SWCLK*%
%TO.N,unconnected-(U1-SWCLK-Pad41)*%
X120396000Y-80923000D03*
D14*
%TO.P,U1,42,GND*%
%TO.N,unconnected-(U1-GND-Pad42)*%
X122936000Y-80923000D03*
D15*
%TO.P,U1,43,SWDIO*%
%TO.N,unconnected-(U1-SWDIO-Pad43)*%
X125476000Y-80923000D03*
%TD*%
D14*
%TO.P,J2,1,Pin_1*%
%TO.N,GND*%
X172339000Y-42926000D03*
D15*
%TO.P,J2,2,Pin_2*%
%TO.N,IN_POWER_BUTTON_SWITCH*%
X172339000Y-40386000D03*
%TD*%
D11*
%TO.P,U4,1*%
%TO.N,Net-(J6-Pin_1)*%
X158105000Y-81793000D03*
D12*
%TO.P,U4,2*%
%TO.N,Net-(R3-Pad1)*%
X158105000Y-79253000D03*
%TO.P,U4,3*%
%TO.N,+3V3*%
X150485000Y-79253000D03*
%TO.P,U4,4*%
%TO.N,Net-(U1-GPIO16)*%
X150485000Y-81793000D03*
%TD*%
D16*
%TO.N,IN_POWER_BUTTON_SWITCH*%
X171101000Y-39148000D02*
X172339000Y-40386000D01*
X114046000Y-35433000D02*
X117761000Y-39148000D01*
X117761000Y-39148000D02*
X171101000Y-39148000D01*
%TO.N,POWER_BUTTON_LED*%
X172339000Y-52065000D02*
X172312000Y-52038000D01*
X172312000Y-52038000D02*
X117951000Y-52038000D01*
X117951000Y-52038000D02*
X114046000Y-48133000D01*
%TO.N,Net-(U1-GPIO22)*%
X150368000Y-61214000D02*
X132207000Y-61214000D01*
X132207000Y-61214000D02*
X131826000Y-60833000D01*
%TD*%
%TA.AperFunction,Conductor*%
%TO.N,GND*%
G36*
X112993265Y-21179486D02*
G01*
X113231928Y-21189908D01*
X113241810Y-21190738D01*
X113468931Y-21219048D01*
X113695613Y-21248891D01*
X113704803Y-21250457D01*
X113931198Y-21297927D01*
X114152582Y-21347007D01*
X114161057Y-21349206D01*
X114383882Y-21415543D01*
X114599509Y-21483530D01*
X114607261Y-21486262D01*
X114823417Y-21570606D01*
X114825695Y-21571522D01*
X115033228Y-21657485D01*
X115040191Y-21660625D01*
X115248946Y-21762679D01*
X115251619Y-21764028D01*
X115429117Y-21856428D01*
X115450583Y-21867603D01*
X115456800Y-21871069D01*
X115656498Y-21990063D01*
X115659621Y-21991989D01*
X115848615Y-22112392D01*
X115854043Y-22116055D01*
X116043274Y-22251163D01*
X116046707Y-22253704D01*
X116224390Y-22390045D01*
X116229045Y-22393798D01*
X116406554Y-22544140D01*
X116410186Y-22547341D01*
X116575265Y-22698608D01*
X116579173Y-22702349D01*
X116743649Y-22866825D01*
X116747390Y-22870733D01*
X116898657Y-23035812D01*
X116901858Y-23039444D01*
X117052200Y-23216953D01*
X117055953Y-23221608D01*
X117192294Y-23399291D01*
X117194835Y-23402724D01*
X117329943Y-23591955D01*
X117333606Y-23597383D01*
X117454009Y-23786377D01*
X117455952Y-23789528D01*
X117574929Y-23989198D01*
X117578395Y-23995415D01*
X117681938Y-24194317D01*
X117683350Y-24197114D01*
X117785363Y-24405786D01*
X117788523Y-24412793D01*
X117874456Y-24620254D01*
X117875412Y-24622632D01*
X117959728Y-24838716D01*
X117962472Y-24846503D01*
X118030458Y-25062125D01*
X118096784Y-25284913D01*
X118098998Y-25293447D01*
X118148075Y-25514814D01*
X118195535Y-25741165D01*
X118197112Y-25750421D01*
X118226954Y-25977089D01*
X118255258Y-26204164D01*
X118256092Y-26214091D01*
X118266542Y-26453429D01*
X118275391Y-26667389D01*
X118275497Y-26672513D01*
X118275497Y-31345019D01*
X118275415Y-31345440D01*
X118275457Y-31368999D01*
X118275675Y-31369541D01*
X118275997Y-31369540D01*
X118275998Y-31369541D01*
X118275998Y-31369540D01*
X118300614Y-31369524D01*
X118300614Y-31369528D01*
X118300758Y-31369500D01*
X131351972Y-31369500D01*
X131419011Y-31389185D01*
X131464766Y-31441989D01*
X131474710Y-31511147D01*
X131445685Y-31574703D01*
X131386907Y-31612477D01*
X131384065Y-31613275D01*
X131362336Y-31619097D01*
X131148170Y-31718965D01*
X130954598Y-31854505D01*
X130787505Y-32021598D01*
X130651965Y-32215170D01*
X130552097Y-32429336D01*
X130490936Y-32657592D01*
X130470340Y-32893000D01*
X130490936Y-33128407D01*
X130524671Y-33254306D01*
X130552097Y-33356663D01*
X130651965Y-33570830D01*
X130787505Y-33764401D01*
X130954599Y-33931495D01*
X131140160Y-34061426D01*
X131183783Y-34116002D01*
X131190976Y-34185501D01*
X131159454Y-34247855D01*
X131140160Y-34264574D01*
X130969231Y-34384260D01*
X130954595Y-34394508D01*
X130787505Y-34561598D01*
X130651965Y-34755170D01*
X130552097Y-34969336D01*
X130490936Y-35197592D01*
X130470340Y-35432999D01*
X130490936Y-35668407D01*
X130529913Y-35813870D01*
X130552097Y-35896663D01*
X130651965Y-36110830D01*
X130787505Y-36304401D01*
X130787507Y-36304403D01*
X130787508Y-36304404D01*
X130909818Y-36426714D01*
X130943303Y-36488037D01*
X130938319Y-36557729D01*
X130896447Y-36613662D01*
X130865472Y-36630576D01*
X130733913Y-36679646D01*
X130618811Y-36765811D01*
X130532647Y-36880910D01*
X130482400Y-37015628D01*
X130476354Y-37071867D01*
X130476000Y-37078481D01*
X130475999Y-37722999D01*
X130476000Y-37723000D01*
X131380428Y-37723000D01*
X131357318Y-37758960D01*
X131316000Y-37899673D01*
X131316000Y-38046327D01*
X131357318Y-38187040D01*
X131380428Y-38223000D01*
X130476000Y-38223000D01*
X130476000Y-38398500D01*
X130456315Y-38465539D01*
X130403511Y-38511294D01*
X130352000Y-38522500D01*
X118071453Y-38522500D01*
X118004414Y-38502815D01*
X117983772Y-38486181D01*
X115550591Y-36053000D01*
X119255723Y-36053000D01*
X119257332Y-36071400D01*
X119257678Y-36087753D01*
X119256709Y-36109328D01*
X119267444Y-36188576D01*
X119268094Y-36194413D01*
X119274792Y-36270976D01*
X119280461Y-36292132D01*
X119283564Y-36307578D01*
X119286925Y-36332390D01*
X119310573Y-36405170D01*
X119312416Y-36411393D01*
X119331423Y-36482327D01*
X119342135Y-36505298D01*
X119347683Y-36519383D01*
X119356481Y-36546460D01*
X119391128Y-36610847D01*
X119394314Y-36617199D01*
X119423896Y-36680637D01*
X119440406Y-36704215D01*
X119448023Y-36716575D01*
X119463148Y-36744681D01*
X119498219Y-36788659D01*
X119506588Y-36799153D01*
X119511214Y-36805340D01*
X119549403Y-36859878D01*
X119572186Y-36882661D01*
X119581452Y-36893029D01*
X119603493Y-36920667D01*
X119653387Y-36964259D01*
X119659484Y-36969959D01*
X119704123Y-37014598D01*
X119733330Y-37035049D01*
X119743793Y-37043244D01*
X119763585Y-37060535D01*
X119773004Y-37068765D01*
X119826940Y-37100990D01*
X119834435Y-37105843D01*
X119883361Y-37140102D01*
X119893490Y-37144825D01*
X119918799Y-37156628D01*
X119929991Y-37162560D01*
X119966236Y-37184215D01*
X119966239Y-37184216D01*
X120021839Y-37205083D01*
X120030669Y-37208792D01*
X120074999Y-37229464D01*
X120081670Y-37232575D01*
X120122757Y-37243584D01*
X120134235Y-37247266D01*
X120145903Y-37251645D01*
X120176976Y-37263307D01*
X120232024Y-37273296D01*
X120241970Y-37275527D01*
X120293023Y-37289207D01*
X120337133Y-37293065D01*
X120338814Y-37293213D01*
X120350148Y-37294733D01*
X120398453Y-37303500D01*
X120450985Y-37303500D01*
X120461791Y-37303971D01*
X120484447Y-37305954D01*
X120510999Y-37308277D01*
X120510999Y-37308276D01*
X120511000Y-37308277D01*
X120564286Y-37303615D01*
X120566025Y-37303500D01*
X120567155Y-37303500D01*
X120621172Y-37298638D01*
X120621171Y-37298638D01*
X120733665Y-37288797D01*
X120735186Y-37288377D01*
X120735188Y-37288377D01*
X120838997Y-37259726D01*
X120940330Y-37232575D01*
X120940330Y-37232574D01*
X120945379Y-37231222D01*
X120950153Y-37229464D01*
X120952168Y-37228493D01*
X120952170Y-37228493D01*
X121046454Y-37183088D01*
X121138639Y-37140102D01*
X121138647Y-37140095D01*
X121140393Y-37139282D01*
X121154155Y-37131222D01*
X121154973Y-37130829D01*
X121237156Y-37071118D01*
X121317877Y-37014598D01*
X121318748Y-37013726D01*
X121333543Y-37001089D01*
X121337078Y-36998522D01*
X121404237Y-36928277D01*
X121406097Y-36926377D01*
X121472593Y-36859882D01*
X121472593Y-36859881D01*
X121472598Y-36859877D01*
X121475285Y-36856039D01*
X121487232Y-36841471D01*
X121492632Y-36835825D01*
X121544288Y-36757566D01*
X121546082Y-36754929D01*
X121598102Y-36680639D01*
X121601539Y-36673267D01*
X121610434Y-36657362D01*
X121610585Y-36657132D01*
X121616635Y-36647968D01*
X121652114Y-36564958D01*
X121653713Y-36561377D01*
X121690575Y-36482330D01*
X121693572Y-36471143D01*
X121699324Y-36454508D01*
X121705102Y-36440990D01*
X121705101Y-36440990D01*
X121705103Y-36440988D01*
X121724434Y-36356291D01*
X121725533Y-36351863D01*
X121730752Y-36332387D01*
X121747207Y-36270977D01*
X121748516Y-36256005D01*
X121751153Y-36239227D01*
X121755191Y-36221537D01*
X121758934Y-36138183D01*
X121759274Y-36133039D01*
X121766277Y-36053000D01*
X124105723Y-36053000D01*
X124107332Y-36071400D01*
X124107678Y-36087753D01*
X124106709Y-36109328D01*
X124117444Y-36188576D01*
X124118094Y-36194413D01*
X124124792Y-36270976D01*
X124130461Y-36292132D01*
X124133564Y-36307578D01*
X124136925Y-36332390D01*
X124160573Y-36405170D01*
X124162416Y-36411393D01*
X124181423Y-36482327D01*
X124192135Y-36505298D01*
X124197683Y-36519383D01*
X124206481Y-36546460D01*
X124241128Y-36610847D01*
X124244314Y-36617199D01*
X124273896Y-36680637D01*
X124290406Y-36704215D01*
X124298023Y-36716575D01*
X124313148Y-36744681D01*
X124348219Y-36788659D01*
X124356588Y-36799153D01*
X124361214Y-36805340D01*
X124399403Y-36859878D01*
X124422186Y-36882661D01*
X124431452Y-36893029D01*
X124453493Y-36920667D01*
X124503387Y-36964259D01*
X124509484Y-36969959D01*
X124554123Y-37014598D01*
X124583330Y-37035049D01*
X124593793Y-37043244D01*
X124613585Y-37060535D01*
X124623004Y-37068765D01*
X124676940Y-37100990D01*
X124684435Y-37105843D01*
X124733361Y-37140102D01*
X124743490Y-37144825D01*
X124768799Y-37156628D01*
X124779991Y-37162560D01*
X124816236Y-37184215D01*
X124816239Y-37184216D01*
X124871839Y-37205083D01*
X124880669Y-37208792D01*
X124924999Y-37229464D01*
X124931670Y-37232575D01*
X124972757Y-37243584D01*
X124984235Y-37247266D01*
X124995903Y-37251645D01*
X125026976Y-37263307D01*
X125082024Y-37273296D01*
X125091970Y-37275527D01*
X125143023Y-37289207D01*
X125187133Y-37293065D01*
X125188814Y-37293213D01*
X125200148Y-37294733D01*
X125248453Y-37303500D01*
X125300985Y-37303500D01*
X125311791Y-37303971D01*
X125334447Y-37305954D01*
X125360999Y-37308277D01*
X125360999Y-37308276D01*
X125361000Y-37308277D01*
X125414286Y-37303615D01*
X125416025Y-37303500D01*
X125417155Y-37303500D01*
X125471172Y-37298638D01*
X125583665Y-37288797D01*
X125585186Y-37288377D01*
X125585188Y-37288377D01*
X125688997Y-37259726D01*
X125790330Y-37232575D01*
X125790330Y-37232574D01*
X125795379Y-37231222D01*
X125800153Y-37229464D01*
X125802168Y-37228493D01*
X125802170Y-37228493D01*
X125896454Y-37183088D01*
X125988639Y-37140102D01*
X125988647Y-37140095D01*
X125990393Y-37139282D01*
X126004155Y-37131222D01*
X126004973Y-37130829D01*
X126087156Y-37071118D01*
X126167877Y-37014598D01*
X126168748Y-37013726D01*
X126183543Y-37001089D01*
X126187078Y-36998522D01*
X126254237Y-36928277D01*
X126256097Y-36926377D01*
X126322593Y-36859882D01*
X126322593Y-36859881D01*
X126322598Y-36859877D01*
X126325285Y-36856039D01*
X126337232Y-36841471D01*
X126342632Y-36835825D01*
X126394288Y-36757566D01*
X126396082Y-36754929D01*
X126448102Y-36680639D01*
X126451539Y-36673267D01*
X126460434Y-36657362D01*
X126460585Y-36657132D01*
X126466635Y-36647968D01*
X126502114Y-36564958D01*
X126503713Y-36561377D01*
X126540575Y-36482330D01*
X126543572Y-36471143D01*
X126549324Y-36454508D01*
X126555102Y-36440990D01*
X126555101Y-36440990D01*
X126555103Y-36440988D01*
X126574434Y-36356291D01*
X126575533Y-36351863D01*
X126580752Y-36332387D01*
X126597207Y-36270977D01*
X126598516Y-36256005D01*
X126601153Y-36239227D01*
X126605191Y-36221537D01*
X126608934Y-36138183D01*
X126609274Y-36133039D01*
X126616277Y-36053000D01*
X126614667Y-36034608D01*
X126614321Y-36018238D01*
X126615290Y-35996670D01*
X126604549Y-35917385D01*
X126603905Y-35911596D01*
X126597470Y-35838024D01*
X126597208Y-35835027D01*
X126597206Y-35835020D01*
X126591536Y-35813860D01*
X126588434Y-35798414D01*
X126585075Y-35773614D01*
X126577291Y-35749659D01*
X126561421Y-35700816D01*
X126559578Y-35694592D01*
X126540575Y-35623671D01*
X126529867Y-35600708D01*
X126524317Y-35586619D01*
X126515517Y-35559535D01*
X126480869Y-35495148D01*
X126477681Y-35488794D01*
X126448102Y-35425362D01*
X126448102Y-35425361D01*
X126431591Y-35401782D01*
X126423975Y-35389423D01*
X126408852Y-35361319D01*
X126365404Y-35306837D01*
X126360785Y-35300661D01*
X126322598Y-35246123D01*
X126299804Y-35223329D01*
X126290546Y-35212969D01*
X126268506Y-35185332D01*
X126218611Y-35141739D01*
X126212514Y-35136039D01*
X126167878Y-35091402D01*
X126138664Y-35070947D01*
X126128210Y-35062759D01*
X126098996Y-35037235D01*
X126098991Y-35037232D01*
X126045073Y-35005017D01*
X126037550Y-35000145D01*
X125988640Y-34965898D01*
X125967043Y-34955827D01*
X125953201Y-34949372D01*
X125942014Y-34943442D01*
X125905764Y-34921784D01*
X125850171Y-34900921D01*
X125841349Y-34897216D01*
X125790330Y-34873425D01*
X125790328Y-34873424D01*
X125762575Y-34865987D01*
X125749228Y-34862411D01*
X125737762Y-34858732D01*
X125695024Y-34842693D01*
X125651636Y-34834818D01*
X125639964Y-34832700D01*
X125630018Y-34830468D01*
X125578980Y-34816793D01*
X125533175Y-34812785D01*
X125521846Y-34811264D01*
X125473550Y-34802500D01*
X125473547Y-34802500D01*
X125421015Y-34802500D01*
X125410208Y-34802028D01*
X125406485Y-34801702D01*
X125360999Y-34797722D01*
X125307723Y-34802384D01*
X125305970Y-34802500D01*
X125304845Y-34802500D01*
X125302099Y-34802747D01*
X125302078Y-34802748D01*
X125250827Y-34807361D01*
X125138333Y-34817202D01*
X125033002Y-34846273D01*
X124926661Y-34874767D01*
X124921813Y-34876551D01*
X124855451Y-34908509D01*
X124825528Y-34922919D01*
X124791055Y-34938994D01*
X124731634Y-34966703D01*
X124717875Y-34974762D01*
X124717029Y-34975169D01*
X124634830Y-35034889D01*
X124554120Y-35091403D01*
X124553235Y-35092289D01*
X124538467Y-35104901D01*
X124534923Y-35107476D01*
X124467846Y-35177632D01*
X124465903Y-35179619D01*
X124399401Y-35246122D01*
X124396708Y-35249968D01*
X124384776Y-35264517D01*
X124379370Y-35270172D01*
X124327775Y-35348333D01*
X124325866Y-35351141D01*
X124273897Y-35425363D01*
X124270460Y-35432734D01*
X124261571Y-35448629D01*
X124255364Y-35458032D01*
X124219893Y-35541021D01*
X124218260Y-35544676D01*
X124211331Y-35559536D01*
X124181423Y-35623673D01*
X124178426Y-35634856D01*
X124172680Y-35651478D01*
X124166897Y-35665009D01*
X124147576Y-35749659D01*
X124146460Y-35754157D01*
X124124793Y-35835020D01*
X124123483Y-35849993D01*
X124120847Y-35866767D01*
X124116809Y-35884460D01*
X124113066Y-35967777D01*
X124112719Y-35973016D01*
X124107331Y-36034613D01*
X124105723Y-36053000D01*
X121766277Y-36053000D01*
X121764667Y-36034608D01*
X121764321Y-36018238D01*
X121765290Y-35996670D01*
X121754549Y-35917385D01*
X121753905Y-35911596D01*
X121747470Y-35838024D01*
X121747208Y-35835027D01*
X121747206Y-35835020D01*
X121741536Y-35813860D01*
X121738434Y-35798414D01*
X121735075Y-35773614D01*
X121727291Y-35749659D01*
X121711421Y-35700816D01*
X121709578Y-35694592D01*
X121690575Y-35623671D01*
X121679867Y-35600708D01*
X121674317Y-35586619D01*
X121665517Y-35559535D01*
X121630869Y-35495148D01*
X121627681Y-35488794D01*
X121598102Y-35425362D01*
X121598102Y-35425361D01*
X121581591Y-35401782D01*
X121573975Y-35389423D01*
X121558852Y-35361319D01*
X121515404Y-35306837D01*
X121510785Y-35300661D01*
X121472598Y-35246123D01*
X121449804Y-35223329D01*
X121440546Y-35212969D01*
X121418506Y-35185332D01*
X121368611Y-35141739D01*
X121362514Y-35136039D01*
X121317878Y-35091402D01*
X121288664Y-35070947D01*
X121278210Y-35062759D01*
X121248996Y-35037235D01*
X121248991Y-35037232D01*
X121195073Y-35005017D01*
X121187550Y-35000145D01*
X121138640Y-34965898D01*
X121117043Y-34955827D01*
X121103201Y-34949372D01*
X121092014Y-34943442D01*
X121055764Y-34921784D01*
X121000171Y-34900921D01*
X120991349Y-34897216D01*
X120940330Y-34873425D01*
X120940328Y-34873424D01*
X120912575Y-34865987D01*
X120899228Y-34862411D01*
X120887762Y-34858732D01*
X120845024Y-34842693D01*
X120801636Y-34834818D01*
X120789964Y-34832700D01*
X120780018Y-34830468D01*
X120728980Y-34816793D01*
X120683175Y-34812785D01*
X120671846Y-34811264D01*
X120623550Y-34802500D01*
X120623547Y-34802500D01*
X120571015Y-34802500D01*
X120560208Y-34802028D01*
X120556485Y-34801702D01*
X120510999Y-34797722D01*
X120457723Y-34802384D01*
X120455970Y-34802500D01*
X120454845Y-34802500D01*
X120452099Y-34802747D01*
X120452078Y-34802748D01*
X120400827Y-34807361D01*
X120288333Y-34817202D01*
X120183002Y-34846273D01*
X120076661Y-34874767D01*
X120071813Y-34876551D01*
X120005451Y-34908509D01*
X119975528Y-34922919D01*
X119941055Y-34938994D01*
X119881634Y-34966703D01*
X119867875Y-34974762D01*
X119867029Y-34975169D01*
X119784830Y-35034889D01*
X119704120Y-35091403D01*
X119703235Y-35092289D01*
X119688467Y-35104901D01*
X119684923Y-35107476D01*
X119617846Y-35177632D01*
X119615903Y-35179619D01*
X119549401Y-35246122D01*
X119546708Y-35249968D01*
X119534776Y-35264517D01*
X119529370Y-35270172D01*
X119477775Y-35348333D01*
X119475866Y-35351141D01*
X119423897Y-35425363D01*
X119420460Y-35432734D01*
X119411571Y-35448629D01*
X119405364Y-35458032D01*
X119369893Y-35541021D01*
X119368260Y-35544676D01*
X119361331Y-35559536D01*
X119331423Y-35623673D01*
X119328426Y-35634856D01*
X119322680Y-35651478D01*
X119316897Y-35665009D01*
X119297576Y-35749659D01*
X119296460Y-35754157D01*
X119274793Y-35835020D01*
X119273483Y-35849993D01*
X119270847Y-35866767D01*
X119266809Y-35884460D01*
X119263066Y-35967777D01*
X119262719Y-35973016D01*
X119257331Y-36034613D01*
X119255723Y-36053000D01*
X115550591Y-36053000D01*
X115386237Y-35888646D01*
X115352752Y-35827323D01*
X115354143Y-35768872D01*
X115381063Y-35668408D01*
X115383999Y-35634856D01*
X115401659Y-35432999D01*
X115381063Y-35197592D01*
X115319903Y-34969337D01*
X115220035Y-34755171D01*
X115084495Y-34561599D01*
X114917401Y-34394505D01*
X114731839Y-34264573D01*
X114688216Y-34209998D01*
X114681022Y-34140500D01*
X114712545Y-34078145D01*
X114731837Y-34061428D01*
X114917401Y-33931495D01*
X115084495Y-33764401D01*
X115220035Y-33570830D01*
X115319903Y-33356663D01*
X115381063Y-33128408D01*
X115390285Y-33022998D01*
X118805699Y-33022998D01*
X118812750Y-33108097D01*
X118813061Y-33113071D01*
X118816820Y-33201532D01*
X118821092Y-33221356D01*
X118823451Y-33237237D01*
X118824865Y-33254301D01*
X118846661Y-33340371D01*
X118847669Y-33344676D01*
X118859630Y-33400171D01*
X118867046Y-33434581D01*
X118873333Y-33450226D01*
X118878479Y-33466017D01*
X118881843Y-33479301D01*
X118918875Y-33563727D01*
X118920377Y-33567301D01*
X118955936Y-33655790D01*
X118962979Y-33667229D01*
X118970945Y-33682431D01*
X118975076Y-33691849D01*
X119027366Y-33771886D01*
X119029147Y-33774693D01*
X119080931Y-33858796D01*
X119087539Y-33866303D01*
X119098268Y-33880409D01*
X119102021Y-33886153D01*
X119169117Y-33959040D01*
X119170930Y-33961054D01*
X119238437Y-34037756D01*
X119243561Y-34041894D01*
X119256886Y-34054382D01*
X119259216Y-34056913D01*
X119340933Y-34120515D01*
X119423920Y-34187523D01*
X119426685Y-34189067D01*
X119442359Y-34199458D01*
X119442374Y-34199470D01*
X119536162Y-34250225D01*
X119632046Y-34303790D01*
X119632051Y-34303791D01*
X119632252Y-34303904D01*
X119643584Y-34308935D01*
X119646492Y-34309933D01*
X119646497Y-34309936D01*
X119750276Y-34345563D01*
X119856829Y-34383211D01*
X119856836Y-34383212D01*
X119859802Y-34384260D01*
X119866015Y-34385296D01*
X119866019Y-34385298D01*
X119977323Y-34403871D01*
X119977324Y-34403871D01*
X120091799Y-34423500D01*
X120091800Y-34423500D01*
X120327047Y-34423500D01*
X120327049Y-34423500D01*
X120381010Y-34414494D01*
X120390905Y-34413251D01*
X120448541Y-34408346D01*
X120497941Y-34395482D01*
X120508760Y-34393177D01*
X120538221Y-34388261D01*
X120555982Y-34385298D01*
X120610946Y-34366428D01*
X120619949Y-34363714D01*
X120679249Y-34348275D01*
X120722642Y-34328659D01*
X120733443Y-34324374D01*
X120775503Y-34309936D01*
X120829622Y-34280647D01*
X120837530Y-34276726D01*
X120896486Y-34250077D01*
X120933108Y-34225324D01*
X120943515Y-34219011D01*
X120979626Y-34199470D01*
X121030877Y-34159578D01*
X121037589Y-34154706D01*
X121078716Y-34126910D01*
X121094002Y-34116580D01*
X121094776Y-34115837D01*
X121123460Y-34088345D01*
X121133064Y-34080044D01*
X121162784Y-34056913D01*
X121209081Y-34006619D01*
X121214490Y-34001100D01*
X121266118Y-33951621D01*
X121288350Y-33921559D01*
X121296797Y-33911333D01*
X121319979Y-33886153D01*
X121359238Y-33826060D01*
X121363312Y-33820203D01*
X121407879Y-33759947D01*
X121423163Y-33729630D01*
X121430079Y-33717632D01*
X121433704Y-33712082D01*
X121446924Y-33691849D01*
X121477123Y-33623000D01*
X121479927Y-33617045D01*
X121515207Y-33547074D01*
X121524150Y-33517868D01*
X121529158Y-33504374D01*
X121540157Y-33479300D01*
X121559453Y-33403099D01*
X121561088Y-33397255D01*
X121585015Y-33319126D01*
X121585014Y-33319126D01*
X121585016Y-33319123D01*
X121588461Y-33292215D01*
X121591247Y-33277548D01*
X121597134Y-33254305D01*
X121603903Y-33172600D01*
X121604484Y-33167095D01*
X121615298Y-33082654D01*
X121614291Y-33058960D01*
X121614602Y-33043481D01*
X121616300Y-33023000D01*
X121616300Y-33022998D01*
X124255699Y-33022998D01*
X124262750Y-33108097D01*
X124263061Y-33113071D01*
X124266820Y-33201532D01*
X124271092Y-33221356D01*
X124273451Y-33237237D01*
X124274865Y-33254301D01*
X124296661Y-33340371D01*
X124297669Y-33344676D01*
X124309630Y-33400171D01*
X124317046Y-33434581D01*
X124323333Y-33450226D01*
X124328479Y-33466017D01*
X124331843Y-33479301D01*
X124368875Y-33563727D01*
X124370377Y-33567301D01*
X124405936Y-33655790D01*
X124412979Y-33667229D01*
X124420945Y-33682431D01*
X124425076Y-33691849D01*
X124477366Y-33771886D01*
X124479147Y-33774693D01*
X124530931Y-33858796D01*
X124537539Y-33866303D01*
X124548268Y-33880409D01*
X124552021Y-33886153D01*
X124619117Y-33959040D01*
X124620930Y-33961054D01*
X124688437Y-34037756D01*
X124693561Y-34041894D01*
X124706886Y-34054382D01*
X124709216Y-34056913D01*
X124790933Y-34120515D01*
X124873920Y-34187523D01*
X124876685Y-34189067D01*
X124892359Y-34199458D01*
X124892374Y-34199470D01*
X124986162Y-34250225D01*
X125082046Y-34303790D01*
X125082051Y-34303791D01*
X125082252Y-34303904D01*
X125093584Y-34308935D01*
X125096492Y-34309933D01*
X125096497Y-34309936D01*
X125200276Y-34345563D01*
X125306829Y-34383211D01*
X125306836Y-34383212D01*
X125309802Y-34384260D01*
X125316015Y-34385296D01*
X125316019Y-34385298D01*
X125427324Y-34403871D01*
X125541799Y-34423500D01*
X125541800Y-34423500D01*
X125777047Y-34423500D01*
X125777049Y-34423500D01*
X125831010Y-34414494D01*
X125840905Y-34413251D01*
X125898541Y-34408346D01*
X125947941Y-34395482D01*
X125958760Y-34393177D01*
X125988221Y-34388261D01*
X126005982Y-34385298D01*
X126060946Y-34366428D01*
X126069949Y-34363714D01*
X126129249Y-34348275D01*
X126172642Y-34328659D01*
X126183443Y-34324374D01*
X126225503Y-34309936D01*
X126279622Y-34280647D01*
X126287530Y-34276726D01*
X126346486Y-34250077D01*
X126383108Y-34225324D01*
X126393515Y-34219011D01*
X126429626Y-34199470D01*
X126480877Y-34159578D01*
X126487589Y-34154706D01*
X126528716Y-34126910D01*
X126544002Y-34116580D01*
X126544776Y-34115837D01*
X126573460Y-34088345D01*
X126583064Y-34080044D01*
X126612784Y-34056913D01*
X126659081Y-34006619D01*
X126664490Y-34001100D01*
X126716118Y-33951621D01*
X126738350Y-33921559D01*
X126746797Y-33911333D01*
X126769979Y-33886153D01*
X126809238Y-33826060D01*
X126813312Y-33820203D01*
X126857879Y-33759947D01*
X126873163Y-33729630D01*
X126880079Y-33717632D01*
X126883704Y-33712082D01*
X126896924Y-33691849D01*
X126927123Y-33623000D01*
X126929927Y-33617045D01*
X126965207Y-33547074D01*
X126974150Y-33517868D01*
X126979158Y-33504374D01*
X126990157Y-33479300D01*
X127009453Y-33403099D01*
X127011088Y-33397255D01*
X127035015Y-33319126D01*
X127035014Y-33319126D01*
X127035016Y-33319123D01*
X127038461Y-33292215D01*
X127041247Y-33277548D01*
X127047134Y-33254305D01*
X127053903Y-33172600D01*
X127054484Y-33167095D01*
X127065298Y-33082654D01*
X127064291Y-33058960D01*
X127064602Y-33043481D01*
X127066300Y-33023000D01*
X127059248Y-32937902D01*
X127058938Y-32932944D01*
X127055180Y-32844468D01*
X127050907Y-32824642D01*
X127048547Y-32808756D01*
X127047134Y-32791695D01*
X127025328Y-32705589D01*
X127024336Y-32701354D01*
X127004954Y-32611419D01*
X126998665Y-32595770D01*
X126993521Y-32579989D01*
X126990157Y-32566700D01*
X126953102Y-32482224D01*
X126951621Y-32478696D01*
X126916066Y-32390214D01*
X126916064Y-32390210D01*
X126909016Y-32378764D01*
X126901051Y-32363561D01*
X126896924Y-32354151D01*
X126844628Y-32274106D01*
X126842879Y-32271350D01*
X126791069Y-32187205D01*
X126784454Y-32179689D01*
X126773730Y-32165588D01*
X126769980Y-32159849D01*
X126769979Y-32159847D01*
X126702876Y-32086953D01*
X126701068Y-32084944D01*
X126633564Y-32008245D01*
X126632253Y-32007186D01*
X126628439Y-32004106D01*
X126615115Y-31991619D01*
X126612785Y-31989088D01*
X126531066Y-31925484D01*
X126448079Y-31858476D01*
X126445315Y-31856932D01*
X126429637Y-31846538D01*
X126429626Y-31846529D01*
X126335837Y-31795774D01*
X126239762Y-31742103D01*
X126228401Y-31737059D01*
X126170953Y-31717337D01*
X126121723Y-31700436D01*
X126062658Y-31679567D01*
X126012203Y-31661740D01*
X125894675Y-31642128D01*
X125780202Y-31622500D01*
X125780200Y-31622500D01*
X125777049Y-31622500D01*
X125544951Y-31622500D01*
X125544949Y-31622500D01*
X125490991Y-31631503D01*
X125481102Y-31632747D01*
X125423460Y-31637653D01*
X125374077Y-31650511D01*
X125363249Y-31652819D01*
X125316023Y-31660701D01*
X125316021Y-31660701D01*
X125316019Y-31660702D01*
X125261056Y-31679570D01*
X125252052Y-31682284D01*
X125192748Y-31697725D01*
X125149361Y-31717337D01*
X125138554Y-31721624D01*
X125096496Y-31736063D01*
X125042395Y-31765341D01*
X125034460Y-31769276D01*
X124975509Y-31795925D01*
X124938882Y-31820679D01*
X124928470Y-31826994D01*
X124892373Y-31846529D01*
X124841124Y-31886417D01*
X124834402Y-31891296D01*
X124777999Y-31929418D01*
X124748549Y-31957643D01*
X124738919Y-31965967D01*
X124709216Y-31989087D01*
X124709214Y-31989088D01*
X124709214Y-31989089D01*
X124662926Y-32039369D01*
X124657500Y-32044905D01*
X124605883Y-32094376D01*
X124583659Y-32124426D01*
X124575196Y-32134670D01*
X124552023Y-32159843D01*
X124512782Y-32219905D01*
X124508671Y-32225815D01*
X124464119Y-32286054D01*
X124448826Y-32316384D01*
X124441917Y-32328371D01*
X124425077Y-32354147D01*
X124394887Y-32422974D01*
X124392054Y-32428987D01*
X124356792Y-32498925D01*
X124347847Y-32528131D01*
X124342842Y-32541620D01*
X124331844Y-32566695D01*
X124312552Y-32642871D01*
X124310912Y-32648736D01*
X124286983Y-32726875D01*
X124283538Y-32753775D01*
X124280750Y-32768455D01*
X124274865Y-32791697D01*
X124268097Y-32873377D01*
X124267517Y-32878886D01*
X124256701Y-32963348D01*
X124257707Y-32987025D01*
X124257396Y-33002520D01*
X124255699Y-33022998D01*
X121616300Y-33022998D01*
X121609248Y-32937902D01*
X121608938Y-32932944D01*
X121605180Y-32844468D01*
X121600907Y-32824642D01*
X121598547Y-32808756D01*
X121597134Y-32791695D01*
X121575328Y-32705589D01*
X121574336Y-32701354D01*
X121554954Y-32611419D01*
X121548665Y-32595770D01*
X121543521Y-32579989D01*
X121540157Y-32566700D01*
X121503102Y-32482224D01*
X121501621Y-32478696D01*
X121466066Y-32390214D01*
X121466064Y-32390210D01*
X121459016Y-32378764D01*
X121451051Y-32363561D01*
X121446924Y-32354151D01*
X121394628Y-32274106D01*
X121392879Y-32271350D01*
X121341069Y-32187205D01*
X121334454Y-32179689D01*
X121323730Y-32165588D01*
X121319980Y-32159849D01*
X121319979Y-32159847D01*
X121252876Y-32086953D01*
X121251068Y-32084944D01*
X121183564Y-32008245D01*
X121182253Y-32007186D01*
X121178439Y-32004106D01*
X121165115Y-31991619D01*
X121162785Y-31989088D01*
X121081066Y-31925484D01*
X120998079Y-31858476D01*
X120995315Y-31856932D01*
X120979637Y-31846538D01*
X120979626Y-31846529D01*
X120885837Y-31795774D01*
X120789762Y-31742103D01*
X120778401Y-31737059D01*
X120720953Y-31717337D01*
X120671723Y-31700436D01*
X120612658Y-31679567D01*
X120562203Y-31661740D01*
X120444675Y-31642128D01*
X120330202Y-31622500D01*
X120330200Y-31622500D01*
X120327049Y-31622500D01*
X120094951Y-31622500D01*
X120094949Y-31622500D01*
X120040991Y-31631503D01*
X120031102Y-31632747D01*
X119973460Y-31637653D01*
X119924077Y-31650511D01*
X119913249Y-31652819D01*
X119866023Y-31660701D01*
X119866021Y-31660701D01*
X119866019Y-31660702D01*
X119811056Y-31679570D01*
X119802052Y-31682284D01*
X119742748Y-31697725D01*
X119699361Y-31717337D01*
X119688554Y-31721624D01*
X119646496Y-31736063D01*
X119592395Y-31765341D01*
X119584460Y-31769276D01*
X119525509Y-31795925D01*
X119488882Y-31820679D01*
X119478470Y-31826994D01*
X119442373Y-31846529D01*
X119391124Y-31886417D01*
X119384402Y-31891296D01*
X119327999Y-31929418D01*
X119298549Y-31957643D01*
X119288919Y-31965967D01*
X119259216Y-31989087D01*
X119259214Y-31989088D01*
X119259214Y-31989089D01*
X119212926Y-32039369D01*
X119207500Y-32044905D01*
X119155883Y-32094376D01*
X119133659Y-32124426D01*
X119125196Y-32134670D01*
X119102023Y-32159843D01*
X119062782Y-32219905D01*
X119058671Y-32225815D01*
X119014119Y-32286054D01*
X118998826Y-32316384D01*
X118991917Y-32328371D01*
X118975077Y-32354147D01*
X118944887Y-32422974D01*
X118942054Y-32428987D01*
X118906792Y-32498925D01*
X118897847Y-32528131D01*
X118892842Y-32541620D01*
X118881844Y-32566695D01*
X118862552Y-32642871D01*
X118860912Y-32648736D01*
X118836983Y-32726875D01*
X118833538Y-32753775D01*
X118830750Y-32768455D01*
X118824865Y-32791697D01*
X118818097Y-32873377D01*
X118817517Y-32878886D01*
X118806701Y-32963348D01*
X118807707Y-32987025D01*
X118807396Y-33002520D01*
X118805699Y-33022998D01*
X115390285Y-33022998D01*
X115401659Y-32893000D01*
X115381063Y-32657592D01*
X115319903Y-32429337D01*
X115220035Y-32215171D01*
X115084495Y-32021599D01*
X114917401Y-31854505D01*
X114723830Y-31718965D01*
X114509663Y-31619097D01*
X114448501Y-31602709D01*
X114281407Y-31557936D01*
X114046000Y-31537340D01*
X113810592Y-31557936D01*
X113582336Y-31619097D01*
X113368170Y-31718965D01*
X113174598Y-31854505D01*
X113007505Y-32021598D01*
X112871965Y-32215170D01*
X112772097Y-32429336D01*
X112710936Y-32657592D01*
X112690340Y-32893000D01*
X112710936Y-33128407D01*
X112744671Y-33254306D01*
X112772097Y-33356663D01*
X112871965Y-33570830D01*
X113007505Y-33764401D01*
X113174599Y-33931495D01*
X113360160Y-34061426D01*
X113403783Y-34116002D01*
X113410976Y-34185501D01*
X113379454Y-34247855D01*
X113360160Y-34264574D01*
X113189231Y-34384260D01*
X113174595Y-34394508D01*
X113007505Y-34561598D01*
X112871965Y-34755170D01*
X112772097Y-34969336D01*
X112710936Y-35197592D01*
X112690340Y-35432999D01*
X112710936Y-35668407D01*
X112749913Y-35813870D01*
X112772097Y-35896663D01*
X112871965Y-36110830D01*
X113007505Y-36304401D01*
X113007508Y-36304404D01*
X113129818Y-36426714D01*
X113163303Y-36488037D01*
X113158319Y-36557729D01*
X113116447Y-36613662D01*
X113085472Y-36630576D01*
X112953913Y-36679646D01*
X112838811Y-36765811D01*
X112752647Y-36880910D01*
X112702400Y-37015628D01*
X112696354Y-37071867D01*
X112696000Y-37078481D01*
X112696000Y-37723000D01*
X113600428Y-37723000D01*
X113577318Y-37758960D01*
X113536000Y-37899673D01*
X113536000Y-38046327D01*
X113577318Y-38187040D01*
X113600428Y-38223000D01*
X112696000Y-38223000D01*
X112696000Y-38867518D01*
X112696354Y-38874132D01*
X112702400Y-38930371D01*
X112752647Y-39065089D01*
X112838811Y-39180188D01*
X112953911Y-39266352D01*
X113085471Y-39315422D01*
X113141404Y-39357294D01*
X113165821Y-39422758D01*
X113150969Y-39491031D01*
X113129819Y-39519285D01*
X113007503Y-39641601D01*
X112871965Y-39835170D01*
X112772097Y-40049336D01*
X112710936Y-40277592D01*
X112690340Y-40513000D01*
X112710936Y-40748407D01*
X112738068Y-40849663D01*
X112772097Y-40976663D01*
X112871965Y-41190830D01*
X113007505Y-41384401D01*
X113174599Y-41551495D01*
X113360160Y-41681426D01*
X113403783Y-41736002D01*
X113410976Y-41805501D01*
X113379454Y-41867855D01*
X113360160Y-41884574D01*
X113240119Y-41968628D01*
X113174595Y-42014508D01*
X113007505Y-42181598D01*
X112871965Y-42375170D01*
X112772097Y-42589336D01*
X112710936Y-42817592D01*
X112690340Y-43053000D01*
X112710936Y-43288407D01*
X112727695Y-43350952D01*
X112772097Y-43516663D01*
X112871965Y-43730830D01*
X113007505Y-43924401D01*
X113174599Y-44091495D01*
X113360160Y-44221426D01*
X113403783Y-44276002D01*
X113410976Y-44345501D01*
X113379454Y-44407855D01*
X113360159Y-44424575D01*
X113174595Y-44554508D01*
X113007505Y-44721598D01*
X112871965Y-44915170D01*
X112772097Y-45129336D01*
X112710936Y-45357592D01*
X112690340Y-45593000D01*
X112710936Y-45828407D01*
X112755709Y-45995502D01*
X112772097Y-46056663D01*
X112871965Y-46270830D01*
X113007505Y-46464401D01*
X113174599Y-46631495D01*
X113360160Y-46761426D01*
X113403783Y-46816002D01*
X113410976Y-46885501D01*
X113379454Y-46947855D01*
X113360159Y-46964575D01*
X113174595Y-47094508D01*
X113007505Y-47261598D01*
X112871965Y-47455170D01*
X112772097Y-47669336D01*
X112710936Y-47897592D01*
X112690340Y-48132999D01*
X112710936Y-48368407D01*
X112710937Y-48368409D01*
X112772097Y-48596663D01*
X112871965Y-48810830D01*
X113007505Y-49004401D01*
X113007508Y-49004404D01*
X113129818Y-49126714D01*
X113163303Y-49188037D01*
X113158319Y-49257729D01*
X113116447Y-49313662D01*
X113085472Y-49330576D01*
X112953913Y-49379646D01*
X112838811Y-49465811D01*
X112752647Y-49580910D01*
X112702400Y-49715628D01*
X112696354Y-49771867D01*
X112696000Y-49778481D01*
X112696000Y-50423000D01*
X113600428Y-50423000D01*
X113577318Y-50458960D01*
X113536000Y-50599673D01*
X113536000Y-50746327D01*
X113577318Y-50887040D01*
X113600428Y-50923000D01*
X112696000Y-50923000D01*
X112696000Y-51567518D01*
X112696354Y-51574132D01*
X112702400Y-51630371D01*
X112752647Y-51765089D01*
X112838811Y-51880188D01*
X112953911Y-51966352D01*
X113085471Y-52015422D01*
X113141404Y-52057294D01*
X113165821Y-52122758D01*
X113150969Y-52191031D01*
X113129819Y-52219285D01*
X113007503Y-52341601D01*
X112871965Y-52535170D01*
X112772097Y-52749336D01*
X112710936Y-52977592D01*
X112690340Y-53213000D01*
X112710936Y-53448407D01*
X112755709Y-53615502D01*
X112772097Y-53676663D01*
X112871965Y-53890830D01*
X113007505Y-54084401D01*
X113174599Y-54251495D01*
X113360160Y-54381426D01*
X113403783Y-54436002D01*
X113410976Y-54505501D01*
X113379454Y-54567855D01*
X113360159Y-54584575D01*
X113174595Y-54714508D01*
X113007505Y-54881598D01*
X112871965Y-55075170D01*
X112772097Y-55289336D01*
X112710936Y-55517592D01*
X112690340Y-55753000D01*
X112710936Y-55988407D01*
X112755709Y-56155502D01*
X112772097Y-56216663D01*
X112871965Y-56430830D01*
X113007505Y-56624401D01*
X113174599Y-56791495D01*
X113360160Y-56921426D01*
X113403783Y-56976002D01*
X113410976Y-57045501D01*
X113379454Y-57107855D01*
X113360159Y-57124575D01*
X113174595Y-57254508D01*
X113007505Y-57421598D01*
X112871965Y-57615170D01*
X112772097Y-57829336D01*
X112710936Y-58057592D01*
X112690340Y-58292999D01*
X112710936Y-58528407D01*
X112755709Y-58695501D01*
X112772097Y-58756663D01*
X112871965Y-58970830D01*
X113007505Y-59164401D01*
X113174599Y-59331495D01*
X113360160Y-59461426D01*
X113403783Y-59516002D01*
X113410976Y-59585501D01*
X113379454Y-59647855D01*
X113360159Y-59664575D01*
X113174595Y-59794508D01*
X113007505Y-59961598D01*
X112871965Y-60155170D01*
X112772097Y-60369336D01*
X112710936Y-60597592D01*
X112690340Y-60832999D01*
X112710936Y-61068407D01*
X112749948Y-61214000D01*
X112772097Y-61296663D01*
X112871965Y-61510830D01*
X113007505Y-61704401D01*
X113007508Y-61704404D01*
X113129818Y-61826714D01*
X113163303Y-61888037D01*
X113158319Y-61957729D01*
X113116447Y-62013662D01*
X113085472Y-62030576D01*
X112953913Y-62079646D01*
X112838811Y-62165811D01*
X112752647Y-62280910D01*
X112702400Y-62415628D01*
X112696354Y-62471867D01*
X112696000Y-62478481D01*
X112696000Y-63123000D01*
X113600428Y-63123000D01*
X113577318Y-63158960D01*
X113536000Y-63299673D01*
X113536000Y-63446327D01*
X113577318Y-63587040D01*
X113600428Y-63623000D01*
X112696000Y-63623000D01*
X112696000Y-64267518D01*
X112696354Y-64274132D01*
X112702400Y-64330371D01*
X112752647Y-64465089D01*
X112838811Y-64580188D01*
X112953911Y-64666352D01*
X113085471Y-64715422D01*
X113141404Y-64757294D01*
X113165821Y-64822758D01*
X113150969Y-64891031D01*
X113129819Y-64919285D01*
X113007503Y-65041601D01*
X112871965Y-65235170D01*
X112772097Y-65449336D01*
X112710936Y-65677592D01*
X112690340Y-65913000D01*
X112710936Y-66148407D01*
X112755709Y-66315502D01*
X112772097Y-66376663D01*
X112871965Y-66590830D01*
X113007505Y-66784401D01*
X113174599Y-66951495D01*
X113360160Y-67081426D01*
X113403783Y-67136002D01*
X113410976Y-67205501D01*
X113379454Y-67267855D01*
X113360159Y-67284575D01*
X113174595Y-67414508D01*
X113007505Y-67581598D01*
X112871965Y-67775170D01*
X112772097Y-67989336D01*
X112710936Y-68217592D01*
X112690340Y-68453000D01*
X112710936Y-68688407D01*
X112755709Y-68855502D01*
X112772097Y-68916663D01*
X112871965Y-69130830D01*
X113007505Y-69324401D01*
X113174599Y-69491495D01*
X113360160Y-69621426D01*
X113403783Y-69676002D01*
X113410976Y-69745501D01*
X113379454Y-69807855D01*
X113360158Y-69824575D01*
X113271684Y-69886526D01*
X113174595Y-69954508D01*
X113007505Y-70121598D01*
X112871965Y-70315170D01*
X112772097Y-70529336D01*
X112710936Y-70757592D01*
X112690340Y-70992999D01*
X112710936Y-71228407D01*
X112740160Y-71337471D01*
X112772097Y-71456663D01*
X112871965Y-71670830D01*
X113007505Y-71864401D01*
X113174599Y-72031495D01*
X113360160Y-72161426D01*
X113403783Y-72216002D01*
X113410976Y-72285501D01*
X113379454Y-72347855D01*
X113360159Y-72364575D01*
X113174595Y-72494508D01*
X113007505Y-72661598D01*
X112871965Y-72855170D01*
X112772097Y-73069336D01*
X112710936Y-73297592D01*
X112690340Y-73532999D01*
X112710936Y-73768407D01*
X112723350Y-73814735D01*
X112772097Y-73996663D01*
X112871965Y-74210830D01*
X113007505Y-74404401D01*
X113007508Y-74404404D01*
X113129818Y-74526714D01*
X113163303Y-74588037D01*
X113158319Y-74657729D01*
X113116447Y-74713662D01*
X113085472Y-74730576D01*
X112953913Y-74779646D01*
X112838811Y-74865811D01*
X112752647Y-74980910D01*
X112702400Y-75115628D01*
X112696354Y-75171867D01*
X112696000Y-75178481D01*
X112696000Y-75823000D01*
X113600428Y-75823000D01*
X113577318Y-75858960D01*
X113536000Y-75999673D01*
X113536000Y-76146327D01*
X113577318Y-76287040D01*
X113600428Y-76323000D01*
X112696000Y-76323000D01*
X112696000Y-76967518D01*
X112696354Y-76974132D01*
X112702400Y-77030371D01*
X112752647Y-77165089D01*
X112838811Y-77280188D01*
X112953911Y-77366352D01*
X113085471Y-77415422D01*
X113141404Y-77457294D01*
X113165821Y-77522758D01*
X113150969Y-77591031D01*
X113129819Y-77619285D01*
X113007503Y-77741601D01*
X112871965Y-77935170D01*
X112772097Y-78149336D01*
X112710936Y-78377592D01*
X112690340Y-78613000D01*
X112710936Y-78848407D01*
X112747300Y-78984117D01*
X112772097Y-79076663D01*
X112871965Y-79290830D01*
X113007505Y-79484401D01*
X113174599Y-79651495D01*
X113360160Y-79781426D01*
X113403783Y-79836002D01*
X113410976Y-79905501D01*
X113379454Y-79967855D01*
X113360158Y-79984575D01*
X113213681Y-80087140D01*
X113174595Y-80114508D01*
X113007505Y-80281598D01*
X112871965Y-80475170D01*
X112772097Y-80689336D01*
X112710936Y-80917592D01*
X112690340Y-81153000D01*
X112710936Y-81388407D01*
X112730216Y-81460359D01*
X112772097Y-81616663D01*
X112871965Y-81830830D01*
X113007505Y-82024401D01*
X113174599Y-82191495D01*
X113368170Y-82327035D01*
X113582337Y-82426903D01*
X113810592Y-82488063D01*
X114046000Y-82508659D01*
X114281408Y-82488063D01*
X114509663Y-82426903D01*
X114723830Y-82327035D01*
X114917401Y-82191495D01*
X115084495Y-82024401D01*
X115220035Y-81830830D01*
X115319903Y-81616663D01*
X115381063Y-81388408D01*
X115401659Y-81153000D01*
X115381536Y-80922999D01*
X119040340Y-80922999D01*
X119060936Y-81158407D01*
X119105709Y-81325502D01*
X119122097Y-81386663D01*
X119221965Y-81600830D01*
X119357505Y-81794401D01*
X119524599Y-81961495D01*
X119718170Y-82097035D01*
X119932337Y-82196903D01*
X120160592Y-82258063D01*
X120396000Y-82278659D01*
X120631408Y-82258063D01*
X120859663Y-82196903D01*
X121073830Y-82097035D01*
X121267401Y-81961495D01*
X121389329Y-81839566D01*
X121450648Y-81806084D01*
X121520340Y-81811068D01*
X121576274Y-81852939D01*
X121593189Y-81883916D01*
X121604092Y-81913148D01*
X121642204Y-82015331D01*
X121728454Y-82130546D01*
X121843669Y-82216796D01*
X121978517Y-82267091D01*
X122038127Y-82273500D01*
X123833872Y-82273499D01*
X123893483Y-82267091D01*
X124028331Y-82216796D01*
X124143546Y-82130546D01*
X124229796Y-82015331D01*
X124278810Y-81883916D01*
X124320681Y-81827983D01*
X124386146Y-81803566D01*
X124454419Y-81818418D01*
X124482672Y-81839568D01*
X124604599Y-81961495D01*
X124798170Y-82097035D01*
X125012337Y-82196903D01*
X125240592Y-82258063D01*
X125476000Y-82278659D01*
X125711408Y-82258063D01*
X125939663Y-82196903D01*
X126153830Y-82097035D01*
X126347401Y-81961495D01*
X126514495Y-81794401D01*
X126650035Y-81600830D01*
X126749903Y-81386663D01*
X126811063Y-81158408D01*
X126831659Y-80923000D01*
X126811063Y-80687592D01*
X126749903Y-80459337D01*
X126650035Y-80245171D01*
X126514495Y-80051599D01*
X126347401Y-79884505D01*
X126153830Y-79748965D01*
X125939663Y-79649097D01*
X125878501Y-79632709D01*
X125711407Y-79587936D01*
X125476000Y-79567340D01*
X125240592Y-79587936D01*
X125012336Y-79649097D01*
X124798170Y-79748965D01*
X124604601Y-79884503D01*
X124482673Y-80006431D01*
X124421350Y-80039915D01*
X124351658Y-80034931D01*
X124295725Y-79993059D01*
X124278810Y-79962082D01*
X124265289Y-79925830D01*
X124229796Y-79830669D01*
X124143546Y-79715454D01*
X124028331Y-79629204D01*
X123893483Y-79578909D01*
X123833873Y-79572500D01*
X123830550Y-79572500D01*
X122041439Y-79572500D01*
X122041420Y-79572500D01*
X122038128Y-79572501D01*
X122034848Y-79572853D01*
X122034840Y-79572854D01*
X121978515Y-79578909D01*
X121843669Y-79629204D01*
X121728454Y-79715454D01*
X121642204Y-79830669D01*
X121593189Y-79962083D01*
X121551317Y-80018016D01*
X121485852Y-80042433D01*
X121417580Y-80027581D01*
X121389326Y-80006430D01*
X121267404Y-79884508D01*
X121267401Y-79884505D01*
X121073830Y-79748965D01*
X120859663Y-79649097D01*
X120798501Y-79632709D01*
X120631407Y-79587936D01*
X120395999Y-79567340D01*
X120160592Y-79587936D01*
X119932336Y-79649097D01*
X119718170Y-79748965D01*
X119524598Y-79884505D01*
X119357505Y-80051598D01*
X119221965Y-80245170D01*
X119122097Y-80459336D01*
X119060936Y-80687592D01*
X119040340Y-80922999D01*
X115381536Y-80922999D01*
X115381063Y-80917592D01*
X115319903Y-80689337D01*
X115220035Y-80475171D01*
X115084495Y-80281599D01*
X114917401Y-80114505D01*
X114731839Y-79984573D01*
X114688216Y-79929998D01*
X114681022Y-79860500D01*
X114712545Y-79798145D01*
X114731837Y-79781428D01*
X114917401Y-79651495D01*
X115084495Y-79484401D01*
X115220035Y-79290830D01*
X115319903Y-79076663D01*
X115381063Y-78848408D01*
X115401659Y-78613000D01*
X115381063Y-78377592D01*
X115319903Y-78149337D01*
X115220035Y-77935171D01*
X115084495Y-77741599D01*
X114962181Y-77619284D01*
X114928696Y-77557962D01*
X114933680Y-77488270D01*
X114975552Y-77432337D01*
X115006528Y-77415422D01*
X115138089Y-77366352D01*
X115253188Y-77280188D01*
X115339352Y-77165089D01*
X115389599Y-77030371D01*
X115395645Y-76974132D01*
X115396000Y-76967518D01*
X115396000Y-76323000D01*
X114491572Y-76323000D01*
X114514682Y-76287040D01*
X114556000Y-76146327D01*
X114556000Y-75999673D01*
X114514682Y-75858960D01*
X114491572Y-75823000D01*
X115396000Y-75823000D01*
X115396000Y-75178481D01*
X115395645Y-75171867D01*
X115389599Y-75115628D01*
X115339352Y-74980910D01*
X115253188Y-74865811D01*
X115138088Y-74779647D01*
X115006528Y-74730577D01*
X114950594Y-74688705D01*
X114926178Y-74623240D01*
X114941030Y-74554967D01*
X114962175Y-74526720D01*
X115084495Y-74404401D01*
X115220035Y-74210830D01*
X115319903Y-73996663D01*
X115381063Y-73768408D01*
X115401659Y-73533000D01*
X115381063Y-73297592D01*
X115319903Y-73069337D01*
X115220035Y-72855171D01*
X115084495Y-72661599D01*
X114917401Y-72494505D01*
X114731839Y-72364573D01*
X114688216Y-72309998D01*
X114681022Y-72240500D01*
X114712545Y-72178145D01*
X114731837Y-72161428D01*
X114917401Y-72031495D01*
X115084495Y-71864401D01*
X115220035Y-71670830D01*
X115319903Y-71456663D01*
X115381063Y-71228408D01*
X115401659Y-70993000D01*
X115388158Y-70838692D01*
X115381063Y-70757592D01*
X115375585Y-70737148D01*
X115319903Y-70529337D01*
X115220035Y-70315171D01*
X115084495Y-70121599D01*
X114917401Y-69954505D01*
X114731839Y-69824573D01*
X114688216Y-69769998D01*
X114681022Y-69700500D01*
X114712545Y-69638145D01*
X114731837Y-69621428D01*
X114917401Y-69491495D01*
X115084495Y-69324401D01*
X115220035Y-69130830D01*
X115319903Y-68916663D01*
X115381063Y-68688408D01*
X115401659Y-68453000D01*
X115381063Y-68217592D01*
X115319903Y-67989337D01*
X115220035Y-67775171D01*
X115084495Y-67581599D01*
X114917401Y-67414505D01*
X114731839Y-67284573D01*
X114688216Y-67229998D01*
X114681022Y-67160500D01*
X114712545Y-67098145D01*
X114731837Y-67081428D01*
X114917401Y-66951495D01*
X115084495Y-66784401D01*
X115220035Y-66590830D01*
X115319903Y-66376663D01*
X115381063Y-66148408D01*
X115401659Y-65913000D01*
X115381063Y-65677592D01*
X115319903Y-65449337D01*
X115220035Y-65235171D01*
X115084495Y-65041599D01*
X114962181Y-64919285D01*
X114928696Y-64857962D01*
X114933680Y-64788270D01*
X114975552Y-64732337D01*
X115006528Y-64715422D01*
X115138089Y-64666352D01*
X115253188Y-64580188D01*
X115339352Y-64465089D01*
X115389599Y-64330371D01*
X115395645Y-64274132D01*
X115396000Y-64267518D01*
X115396000Y-63623000D01*
X114491572Y-63623000D01*
X114514682Y-63587040D01*
X114556000Y-63446327D01*
X114556000Y-63299673D01*
X114514682Y-63158960D01*
X114491572Y-63123000D01*
X115396000Y-63123000D01*
X115396000Y-62478481D01*
X115395645Y-62471867D01*
X115389599Y-62415628D01*
X115339352Y-62280910D01*
X115253188Y-62165811D01*
X115138088Y-62079647D01*
X115006528Y-62030577D01*
X114950594Y-61988705D01*
X114926178Y-61923240D01*
X114941030Y-61854967D01*
X114962175Y-61826720D01*
X115084495Y-61704401D01*
X115220035Y-61510830D01*
X115319903Y-61296663D01*
X115381063Y-61068408D01*
X115401659Y-60833000D01*
X115381063Y-60597592D01*
X115319903Y-60369337D01*
X115220035Y-60155171D01*
X115084495Y-59961599D01*
X114917401Y-59794505D01*
X114731839Y-59664573D01*
X114688216Y-59609998D01*
X114681022Y-59540500D01*
X114712545Y-59478145D01*
X114731837Y-59461428D01*
X114917401Y-59331495D01*
X115084495Y-59164401D01*
X115220035Y-58970830D01*
X115319903Y-58756663D01*
X115381063Y-58528408D01*
X115401659Y-58293000D01*
X115381063Y-58057592D01*
X115319903Y-57829337D01*
X115220035Y-57615171D01*
X115084495Y-57421599D01*
X114917401Y-57254505D01*
X114731839Y-57124573D01*
X114688217Y-57069998D01*
X114681024Y-57000499D01*
X114712546Y-56938145D01*
X114731837Y-56921428D01*
X114917401Y-56791495D01*
X115084495Y-56624401D01*
X115220035Y-56430830D01*
X115319903Y-56216663D01*
X115381063Y-55988408D01*
X115401659Y-55753000D01*
X115381063Y-55517592D01*
X115319903Y-55289337D01*
X115220035Y-55075171D01*
X115084495Y-54881599D01*
X114917401Y-54714505D01*
X114731839Y-54584573D01*
X114688216Y-54529998D01*
X114681022Y-54460500D01*
X114712545Y-54398145D01*
X114731837Y-54381428D01*
X114917401Y-54251495D01*
X115084495Y-54084401D01*
X115220035Y-53890830D01*
X115319903Y-53676663D01*
X115381063Y-53448408D01*
X115401659Y-53213000D01*
X115381063Y-52977592D01*
X115319903Y-52749337D01*
X115220035Y-52535171D01*
X115084495Y-52341599D01*
X114962181Y-52219284D01*
X114928696Y-52157962D01*
X114933680Y-52088270D01*
X114975552Y-52032337D01*
X115006528Y-52015422D01*
X115138089Y-51966352D01*
X115253188Y-51880188D01*
X115339352Y-51765089D01*
X115389599Y-51630371D01*
X115395645Y-51574132D01*
X115396000Y-51567518D01*
X115396000Y-50923000D01*
X114491572Y-50923000D01*
X114514682Y-50887040D01*
X114556000Y-50746327D01*
X114556000Y-50599673D01*
X114514682Y-50458960D01*
X114491572Y-50423000D01*
X115400048Y-50423000D01*
X115467087Y-50442685D01*
X115487727Y-50459317D01*
X116595927Y-51567518D01*
X117450196Y-52421787D01*
X117463096Y-52437888D01*
X117514223Y-52485900D01*
X117517020Y-52488611D01*
X117536529Y-52508120D01*
X117539709Y-52510587D01*
X117548571Y-52518155D01*
X117580418Y-52548062D01*
X117597972Y-52557712D01*
X117614236Y-52568396D01*
X117625972Y-52577499D01*
X117630064Y-52580673D01*
X117654909Y-52591424D01*
X117670152Y-52598021D01*
X117680631Y-52603154D01*
X117718908Y-52624197D01*
X117738306Y-52629177D01*
X117756708Y-52635477D01*
X117775104Y-52643438D01*
X117818261Y-52650273D01*
X117829664Y-52652634D01*
X117871981Y-52663500D01*
X117892016Y-52663500D01*
X117911413Y-52665026D01*
X117931196Y-52668160D01*
X117974674Y-52664050D01*
X117986344Y-52663500D01*
X130413497Y-52663500D01*
X130480536Y-52683185D01*
X130526291Y-52735989D01*
X130536235Y-52805147D01*
X130533272Y-52819593D01*
X130490936Y-52977592D01*
X130470340Y-53212999D01*
X130490936Y-53448407D01*
X130535709Y-53615502D01*
X130552097Y-53676663D01*
X130651965Y-53890830D01*
X130787505Y-54084401D01*
X130954599Y-54251495D01*
X131140160Y-54381426D01*
X131183783Y-54436002D01*
X131190976Y-54505501D01*
X131159454Y-54567855D01*
X131140159Y-54584575D01*
X130954595Y-54714508D01*
X130787505Y-54881598D01*
X130651965Y-55075170D01*
X130552097Y-55289336D01*
X130490936Y-55517592D01*
X130470340Y-55753000D01*
X130490936Y-55988407D01*
X130535709Y-56155501D01*
X130552097Y-56216663D01*
X130651965Y-56430830D01*
X130787505Y-56624401D01*
X130954599Y-56791495D01*
X131140160Y-56921426D01*
X131183783Y-56976002D01*
X131190976Y-57045501D01*
X131159454Y-57107855D01*
X131140159Y-57124575D01*
X130954595Y-57254508D01*
X130787505Y-57421598D01*
X130651965Y-57615170D01*
X130552097Y-57829336D01*
X130490936Y-58057592D01*
X130470340Y-58292999D01*
X130490936Y-58528407D01*
X130535709Y-58695502D01*
X130552097Y-58756663D01*
X130651965Y-58970830D01*
X130787505Y-59164401D01*
X130954599Y-59331495D01*
X131140160Y-59461426D01*
X131183783Y-59516002D01*
X131190976Y-59585501D01*
X131159454Y-59647855D01*
X131140159Y-59664575D01*
X130954595Y-59794508D01*
X130787505Y-59961598D01*
X130651965Y-60155170D01*
X130552097Y-60369336D01*
X130490936Y-60597592D01*
X130470340Y-60833000D01*
X130490936Y-61068407D01*
X130529948Y-61214000D01*
X130552097Y-61296663D01*
X130651965Y-61510830D01*
X130787505Y-61704401D01*
X130787507Y-61704403D01*
X130787508Y-61704404D01*
X130909818Y-61826714D01*
X130943303Y-61888037D01*
X130938319Y-61957729D01*
X130896447Y-62013662D01*
X130865472Y-62030576D01*
X130733913Y-62079646D01*
X130618811Y-62165811D01*
X130532647Y-62280910D01*
X130482400Y-62415628D01*
X130476354Y-62471867D01*
X130476000Y-62478481D01*
X130475999Y-63122999D01*
X130476000Y-63123000D01*
X131380428Y-63123000D01*
X131357318Y-63158960D01*
X131316000Y-63299673D01*
X131316000Y-63446327D01*
X131357318Y-63587040D01*
X131380428Y-63623000D01*
X130476000Y-63623000D01*
X130476000Y-64267518D01*
X130476354Y-64274132D01*
X130482400Y-64330371D01*
X130532647Y-64465089D01*
X130618811Y-64580188D01*
X130733911Y-64666352D01*
X130865471Y-64715422D01*
X130921404Y-64757294D01*
X130945821Y-64822758D01*
X130930969Y-64891031D01*
X130909819Y-64919285D01*
X130787503Y-65041601D01*
X130651965Y-65235170D01*
X130552097Y-65449336D01*
X130490936Y-65677592D01*
X130470340Y-65912999D01*
X130490936Y-66148407D01*
X130535709Y-66315502D01*
X130552097Y-66376663D01*
X130651965Y-66590830D01*
X130787505Y-66784401D01*
X130954599Y-66951495D01*
X131140160Y-67081426D01*
X131183783Y-67136002D01*
X131190976Y-67205501D01*
X131159454Y-67267855D01*
X131140159Y-67284575D01*
X130954595Y-67414508D01*
X130787505Y-67581598D01*
X130651965Y-67775170D01*
X130552097Y-67989336D01*
X130490936Y-68217592D01*
X130470340Y-68453000D01*
X130490936Y-68688407D01*
X130535709Y-68855502D01*
X130552097Y-68916663D01*
X130651965Y-69130830D01*
X130787505Y-69324401D01*
X130954599Y-69491495D01*
X131140160Y-69621426D01*
X131183783Y-69676002D01*
X131190976Y-69745501D01*
X131159454Y-69807855D01*
X131140158Y-69824575D01*
X131051684Y-69886526D01*
X130954595Y-69954508D01*
X130787505Y-70121598D01*
X130651965Y-70315170D01*
X130552097Y-70529336D01*
X130490936Y-70757592D01*
X130470340Y-70992999D01*
X130490936Y-71228407D01*
X130520160Y-71337471D01*
X130552097Y-71456663D01*
X130651965Y-71670830D01*
X130787505Y-71864401D01*
X130954599Y-72031495D01*
X131140160Y-72161426D01*
X131183783Y-72216002D01*
X131190976Y-72285501D01*
X131159454Y-72347855D01*
X131140159Y-72364575D01*
X130954595Y-72494508D01*
X130787505Y-72661598D01*
X130651965Y-72855170D01*
X130552097Y-73069336D01*
X130490936Y-73297592D01*
X130470340Y-73533000D01*
X130490936Y-73768407D01*
X130503350Y-73814735D01*
X130552097Y-73996663D01*
X130651965Y-74210830D01*
X130787505Y-74404401D01*
X130787507Y-74404403D01*
X130787508Y-74404404D01*
X130909818Y-74526714D01*
X130943303Y-74588037D01*
X130938319Y-74657729D01*
X130896447Y-74713662D01*
X130865472Y-74730576D01*
X130733913Y-74779646D01*
X130618811Y-74865811D01*
X130532647Y-74980910D01*
X130482400Y-75115628D01*
X130476354Y-75171867D01*
X130476000Y-75178481D01*
X130475999Y-75822999D01*
X130476000Y-75823000D01*
X131380428Y-75823000D01*
X131357318Y-75858960D01*
X131316000Y-75999673D01*
X131316000Y-76146327D01*
X131357318Y-76287040D01*
X131380428Y-76323000D01*
X130476000Y-76323000D01*
X130476000Y-76967518D01*
X130476354Y-76974132D01*
X130482400Y-77030371D01*
X130532647Y-77165089D01*
X130618811Y-77280188D01*
X130733911Y-77366352D01*
X130865471Y-77415422D01*
X130921404Y-77457294D01*
X130945821Y-77522758D01*
X130930969Y-77591031D01*
X130909819Y-77619285D01*
X130787503Y-77741601D01*
X130651965Y-77935170D01*
X130552097Y-78149336D01*
X130490936Y-78377592D01*
X130470340Y-78613000D01*
X130490936Y-78848407D01*
X130527300Y-78984117D01*
X130552097Y-79076663D01*
X130651965Y-79290830D01*
X130787505Y-79484401D01*
X130954599Y-79651495D01*
X131140160Y-79781426D01*
X131183783Y-79836002D01*
X131190976Y-79905501D01*
X131159454Y-79967855D01*
X131140158Y-79984575D01*
X130993681Y-80087140D01*
X130954595Y-80114508D01*
X130787505Y-80281598D01*
X130651965Y-80475170D01*
X130552097Y-80689336D01*
X130490936Y-80917592D01*
X130470340Y-81153000D01*
X130490936Y-81388407D01*
X130510216Y-81460359D01*
X130552097Y-81616663D01*
X130651965Y-81830830D01*
X130787505Y-82024401D01*
X130954599Y-82191495D01*
X131148170Y-82327035D01*
X131362337Y-82426903D01*
X131590591Y-82488063D01*
X131590592Y-82488063D01*
X131825999Y-82508659D01*
X131825999Y-82508658D01*
X131826000Y-82508659D01*
X132061408Y-82488063D01*
X132289663Y-82426903D01*
X132503830Y-82327035D01*
X132697401Y-82191495D01*
X132864495Y-82024401D01*
X133000035Y-81830830D01*
X133020007Y-81788000D01*
X138141033Y-81788000D01*
X138160858Y-82014602D01*
X138219733Y-82234326D01*
X138315866Y-82440484D01*
X138366972Y-82513471D01*
X138366974Y-82513472D01*
X139048046Y-81832399D01*
X139060835Y-81913148D01*
X139118359Y-82026045D01*
X139207955Y-82115641D01*
X139320852Y-82173165D01*
X139401599Y-82185953D01*
X138720526Y-82867025D01*
X138720526Y-82867026D01*
X138793515Y-82918133D01*
X138999673Y-83014266D01*
X139219397Y-83073141D01*
X139445999Y-83092966D01*
X139672602Y-83073141D01*
X139892326Y-83014266D01*
X140098480Y-82918134D01*
X140171472Y-82867025D01*
X139490401Y-82185953D01*
X139571148Y-82173165D01*
X139684045Y-82115641D01*
X139773641Y-82026045D01*
X139831165Y-81913148D01*
X139843953Y-81832400D01*
X140525025Y-82513472D01*
X140576134Y-82440480D01*
X140672266Y-82234326D01*
X140731141Y-82014602D01*
X140750966Y-81788000D01*
X140750966Y-81787999D01*
X145760531Y-81787999D01*
X145780364Y-82014689D01*
X145839261Y-82234497D01*
X145935432Y-82440735D01*
X146065953Y-82627140D01*
X146226859Y-82788046D01*
X146413264Y-82918567D01*
X146413265Y-82918567D01*
X146413266Y-82918568D01*
X146619504Y-83014739D01*
X146839308Y-83073635D01*
X147066000Y-83093468D01*
X147292692Y-83073635D01*
X147512496Y-83014739D01*
X147718734Y-82918568D01*
X147905139Y-82788047D01*
X148066047Y-82627139D01*
X148196568Y-82440734D01*
X148292739Y-82234496D01*
X148351635Y-82014692D01*
X148371031Y-81793000D01*
X149179531Y-81793000D01*
X149199364Y-82019689D01*
X149258261Y-82239497D01*
X149354432Y-82445735D01*
X149484953Y-82632140D01*
X149645859Y-82793046D01*
X149832264Y-82923567D01*
X149832265Y-82923567D01*
X149832266Y-82923568D01*
X150038504Y-83019739D01*
X150258308Y-83078635D01*
X150485000Y-83098468D01*
X150711692Y-83078635D01*
X150931496Y-83019739D01*
X151137734Y-82923568D01*
X151324139Y-82793047D01*
X151485047Y-82632139D01*
X151615568Y-82445734D01*
X151711739Y-82239496D01*
X151770635Y-82019692D01*
X151790468Y-81793000D01*
X151770635Y-81566308D01*
X151711739Y-81346504D01*
X151615568Y-81140266D01*
X151612242Y-81135515D01*
X151485046Y-80953859D01*
X151324140Y-80792953D01*
X151137733Y-80662431D01*
X151096727Y-80643310D01*
X151079724Y-80635381D01*
X151027285Y-80589210D01*
X151008133Y-80522017D01*
X151028348Y-80455135D01*
X151079725Y-80410618D01*
X151095382Y-80403317D01*
X151137734Y-80383568D01*
X151324139Y-80253047D01*
X151485047Y-80092139D01*
X151615568Y-79905734D01*
X151711739Y-79699496D01*
X151770635Y-79479692D01*
X151790468Y-79253000D01*
X151790468Y-79252999D01*
X156799531Y-79252999D01*
X156819364Y-79479689D01*
X156878261Y-79699497D01*
X156974432Y-79905735D01*
X157104953Y-80092140D01*
X157265858Y-80253045D01*
X157290461Y-80270272D01*
X157334087Y-80324849D01*
X157341281Y-80394347D01*
X157309759Y-80456702D01*
X157249530Y-80492117D01*
X157232594Y-80495138D01*
X157197515Y-80498909D01*
X157062669Y-80549204D01*
X156947454Y-80635454D01*
X156861204Y-80750668D01*
X156810909Y-80885516D01*
X156810768Y-80886833D01*
X156804500Y-80945127D01*
X156804500Y-80948448D01*
X156804500Y-80948449D01*
X156804500Y-82637560D01*
X156804500Y-82637578D01*
X156804501Y-82640872D01*
X156810909Y-82700483D01*
X156861204Y-82835331D01*
X156947454Y-82950546D01*
X157062669Y-83036796D01*
X157197517Y-83087091D01*
X157257127Y-83093500D01*
X158952872Y-83093499D01*
X159012483Y-83087091D01*
X159147331Y-83036796D01*
X159262546Y-82950546D01*
X159348796Y-82835331D01*
X159399091Y-82700483D01*
X159405500Y-82640873D01*
X159405499Y-80945128D01*
X159399091Y-80885517D01*
X159348796Y-80750669D01*
X159262546Y-80635454D01*
X159147331Y-80549204D01*
X159012483Y-80498909D01*
X158977403Y-80495137D01*
X158912854Y-80468400D01*
X158873006Y-80411008D01*
X158870512Y-80341182D01*
X158906164Y-80281093D01*
X158919530Y-80270278D01*
X158944139Y-80253047D01*
X159105047Y-80092139D01*
X159235568Y-79905734D01*
X159268785Y-79834498D01*
X159314954Y-79782064D01*
X159382148Y-79762911D01*
X159449029Y-79783126D01*
X159493546Y-79834500D01*
X159516863Y-79884503D01*
X159524433Y-79900736D01*
X159654953Y-80087140D01*
X159815859Y-80248046D01*
X160002264Y-80378567D01*
X160002265Y-80378567D01*
X160002266Y-80378568D01*
X160208504Y-80474739D01*
X160428308Y-80533635D01*
X160655000Y-80553468D01*
X160881692Y-80533635D01*
X161101496Y-80474739D01*
X161307734Y-80378568D01*
X161494139Y-80248047D01*
X161655047Y-80087139D01*
X161785568Y-79900734D01*
X161881739Y-79694496D01*
X161940635Y-79474692D01*
X161960468Y-79248000D01*
X161960468Y-79247999D01*
X166969531Y-79247999D01*
X166989364Y-79474689D01*
X167048261Y-79694497D01*
X167144432Y-79900735D01*
X167274953Y-80087140D01*
X167435859Y-80248046D01*
X167622264Y-80378567D01*
X167622265Y-80378567D01*
X167622266Y-80378568D01*
X167828504Y-80474739D01*
X168048308Y-80533635D01*
X168199435Y-80546857D01*
X168274999Y-80553468D01*
X168274999Y-80553467D01*
X168275000Y-80553468D01*
X168501692Y-80533635D01*
X168721496Y-80474739D01*
X168927734Y-80378568D01*
X169114139Y-80248047D01*
X169275047Y-80087139D01*
X169405568Y-79900734D01*
X169501739Y-79694496D01*
X169560635Y-79474692D01*
X169580468Y-79248000D01*
X170983340Y-79248000D01*
X171003936Y-79483407D01*
X171029526Y-79578909D01*
X171065097Y-79711663D01*
X171164965Y-79925830D01*
X171300505Y-80119401D01*
X171300508Y-80119404D01*
X171422430Y-80241326D01*
X171455915Y-80302649D01*
X171450931Y-80372341D01*
X171409059Y-80428274D01*
X171378083Y-80445189D01*
X171246669Y-80494204D01*
X171131454Y-80580454D01*
X171045204Y-80695668D01*
X170994909Y-80830516D01*
X170988996Y-80885517D01*
X170988500Y-80890127D01*
X170988500Y-80893448D01*
X170988500Y-80893449D01*
X170988500Y-82682560D01*
X170988500Y-82682578D01*
X170988501Y-82685872D01*
X170988853Y-82689152D01*
X170988854Y-82689159D01*
X170994909Y-82745483D01*
X171045204Y-82880331D01*
X171131454Y-82995546D01*
X171246669Y-83081796D01*
X171381517Y-83132091D01*
X171441127Y-83138500D01*
X173236872Y-83138499D01*
X173296483Y-83132091D01*
X173431331Y-83081796D01*
X173546546Y-82995546D01*
X173632796Y-82880331D01*
X173683091Y-82745483D01*
X173689500Y-82685873D01*
X173689499Y-80890128D01*
X173683091Y-80830517D01*
X173632796Y-80695669D01*
X173546546Y-80580454D01*
X173431331Y-80494204D01*
X173337845Y-80459336D01*
X173299916Y-80445189D01*
X173243983Y-80403317D01*
X173219566Y-80337853D01*
X173234418Y-80269580D01*
X173255563Y-80241332D01*
X173377495Y-80119401D01*
X173513035Y-79925830D01*
X173612903Y-79711663D01*
X173674063Y-79483408D01*
X173694659Y-79248000D01*
X173674063Y-79012592D01*
X173612903Y-78784337D01*
X173513035Y-78570171D01*
X173377495Y-78376599D01*
X173210401Y-78209505D01*
X173016830Y-78073965D01*
X172802663Y-77974097D01*
X172703520Y-77947532D01*
X172574407Y-77912936D01*
X172339000Y-77892340D01*
X172103592Y-77912936D01*
X171875336Y-77974097D01*
X171661170Y-78073965D01*
X171467598Y-78209505D01*
X171300505Y-78376598D01*
X171164965Y-78570170D01*
X171065097Y-78784336D01*
X171003936Y-79012592D01*
X170983340Y-79248000D01*
X169580468Y-79248000D01*
X169560635Y-79021308D01*
X169501739Y-78801504D01*
X169405568Y-78595266D01*
X169387997Y-78570171D01*
X169275046Y-78408859D01*
X169114140Y-78247953D01*
X168927735Y-78117432D01*
X168721497Y-78021261D01*
X168501689Y-77962364D01*
X168274999Y-77942531D01*
X168048310Y-77962364D01*
X167828502Y-78021261D01*
X167622264Y-78117432D01*
X167435859Y-78247953D01*
X167274953Y-78408859D01*
X167144432Y-78595264D01*
X167048261Y-78801502D01*
X166989364Y-79021310D01*
X166969531Y-79247999D01*
X161960468Y-79247999D01*
X161940635Y-79021308D01*
X161881739Y-78801504D01*
X161785568Y-78595266D01*
X161767997Y-78570171D01*
X161655046Y-78408859D01*
X161494140Y-78247953D01*
X161307735Y-78117432D01*
X161101497Y-78021261D01*
X160881689Y-77962364D01*
X160655000Y-77942531D01*
X160428310Y-77962364D01*
X160208502Y-78021261D01*
X160002264Y-78117432D01*
X159815859Y-78247953D01*
X159654953Y-78408859D01*
X159524432Y-78595265D01*
X159491216Y-78666497D01*
X159445043Y-78718936D01*
X159377849Y-78738088D01*
X159310968Y-78717872D01*
X159266452Y-78666497D01*
X159235567Y-78600264D01*
X159105046Y-78413859D01*
X158944140Y-78252953D01*
X158757735Y-78122432D01*
X158551497Y-78026261D01*
X158331689Y-77967364D01*
X158105000Y-77947531D01*
X157878310Y-77967364D01*
X157658502Y-78026261D01*
X157452264Y-78122432D01*
X157265859Y-78252953D01*
X157104953Y-78413859D01*
X156974432Y-78600264D01*
X156878261Y-78806502D01*
X156819364Y-79026310D01*
X156799531Y-79252999D01*
X151790468Y-79252999D01*
X151790030Y-79247999D01*
X151770635Y-79026310D01*
X151770635Y-79026308D01*
X151711739Y-78806504D01*
X151615568Y-78600266D01*
X151612067Y-78595265D01*
X151485046Y-78413859D01*
X151324140Y-78252953D01*
X151137735Y-78122432D01*
X150931497Y-78026261D01*
X150711689Y-77967364D01*
X150485000Y-77947531D01*
X150258310Y-77967364D01*
X150038502Y-78026261D01*
X149832264Y-78122432D01*
X149645859Y-78252953D01*
X149484953Y-78413859D01*
X149354432Y-78600264D01*
X149258261Y-78806502D01*
X149199364Y-79026310D01*
X149179531Y-79253000D01*
X149199364Y-79479689D01*
X149258261Y-79699497D01*
X149354432Y-79905735D01*
X149484953Y-80092140D01*
X149645859Y-80253046D01*
X149771732Y-80341182D01*
X149832266Y-80383568D01*
X149874618Y-80403317D01*
X149890275Y-80410618D01*
X149942714Y-80456791D01*
X149961865Y-80523985D01*
X149941649Y-80590866D01*
X149890275Y-80635381D01*
X149869576Y-80645033D01*
X149832263Y-80662433D01*
X149645859Y-80792953D01*
X149484953Y-80953859D01*
X149354432Y-81140264D01*
X149258261Y-81346502D01*
X149199364Y-81566310D01*
X149179531Y-81793000D01*
X148371031Y-81793000D01*
X148371468Y-81788000D01*
X148351635Y-81561308D01*
X148292739Y-81341504D01*
X148196568Y-81135266D01*
X148145636Y-81062526D01*
X148066046Y-80948859D01*
X147905140Y-80787953D01*
X147718735Y-80657432D01*
X147512497Y-80561261D01*
X147292689Y-80502364D01*
X147066000Y-80482531D01*
X146839310Y-80502364D01*
X146619502Y-80561261D01*
X146413264Y-80657432D01*
X146226859Y-80787953D01*
X146065953Y-80948859D01*
X145935432Y-81135264D01*
X145839261Y-81341502D01*
X145780364Y-81561310D01*
X145760531Y-81787999D01*
X140750966Y-81787999D01*
X140731141Y-81561397D01*
X140672266Y-81341673D01*
X140576133Y-81135515D01*
X140525025Y-81062526D01*
X139843953Y-81743598D01*
X139831165Y-81662852D01*
X139773641Y-81549955D01*
X139684045Y-81460359D01*
X139571148Y-81402835D01*
X139490400Y-81390046D01*
X140171472Y-80708974D01*
X140171471Y-80708972D01*
X140098484Y-80657866D01*
X139892326Y-80561733D01*
X139672602Y-80502858D01*
X139446000Y-80483033D01*
X139219397Y-80502858D01*
X138999672Y-80561733D01*
X138793516Y-80657865D01*
X138720527Y-80708973D01*
X138720526Y-80708973D01*
X139401600Y-81390046D01*
X139320852Y-81402835D01*
X139207955Y-81460359D01*
X139118359Y-81549955D01*
X139060835Y-81662852D01*
X139048046Y-81743599D01*
X138366973Y-81062526D01*
X138366973Y-81062527D01*
X138315865Y-81135516D01*
X138219733Y-81341672D01*
X138160858Y-81561397D01*
X138141033Y-81788000D01*
X133020007Y-81788000D01*
X133099903Y-81616663D01*
X133161063Y-81388408D01*
X133181659Y-81153000D01*
X133161063Y-80917592D01*
X133099903Y-80689337D01*
X133000035Y-80475171D01*
X132864495Y-80281599D01*
X132697401Y-80114505D01*
X132511839Y-79984573D01*
X132468216Y-79929998D01*
X132461022Y-79860500D01*
X132492545Y-79798145D01*
X132511837Y-79781428D01*
X132697401Y-79651495D01*
X132864495Y-79484401D01*
X133000035Y-79290830D01*
X133099903Y-79076663D01*
X133161063Y-78848408D01*
X133181659Y-78613000D01*
X133161063Y-78377592D01*
X133099903Y-78149337D01*
X133000035Y-77935171D01*
X132864495Y-77741599D01*
X132742181Y-77619285D01*
X132708696Y-77557962D01*
X132713680Y-77488270D01*
X132755552Y-77432337D01*
X132786528Y-77415422D01*
X132918089Y-77366352D01*
X133033188Y-77280188D01*
X133119352Y-77165089D01*
X133169599Y-77030371D01*
X133175645Y-76974132D01*
X133176000Y-76967518D01*
X133176000Y-76323000D01*
X132271572Y-76323000D01*
X132294682Y-76287040D01*
X132336000Y-76146327D01*
X132336000Y-75999673D01*
X132294682Y-75858960D01*
X132271572Y-75823000D01*
X133176000Y-75823000D01*
X133176000Y-75178481D01*
X133175645Y-75171867D01*
X133169599Y-75115628D01*
X133119352Y-74980910D01*
X133033188Y-74865811D01*
X132918088Y-74779647D01*
X132786528Y-74730577D01*
X132730594Y-74688705D01*
X132706178Y-74623240D01*
X132721030Y-74554967D01*
X132742175Y-74526720D01*
X132864495Y-74404401D01*
X133000035Y-74210830D01*
X133099903Y-73996663D01*
X133161063Y-73768408D01*
X133181659Y-73533000D01*
X133161063Y-73297592D01*
X133124732Y-73162000D01*
X149042531Y-73162000D01*
X149062364Y-73388689D01*
X149121261Y-73608497D01*
X149217432Y-73814735D01*
X149347953Y-74001140D01*
X149508859Y-74162046D01*
X149695264Y-74292567D01*
X149695265Y-74292567D01*
X149695266Y-74292568D01*
X149901504Y-74388739D01*
X150121308Y-74447635D01*
X150272435Y-74460856D01*
X150347999Y-74467468D01*
X150347999Y-74467467D01*
X150348000Y-74467468D01*
X150574692Y-74447635D01*
X150794496Y-74388739D01*
X151000734Y-74292568D01*
X151187139Y-74162047D01*
X151348047Y-74001139D01*
X151478568Y-73814734D01*
X151574739Y-73608496D01*
X151633635Y-73388692D01*
X151653468Y-73162000D01*
X151633635Y-72935308D01*
X151574739Y-72715504D01*
X151478568Y-72509266D01*
X151468235Y-72494508D01*
X151348046Y-72322859D01*
X151187140Y-72161953D01*
X151000733Y-72031431D01*
X150959727Y-72012310D01*
X150942724Y-72004381D01*
X150890285Y-71958210D01*
X150871133Y-71891017D01*
X150891348Y-71824135D01*
X150942725Y-71779618D01*
X151000734Y-71752568D01*
X151187139Y-71622047D01*
X151348047Y-71461139D01*
X151478568Y-71274734D01*
X151574739Y-71068496D01*
X151633635Y-70848692D01*
X151653468Y-70622000D01*
X156662531Y-70622000D01*
X156682364Y-70848689D01*
X156741261Y-71068497D01*
X156837432Y-71274735D01*
X156967953Y-71461140D01*
X157128858Y-71622045D01*
X157153461Y-71639272D01*
X157197087Y-71693849D01*
X157204281Y-71763347D01*
X157172759Y-71825702D01*
X157112530Y-71861117D01*
X157095594Y-71864138D01*
X157060515Y-71867909D01*
X156925669Y-71918204D01*
X156810454Y-72004454D01*
X156724204Y-72119668D01*
X156673910Y-72254515D01*
X156673909Y-72254517D01*
X156667500Y-72314127D01*
X156667500Y-72317448D01*
X156667500Y-72317449D01*
X156667500Y-74006560D01*
X156667500Y-74006578D01*
X156667501Y-74009872D01*
X156673909Y-74069483D01*
X156724204Y-74204331D01*
X156810454Y-74319546D01*
X156925669Y-74405796D01*
X157060517Y-74456091D01*
X157120127Y-74462500D01*
X158815872Y-74462499D01*
X158875483Y-74456091D01*
X159010331Y-74405796D01*
X159125546Y-74319546D01*
X159211796Y-74204331D01*
X159262091Y-74069483D01*
X159268500Y-74009873D01*
X159268499Y-72314128D01*
X159262091Y-72254517D01*
X159211796Y-72119669D01*
X159125546Y-72004454D01*
X159010331Y-71918204D01*
X158875483Y-71867909D01*
X158840403Y-71864137D01*
X158775854Y-71837400D01*
X158736006Y-71780008D01*
X158733512Y-71710182D01*
X158769164Y-71650093D01*
X158782530Y-71639278D01*
X158807139Y-71622047D01*
X158968047Y-71461139D01*
X159098568Y-71274734D01*
X159191397Y-71075663D01*
X159199324Y-71058664D01*
X159201668Y-71059757D01*
X159229841Y-71013531D01*
X159292686Y-70982997D01*
X159362062Y-70991287D01*
X159415943Y-71035769D01*
X159425639Y-71052874D01*
X159524432Y-71264735D01*
X159654953Y-71451140D01*
X159815859Y-71612046D01*
X160002264Y-71742567D01*
X160002265Y-71742567D01*
X160002266Y-71742568D01*
X160208504Y-71838739D01*
X160428308Y-71897635D01*
X160655000Y-71917468D01*
X160881692Y-71897635D01*
X161101496Y-71838739D01*
X161307734Y-71742568D01*
X161494139Y-71612047D01*
X161655047Y-71451139D01*
X161785568Y-71264734D01*
X161881739Y-71058496D01*
X161940635Y-70838692D01*
X161960468Y-70612000D01*
X161960468Y-70611999D01*
X166969531Y-70611999D01*
X166989364Y-70838689D01*
X167048261Y-71058497D01*
X167144432Y-71264735D01*
X167274953Y-71451140D01*
X167435859Y-71612046D01*
X167622264Y-71742567D01*
X167622265Y-71742567D01*
X167622266Y-71742568D01*
X167828504Y-71838739D01*
X168048308Y-71897635D01*
X168275000Y-71917468D01*
X168501692Y-71897635D01*
X168721496Y-71838739D01*
X168927734Y-71742568D01*
X169114139Y-71612047D01*
X169275047Y-71451139D01*
X169405568Y-71264734D01*
X169501739Y-71058496D01*
X169560635Y-70838692D01*
X169580468Y-70612000D01*
X169580468Y-70611999D01*
X170983340Y-70611999D01*
X171003936Y-70847407D01*
X171042948Y-70993000D01*
X171065097Y-71075663D01*
X171164965Y-71289830D01*
X171300505Y-71483401D01*
X171300508Y-71483404D01*
X171422430Y-71605326D01*
X171455915Y-71666649D01*
X171450931Y-71736341D01*
X171409059Y-71792274D01*
X171378083Y-71809189D01*
X171246669Y-71858204D01*
X171131454Y-71944454D01*
X171045204Y-72059668D01*
X170994910Y-72194515D01*
X170994909Y-72194517D01*
X170988500Y-72254127D01*
X170988500Y-72257448D01*
X170988500Y-72257449D01*
X170988500Y-74046560D01*
X170988500Y-74046578D01*
X170988501Y-74049872D01*
X170994909Y-74109483D01*
X171045204Y-74244331D01*
X171131454Y-74359546D01*
X171246669Y-74445796D01*
X171381517Y-74496091D01*
X171441127Y-74502500D01*
X173236872Y-74502499D01*
X173296483Y-74496091D01*
X173431331Y-74445796D01*
X173546546Y-74359546D01*
X173632796Y-74244331D01*
X173683091Y-74109483D01*
X173689500Y-74049873D01*
X173689499Y-72254128D01*
X173683091Y-72194517D01*
X173632796Y-72059669D01*
X173546546Y-71944454D01*
X173431331Y-71858204D01*
X173369898Y-71835291D01*
X173299916Y-71809189D01*
X173243983Y-71767317D01*
X173219566Y-71701853D01*
X173234418Y-71633580D01*
X173255563Y-71605332D01*
X173377495Y-71483401D01*
X173513035Y-71289830D01*
X173612903Y-71075663D01*
X173674063Y-70847408D01*
X173694659Y-70612000D01*
X173674063Y-70376592D01*
X173612903Y-70148337D01*
X173513035Y-69934171D01*
X173377495Y-69740599D01*
X173210401Y-69573505D01*
X173016830Y-69437965D01*
X172802663Y-69338097D01*
X172741501Y-69321709D01*
X172574407Y-69276936D01*
X172339000Y-69256340D01*
X172103592Y-69276936D01*
X171875336Y-69338097D01*
X171661170Y-69437965D01*
X171467598Y-69573505D01*
X171300505Y-69740598D01*
X171164965Y-69934170D01*
X171065097Y-70148336D01*
X171003936Y-70376592D01*
X170983340Y-70611999D01*
X169580468Y-70611999D01*
X169560635Y-70385308D01*
X169501739Y-70165504D01*
X169405568Y-69959266D01*
X169402237Y-69954508D01*
X169275046Y-69772859D01*
X169114140Y-69611953D01*
X168927735Y-69481432D01*
X168721497Y-69385261D01*
X168501689Y-69326364D01*
X168275000Y-69306531D01*
X168048310Y-69326364D01*
X167828502Y-69385261D01*
X167622264Y-69481432D01*
X167435859Y-69611953D01*
X167274953Y-69772859D01*
X167144432Y-69959264D01*
X167048261Y-70165502D01*
X166989364Y-70385310D01*
X166969531Y-70611999D01*
X161960468Y-70611999D01*
X161940635Y-70385308D01*
X161881739Y-70165504D01*
X161785568Y-69959266D01*
X161782237Y-69954508D01*
X161655046Y-69772859D01*
X161494140Y-69611953D01*
X161307735Y-69481432D01*
X161101497Y-69385261D01*
X160881689Y-69326364D01*
X160655000Y-69306531D01*
X160428310Y-69326364D01*
X160208502Y-69385261D01*
X160002264Y-69481432D01*
X159815859Y-69611953D01*
X159654953Y-69772859D01*
X159524432Y-69959264D01*
X159423676Y-70175336D01*
X159421333Y-70174243D01*
X159393139Y-70220485D01*
X159330288Y-70251006D01*
X159260914Y-70242702D01*
X159207042Y-70198209D01*
X159197360Y-70181125D01*
X159169602Y-70121599D01*
X159098568Y-69969266D01*
X159091741Y-69959515D01*
X158968046Y-69782859D01*
X158807140Y-69621953D01*
X158620735Y-69491432D01*
X158414497Y-69395261D01*
X158194689Y-69336364D01*
X157968000Y-69316531D01*
X157741310Y-69336364D01*
X157521502Y-69395261D01*
X157315264Y-69491432D01*
X157128859Y-69621953D01*
X156967953Y-69782859D01*
X156837432Y-69969264D01*
X156741261Y-70175502D01*
X156682364Y-70395310D01*
X156662531Y-70622000D01*
X151653468Y-70622000D01*
X151633635Y-70395308D01*
X151574739Y-70175504D01*
X151478568Y-69969266D01*
X151471741Y-69959515D01*
X151348046Y-69782859D01*
X151187140Y-69621953D01*
X151000735Y-69491432D01*
X150794497Y-69395261D01*
X150574689Y-69336364D01*
X150347999Y-69316531D01*
X150121310Y-69336364D01*
X149901502Y-69395261D01*
X149695264Y-69491432D01*
X149508859Y-69621953D01*
X149347953Y-69782859D01*
X149217432Y-69969264D01*
X149121261Y-70175502D01*
X149062364Y-70395310D01*
X149042531Y-70622000D01*
X149062364Y-70848689D01*
X149121261Y-71068497D01*
X149217432Y-71274735D01*
X149347953Y-71461140D01*
X149508859Y-71622046D01*
X149680983Y-71742567D01*
X149695266Y-71752568D01*
X149753275Y-71779618D01*
X149805714Y-71825791D01*
X149824865Y-71892985D01*
X149804649Y-71959866D01*
X149753275Y-72004381D01*
X149732576Y-72014033D01*
X149695263Y-72031433D01*
X149508859Y-72161953D01*
X149347953Y-72322859D01*
X149217432Y-72509264D01*
X149121261Y-72715502D01*
X149062364Y-72935310D01*
X149042531Y-73162000D01*
X133124732Y-73162000D01*
X133099903Y-73069337D01*
X133000035Y-72855171D01*
X132864495Y-72661599D01*
X132697401Y-72494505D01*
X132511839Y-72364573D01*
X132468216Y-72309998D01*
X132461022Y-72240500D01*
X132492545Y-72178145D01*
X132511837Y-72161428D01*
X132697401Y-72031495D01*
X132864495Y-71864401D01*
X133000035Y-71670830D01*
X133099903Y-71456663D01*
X133161063Y-71228408D01*
X133181659Y-70993000D01*
X133161063Y-70757592D01*
X133122052Y-70612000D01*
X138268033Y-70612000D01*
X138287858Y-70838602D01*
X138346733Y-71058326D01*
X138442866Y-71264484D01*
X138493972Y-71337471D01*
X138493974Y-71337472D01*
X139175046Y-70656399D01*
X139187835Y-70737148D01*
X139245359Y-70850045D01*
X139334955Y-70939641D01*
X139447852Y-70997165D01*
X139528599Y-71009953D01*
X138847526Y-71691025D01*
X138847526Y-71691026D01*
X138920515Y-71742133D01*
X139126673Y-71838266D01*
X139346397Y-71897141D01*
X139572999Y-71916966D01*
X139799602Y-71897141D01*
X140019326Y-71838266D01*
X140225480Y-71742134D01*
X140298472Y-71691025D01*
X139617401Y-71009953D01*
X139698148Y-70997165D01*
X139811045Y-70939641D01*
X139900641Y-70850045D01*
X139958165Y-70737148D01*
X139970953Y-70656399D01*
X140652025Y-71337472D01*
X140703134Y-71264480D01*
X140799266Y-71058326D01*
X140858141Y-70838602D01*
X140877966Y-70612000D01*
X145887531Y-70612000D01*
X145907364Y-70838689D01*
X145966261Y-71058497D01*
X146062432Y-71264735D01*
X146192953Y-71451140D01*
X146353859Y-71612046D01*
X146540264Y-71742567D01*
X146540265Y-71742567D01*
X146540266Y-71742568D01*
X146746504Y-71838739D01*
X146966308Y-71897635D01*
X147193000Y-71917468D01*
X147419692Y-71897635D01*
X147639496Y-71838739D01*
X147845734Y-71742568D01*
X148032139Y-71612047D01*
X148193047Y-71451139D01*
X148323568Y-71264734D01*
X148419739Y-71058496D01*
X148478635Y-70838692D01*
X148498468Y-70612000D01*
X148478635Y-70385308D01*
X148419739Y-70165504D01*
X148323568Y-69959266D01*
X148320237Y-69954508D01*
X148193046Y-69772859D01*
X148032140Y-69611953D01*
X147845735Y-69481432D01*
X147639497Y-69385261D01*
X147419689Y-69326364D01*
X147193000Y-69306531D01*
X146966310Y-69326364D01*
X146746502Y-69385261D01*
X146540264Y-69481432D01*
X146353859Y-69611953D01*
X146192953Y-69772859D01*
X146062432Y-69959264D01*
X145966261Y-70165502D01*
X145907364Y-70385310D01*
X145887531Y-70612000D01*
X140877966Y-70612000D01*
X140858141Y-70385397D01*
X140799266Y-70165673D01*
X140703133Y-69959515D01*
X140652025Y-69886526D01*
X139970953Y-70567597D01*
X139958165Y-70486852D01*
X139900641Y-70373955D01*
X139811045Y-70284359D01*
X139698148Y-70226835D01*
X139617400Y-70214046D01*
X140298472Y-69532974D01*
X140298471Y-69532972D01*
X140225484Y-69481866D01*
X140019326Y-69385733D01*
X139799602Y-69326858D01*
X139572999Y-69307033D01*
X139346397Y-69326858D01*
X139126672Y-69385733D01*
X138920516Y-69481865D01*
X138847527Y-69532973D01*
X138847526Y-69532973D01*
X139528600Y-70214046D01*
X139447852Y-70226835D01*
X139334955Y-70284359D01*
X139245359Y-70373955D01*
X139187835Y-70486852D01*
X139175046Y-70567599D01*
X138493973Y-69886526D01*
X138493973Y-69886527D01*
X138442865Y-69959516D01*
X138346733Y-70165672D01*
X138287858Y-70385397D01*
X138268033Y-70612000D01*
X133122052Y-70612000D01*
X133099903Y-70529337D01*
X133000035Y-70315171D01*
X132864495Y-70121599D01*
X132697401Y-69954505D01*
X132511839Y-69824573D01*
X132468216Y-69769998D01*
X132461022Y-69700500D01*
X132492545Y-69638145D01*
X132511837Y-69621428D01*
X132697401Y-69491495D01*
X132864495Y-69324401D01*
X133000035Y-69130830D01*
X133099903Y-68916663D01*
X133161063Y-68688408D01*
X133181659Y-68453000D01*
X133161063Y-68217592D01*
X133099903Y-67989337D01*
X133000035Y-67775171D01*
X132864495Y-67581599D01*
X132697401Y-67414505D01*
X132511839Y-67284573D01*
X132468216Y-67229998D01*
X132461022Y-67160500D01*
X132492545Y-67098145D01*
X132511837Y-67081428D01*
X132697401Y-66951495D01*
X132864495Y-66784401D01*
X133000035Y-66590830D01*
X133099903Y-66376663D01*
X133161063Y-66148408D01*
X133181659Y-65913000D01*
X133161063Y-65677592D01*
X133099903Y-65449337D01*
X133000035Y-65235171D01*
X132864495Y-65041599D01*
X132742181Y-64919284D01*
X132708696Y-64857962D01*
X132713680Y-64788270D01*
X132755552Y-64732337D01*
X132786528Y-64715422D01*
X132918089Y-64666352D01*
X133033188Y-64580188D01*
X133119352Y-64465089D01*
X133169599Y-64330371D01*
X133175645Y-64274132D01*
X133176000Y-64267518D01*
X133176000Y-63754000D01*
X138395033Y-63754000D01*
X138414858Y-63980602D01*
X138473733Y-64200326D01*
X138569866Y-64406484D01*
X138620972Y-64479471D01*
X138620974Y-64479472D01*
X139302046Y-63798399D01*
X139314835Y-63879148D01*
X139372359Y-63992045D01*
X139461955Y-64081641D01*
X139574852Y-64139165D01*
X139655599Y-64151953D01*
X138974526Y-64833025D01*
X138974526Y-64833026D01*
X139047515Y-64884133D01*
X139253673Y-64980266D01*
X139473397Y-65039141D01*
X139699999Y-65058966D01*
X139926602Y-65039141D01*
X140146326Y-64980266D01*
X140352480Y-64884134D01*
X140425472Y-64833025D01*
X139744401Y-64151953D01*
X139825148Y-64139165D01*
X139938045Y-64081641D01*
X140027641Y-63992045D01*
X140085165Y-63879148D01*
X140097953Y-63798400D01*
X140779025Y-64479472D01*
X140830134Y-64406480D01*
X140926266Y-64200326D01*
X140985141Y-63980602D01*
X141004966Y-63754000D01*
X146014531Y-63754000D01*
X146034364Y-63980689D01*
X146093261Y-64200497D01*
X146189432Y-64406735D01*
X146319953Y-64593140D01*
X146480859Y-64754046D01*
X146667264Y-64884567D01*
X146667265Y-64884567D01*
X146667266Y-64884568D01*
X146873504Y-64980739D01*
X147093308Y-65039635D01*
X147320000Y-65059468D01*
X147546692Y-65039635D01*
X147766496Y-64980739D01*
X147972734Y-64884568D01*
X148159139Y-64754047D01*
X148320047Y-64593139D01*
X148450568Y-64406734D01*
X148546739Y-64200496D01*
X148605635Y-63980692D01*
X148625468Y-63754000D01*
X148605635Y-63527308D01*
X148546739Y-63307504D01*
X148450568Y-63101266D01*
X148404580Y-63035587D01*
X148320046Y-62914859D01*
X148159140Y-62753953D01*
X147972735Y-62623432D01*
X147766497Y-62527261D01*
X147546689Y-62468364D01*
X147320000Y-62448531D01*
X147093310Y-62468364D01*
X146873502Y-62527261D01*
X146667264Y-62623432D01*
X146480859Y-62753953D01*
X146319953Y-62914859D01*
X146189432Y-63101264D01*
X146093261Y-63307502D01*
X146034364Y-63527310D01*
X146014531Y-63754000D01*
X141004966Y-63754000D01*
X140985141Y-63527397D01*
X140926266Y-63307673D01*
X140830133Y-63101515D01*
X140779025Y-63028526D01*
X140097953Y-63709597D01*
X140085165Y-63628852D01*
X140027641Y-63515955D01*
X139938045Y-63426359D01*
X139825148Y-63368835D01*
X139744400Y-63356046D01*
X140425472Y-62674974D01*
X140425471Y-62674972D01*
X140352484Y-62623866D01*
X140146326Y-62527733D01*
X139926602Y-62468858D01*
X139700000Y-62449033D01*
X139473397Y-62468858D01*
X139253672Y-62527733D01*
X139047516Y-62623865D01*
X138974527Y-62674973D01*
X138974526Y-62674973D01*
X139655600Y-63356046D01*
X139574852Y-63368835D01*
X139461955Y-63426359D01*
X139372359Y-63515955D01*
X139314835Y-63628852D01*
X139302046Y-63709599D01*
X138620973Y-63028526D01*
X138620973Y-63028527D01*
X138569865Y-63101516D01*
X138473733Y-63307672D01*
X138414858Y-63527397D01*
X138395033Y-63754000D01*
X133176000Y-63754000D01*
X133176000Y-63623000D01*
X132271572Y-63623000D01*
X132294682Y-63587040D01*
X132336000Y-63446327D01*
X132336000Y-63299673D01*
X132294682Y-63158960D01*
X132271572Y-63123000D01*
X133176000Y-63123000D01*
X133176000Y-62478481D01*
X133175645Y-62471867D01*
X133169599Y-62415628D01*
X133119352Y-62280910D01*
X133033188Y-62165811D01*
X132903816Y-62068963D01*
X132903832Y-62068940D01*
X132862248Y-62037810D01*
X132837831Y-61972346D01*
X132852683Y-61904073D01*
X132902088Y-61854668D01*
X132961515Y-61839500D01*
X148943501Y-61839500D01*
X149010540Y-61859185D01*
X149056295Y-61911989D01*
X149067501Y-61963500D01*
X149067501Y-62061872D01*
X149067853Y-62065152D01*
X149067854Y-62065159D01*
X149072342Y-62106903D01*
X149073909Y-62121483D01*
X149124204Y-62256331D01*
X149210454Y-62371546D01*
X149325669Y-62457796D01*
X149460517Y-62508091D01*
X149495594Y-62511862D01*
X149560143Y-62538598D01*
X149599993Y-62595989D01*
X149602488Y-62665814D01*
X149566837Y-62725904D01*
X149553463Y-62736725D01*
X149528861Y-62753951D01*
X149367953Y-62914859D01*
X149237432Y-63101264D01*
X149141261Y-63307502D01*
X149082364Y-63527310D01*
X149062531Y-63754000D01*
X149082364Y-63980689D01*
X149141261Y-64200497D01*
X149237432Y-64406735D01*
X149367953Y-64593140D01*
X149528859Y-64754046D01*
X149715264Y-64884567D01*
X149715265Y-64884567D01*
X149715266Y-64884568D01*
X149921504Y-64980739D01*
X150141308Y-65039635D01*
X150234589Y-65047796D01*
X150367999Y-65059468D01*
X150367999Y-65059467D01*
X150368000Y-65059468D01*
X150594692Y-65039635D01*
X150814496Y-64980739D01*
X151020734Y-64884568D01*
X151207139Y-64754047D01*
X151368047Y-64593139D01*
X151498568Y-64406734D01*
X151594739Y-64200496D01*
X151653635Y-63980692D01*
X151673468Y-63754000D01*
X151673468Y-63753999D01*
X156682531Y-63753999D01*
X156702364Y-63980689D01*
X156761261Y-64200497D01*
X156857432Y-64406735D01*
X156987953Y-64593140D01*
X157148859Y-64754046D01*
X157335264Y-64884567D01*
X157335265Y-64884567D01*
X157335266Y-64884568D01*
X157541504Y-64980739D01*
X157761308Y-65039635D01*
X157854589Y-65047796D01*
X157987999Y-65059468D01*
X157987999Y-65059467D01*
X157988000Y-65059468D01*
X158214692Y-65039635D01*
X158434496Y-64980739D01*
X158640734Y-64884568D01*
X158827139Y-64754047D01*
X158988047Y-64593139D01*
X159118568Y-64406734D01*
X159214739Y-64200496D01*
X159273635Y-63980692D01*
X159293468Y-63754000D01*
X159273635Y-63527308D01*
X159214739Y-63307504D01*
X159118568Y-63101266D01*
X159072580Y-63035587D01*
X158988046Y-62914859D01*
X158827140Y-62753953D01*
X158640733Y-62623431D01*
X158582725Y-62596382D01*
X158530285Y-62550210D01*
X158511133Y-62483017D01*
X158531348Y-62416135D01*
X158582725Y-62371618D01*
X158640734Y-62344568D01*
X158827139Y-62214047D01*
X158988047Y-62053139D01*
X159118568Y-61866734D01*
X159214739Y-61660496D01*
X159273635Y-61440692D01*
X159293468Y-61214000D01*
X159293468Y-61213999D01*
X170983340Y-61213999D01*
X171003936Y-61449407D01*
X171048709Y-61616502D01*
X171065097Y-61677663D01*
X171164965Y-61891830D01*
X171300505Y-62085401D01*
X171300508Y-62085404D01*
X171422430Y-62207326D01*
X171455915Y-62268649D01*
X171450931Y-62338341D01*
X171409059Y-62394274D01*
X171378083Y-62411189D01*
X171246669Y-62460204D01*
X171131454Y-62546454D01*
X171045204Y-62661668D01*
X170994910Y-62796515D01*
X170994909Y-62796517D01*
X170988500Y-62856127D01*
X170988500Y-62859448D01*
X170988500Y-62859449D01*
X170988500Y-64648560D01*
X170988500Y-64648578D01*
X170988501Y-64651872D01*
X170988853Y-64655152D01*
X170988854Y-64655159D01*
X170994909Y-64711483D01*
X171045204Y-64846331D01*
X171131454Y-64961546D01*
X171246669Y-65047796D01*
X171381517Y-65098091D01*
X171441127Y-65104500D01*
X173236872Y-65104499D01*
X173296483Y-65098091D01*
X173431331Y-65047796D01*
X173546546Y-64961546D01*
X173632796Y-64846331D01*
X173683091Y-64711483D01*
X173689500Y-64651873D01*
X173689499Y-62856128D01*
X173683091Y-62796517D01*
X173632796Y-62661669D01*
X173546546Y-62546454D01*
X173431331Y-62460204D01*
X173369898Y-62437291D01*
X173299916Y-62411189D01*
X173243983Y-62369317D01*
X173219566Y-62303853D01*
X173234418Y-62235580D01*
X173255563Y-62207332D01*
X173377495Y-62085401D01*
X173513035Y-61891830D01*
X173612903Y-61677663D01*
X173674063Y-61449408D01*
X173694659Y-61214000D01*
X173674063Y-60978592D01*
X173612903Y-60750337D01*
X173513035Y-60536171D01*
X173377495Y-60342599D01*
X173210401Y-60175505D01*
X173016830Y-60039965D01*
X172802663Y-59940097D01*
X172741501Y-59923709D01*
X172574407Y-59878936D01*
X172339000Y-59858340D01*
X172103592Y-59878936D01*
X171875336Y-59940097D01*
X171661170Y-60039965D01*
X171467598Y-60175505D01*
X171300505Y-60342598D01*
X171164965Y-60536170D01*
X171065097Y-60750336D01*
X171003936Y-60978592D01*
X170983340Y-61213999D01*
X159293468Y-61213999D01*
X159273635Y-60987308D01*
X159214739Y-60767504D01*
X159118568Y-60561266D01*
X159100997Y-60536171D01*
X158988046Y-60374859D01*
X158827140Y-60213953D01*
X158640735Y-60083432D01*
X158434497Y-59987261D01*
X158214689Y-59928364D01*
X157988000Y-59908531D01*
X157761310Y-59928364D01*
X157541502Y-59987261D01*
X157335264Y-60083432D01*
X157148859Y-60213953D01*
X156987953Y-60374859D01*
X156857432Y-60561264D01*
X156761261Y-60767502D01*
X156702364Y-60987310D01*
X156682531Y-61214000D01*
X156702364Y-61440689D01*
X156761261Y-61660497D01*
X156857432Y-61866735D01*
X156987953Y-62053140D01*
X157148859Y-62214046D01*
X157209249Y-62256331D01*
X157335266Y-62344568D01*
X157393275Y-62371618D01*
X157445714Y-62417791D01*
X157464865Y-62484985D01*
X157444649Y-62551866D01*
X157393275Y-62596382D01*
X157335263Y-62623433D01*
X157148859Y-62753953D01*
X156987953Y-62914859D01*
X156857432Y-63101264D01*
X156761261Y-63307502D01*
X156702364Y-63527310D01*
X156682531Y-63753999D01*
X151673468Y-63753999D01*
X151653635Y-63527308D01*
X151594739Y-63307504D01*
X151498568Y-63101266D01*
X151452580Y-63035587D01*
X151368046Y-62914859D01*
X151207140Y-62753953D01*
X151182537Y-62736726D01*
X151138912Y-62682150D01*
X151131718Y-62612651D01*
X151163241Y-62550296D01*
X151223470Y-62514882D01*
X151240401Y-62511862D01*
X151275483Y-62508091D01*
X151410331Y-62457796D01*
X151525546Y-62371546D01*
X151611796Y-62256331D01*
X151662091Y-62121483D01*
X151668500Y-62061873D01*
X151668499Y-60366128D01*
X151662091Y-60306517D01*
X151611796Y-60171669D01*
X151525546Y-60056454D01*
X151410331Y-59970204D01*
X151275483Y-59919909D01*
X151215873Y-59913500D01*
X151212550Y-59913500D01*
X149523439Y-59913500D01*
X149523420Y-59913500D01*
X149520128Y-59913501D01*
X149516848Y-59913853D01*
X149516840Y-59913854D01*
X149460515Y-59919909D01*
X149325669Y-59970204D01*
X149210454Y-60056454D01*
X149124204Y-60171668D01*
X149073909Y-60306516D01*
X149070030Y-60342599D01*
X149067500Y-60366127D01*
X149067500Y-60369449D01*
X149067500Y-60464500D01*
X149047815Y-60531539D01*
X148995011Y-60577294D01*
X148943500Y-60588500D01*
X133253776Y-60588500D01*
X133186737Y-60568815D01*
X133140982Y-60516011D01*
X133134001Y-60496593D01*
X133125402Y-60464500D01*
X133099903Y-60369337D01*
X133000035Y-60155171D01*
X132864495Y-59961599D01*
X132697401Y-59794505D01*
X132511839Y-59664573D01*
X132468215Y-59609997D01*
X132461023Y-59540498D01*
X132492545Y-59478144D01*
X132511831Y-59461432D01*
X132697401Y-59331495D01*
X132864495Y-59164401D01*
X133000035Y-58970830D01*
X133099903Y-58756663D01*
X133161063Y-58528408D01*
X133181659Y-58293000D01*
X133161063Y-58057592D01*
X133099903Y-57829337D01*
X133000035Y-57615171D01*
X132864495Y-57421599D01*
X132697401Y-57254505D01*
X132511839Y-57124573D01*
X132468217Y-57069998D01*
X132461024Y-57000499D01*
X132492546Y-56938145D01*
X132511837Y-56921428D01*
X132697401Y-56791495D01*
X132864495Y-56624401D01*
X133000035Y-56430830D01*
X133099903Y-56216663D01*
X133161063Y-55988408D01*
X133181659Y-55753000D01*
X133161063Y-55517592D01*
X133099903Y-55289337D01*
X133000035Y-55075171D01*
X132864495Y-54881599D01*
X132697401Y-54714505D01*
X132511839Y-54584573D01*
X132468215Y-54529997D01*
X132461023Y-54460498D01*
X132492545Y-54398144D01*
X132511831Y-54381432D01*
X132697401Y-54251495D01*
X132864495Y-54084401D01*
X133000035Y-53890830D01*
X133099903Y-53676663D01*
X133161063Y-53448408D01*
X133181659Y-53213000D01*
X133161063Y-52977592D01*
X133118727Y-52819593D01*
X133120391Y-52749743D01*
X133159554Y-52691881D01*
X133223782Y-52664377D01*
X133238503Y-52663500D01*
X171048976Y-52663500D01*
X171116015Y-52683185D01*
X171161357Y-52735093D01*
X171164965Y-52742830D01*
X171300505Y-52936401D01*
X171467599Y-53103495D01*
X171661170Y-53239035D01*
X171875337Y-53338903D01*
X172103592Y-53400063D01*
X172339000Y-53420659D01*
X172574408Y-53400063D01*
X172802663Y-53338903D01*
X173016830Y-53239035D01*
X173210401Y-53103495D01*
X173377495Y-52936401D01*
X173513035Y-52742830D01*
X173612903Y-52528663D01*
X173674063Y-52300408D01*
X173694659Y-52065000D01*
X173674063Y-51829592D01*
X173612903Y-51601337D01*
X173513035Y-51387171D01*
X173377495Y-51193599D01*
X173255180Y-51071284D01*
X173221696Y-51009962D01*
X173226680Y-50940270D01*
X173268552Y-50884337D01*
X173299528Y-50867422D01*
X173431089Y-50818352D01*
X173546188Y-50732188D01*
X173632352Y-50617089D01*
X173682599Y-50482371D01*
X173688645Y-50426132D01*
X173689000Y-50419518D01*
X173689000Y-49775000D01*
X172772686Y-49775000D01*
X172798493Y-49734844D01*
X172839000Y-49596889D01*
X172839000Y-49453111D01*
X172798493Y-49315156D01*
X172772686Y-49275000D01*
X173689000Y-49275000D01*
X173689000Y-48630481D01*
X173688645Y-48623867D01*
X173682599Y-48567628D01*
X173632352Y-48432910D01*
X173546188Y-48317811D01*
X173431089Y-48231647D01*
X173296371Y-48181400D01*
X173240132Y-48175354D01*
X173233518Y-48175000D01*
X172589000Y-48175000D01*
X172589000Y-49089498D01*
X172481315Y-49040320D01*
X172374763Y-49025000D01*
X172303237Y-49025000D01*
X172196685Y-49040320D01*
X172089000Y-49089498D01*
X172089000Y-48175000D01*
X171444482Y-48175000D01*
X171437867Y-48175354D01*
X171381628Y-48181400D01*
X171246910Y-48231647D01*
X171131811Y-48317811D01*
X171045647Y-48432910D01*
X170995400Y-48567628D01*
X170989354Y-48623867D01*
X170989000Y-48630481D01*
X170989000Y-49275000D01*
X171905314Y-49275000D01*
X171879507Y-49315156D01*
X171839000Y-49453111D01*
X171839000Y-49596889D01*
X171879507Y-49734844D01*
X171905314Y-49775000D01*
X170989000Y-49775000D01*
X170989000Y-50419518D01*
X170989354Y-50426132D01*
X170995400Y-50482371D01*
X171045647Y-50617089D01*
X171131811Y-50732188D01*
X171246911Y-50818352D01*
X171378471Y-50867422D01*
X171434404Y-50909294D01*
X171458821Y-50974758D01*
X171443969Y-51043031D01*
X171422819Y-51071285D01*
X171300505Y-51193599D01*
X171184253Y-51359624D01*
X171129676Y-51403249D01*
X171082678Y-51412500D01*
X133300500Y-51412500D01*
X133233461Y-51392815D01*
X133187706Y-51340011D01*
X133176500Y-51288500D01*
X133176499Y-49778439D01*
X133176499Y-49775128D01*
X133170091Y-49715517D01*
X133119796Y-49580669D01*
X133033546Y-49465454D01*
X132918331Y-49379204D01*
X132856898Y-49356291D01*
X132786916Y-49330189D01*
X132730983Y-49288317D01*
X132706566Y-49222853D01*
X132721418Y-49154580D01*
X132742563Y-49126332D01*
X132864495Y-49004401D01*
X133000035Y-48810830D01*
X133099903Y-48596663D01*
X133161063Y-48368408D01*
X133181659Y-48133000D01*
X133161063Y-47897592D01*
X133099903Y-47669337D01*
X133000035Y-47455171D01*
X132864495Y-47261599D01*
X132697401Y-47094505D01*
X132511839Y-46964573D01*
X132468215Y-46909997D01*
X132461023Y-46840498D01*
X132492545Y-46778144D01*
X132511831Y-46761432D01*
X132697401Y-46631495D01*
X132864495Y-46464401D01*
X133000035Y-46270830D01*
X133099903Y-46056663D01*
X133161063Y-45828408D01*
X133181659Y-45593000D01*
X133161063Y-45357592D01*
X133099903Y-45129337D01*
X133000035Y-44915171D01*
X132864495Y-44721599D01*
X132697401Y-44554505D01*
X132511839Y-44424573D01*
X132468215Y-44369997D01*
X132461023Y-44300498D01*
X132492545Y-44238144D01*
X132511831Y-44221432D01*
X132697401Y-44091495D01*
X132864495Y-43924401D01*
X133000035Y-43730830D01*
X133099903Y-43516663D01*
X133161063Y-43288408D01*
X133181659Y-43053000D01*
X133161063Y-42817592D01*
X133099903Y-42589337D01*
X133000035Y-42375171D01*
X132864495Y-42181599D01*
X132697401Y-42014505D01*
X132511839Y-41884573D01*
X132468215Y-41829997D01*
X132461023Y-41760498D01*
X132492545Y-41698144D01*
X132511831Y-41681432D01*
X132697401Y-41551495D01*
X132864495Y-41384401D01*
X133000035Y-41190830D01*
X133099903Y-40976663D01*
X133161063Y-40748408D01*
X133181659Y-40513000D01*
X133161063Y-40277592D01*
X133099903Y-40049337D01*
X133053537Y-39949905D01*
X133043045Y-39880828D01*
X133071565Y-39817044D01*
X133130041Y-39778804D01*
X133165919Y-39773500D01*
X170790548Y-39773500D01*
X170857587Y-39793185D01*
X170878229Y-39809819D01*
X170998762Y-39930352D01*
X171032247Y-39991675D01*
X171030856Y-40050126D01*
X171003936Y-40150593D01*
X170983340Y-40386000D01*
X171003936Y-40621407D01*
X171037966Y-40748407D01*
X171065097Y-40849663D01*
X171164965Y-41063830D01*
X171300505Y-41257401D01*
X171300508Y-41257403D01*
X171300508Y-41257404D01*
X171422818Y-41379714D01*
X171456303Y-41441037D01*
X171451319Y-41510729D01*
X171409447Y-41566662D01*
X171378472Y-41583576D01*
X171246913Y-41632646D01*
X171131811Y-41718811D01*
X171045647Y-41833910D01*
X170995400Y-41968628D01*
X170989354Y-42024867D01*
X170989000Y-42031481D01*
X170989000Y-42676000D01*
X171905314Y-42676000D01*
X171879507Y-42716156D01*
X171839000Y-42854111D01*
X171839000Y-42997889D01*
X171879507Y-43135844D01*
X171905314Y-43176000D01*
X170989000Y-43176000D01*
X170989000Y-43820518D01*
X170989354Y-43827132D01*
X170995400Y-43883371D01*
X171045647Y-44018089D01*
X171131811Y-44133188D01*
X171246910Y-44219352D01*
X171381628Y-44269599D01*
X171437867Y-44275645D01*
X171444482Y-44276000D01*
X172089000Y-44276000D01*
X172089000Y-43361501D01*
X172196685Y-43410680D01*
X172303237Y-43426000D01*
X172374763Y-43426000D01*
X172481315Y-43410680D01*
X172589000Y-43361501D01*
X172589000Y-44276000D01*
X173233518Y-44276000D01*
X173240132Y-44275645D01*
X173296371Y-44269599D01*
X173431089Y-44219352D01*
X173546188Y-44133188D01*
X173632352Y-44018089D01*
X173682599Y-43883371D01*
X173688645Y-43827132D01*
X173689000Y-43820518D01*
X173689000Y-43176000D01*
X172772686Y-43176000D01*
X172798493Y-43135844D01*
X172839000Y-42997889D01*
X172839000Y-42854111D01*
X172798493Y-42716156D01*
X172772686Y-42676000D01*
X173689000Y-42676000D01*
X173689000Y-42031481D01*
X173688645Y-42024867D01*
X173682599Y-41968628D01*
X173632352Y-41833910D01*
X173546188Y-41718811D01*
X173431088Y-41632647D01*
X173299528Y-41583577D01*
X173243594Y-41541705D01*
X173219178Y-41476240D01*
X173234030Y-41407967D01*
X173255175Y-41379720D01*
X173377495Y-41257401D01*
X173513035Y-41063830D01*
X173612903Y-40849663D01*
X173674063Y-40621408D01*
X173694659Y-40386000D01*
X173674063Y-40150592D01*
X173612903Y-39922337D01*
X173513035Y-39708171D01*
X173377495Y-39514599D01*
X173210401Y-39347505D01*
X173016830Y-39211965D01*
X172802663Y-39112097D01*
X172741501Y-39095709D01*
X172574407Y-39050936D01*
X172339000Y-39030340D01*
X172103591Y-39050936D01*
X172003125Y-39077855D01*
X171933275Y-39076192D01*
X171883352Y-39045761D01*
X171601802Y-38764211D01*
X171588906Y-38748113D01*
X171537775Y-38700098D01*
X171534978Y-38697387D01*
X171518227Y-38680636D01*
X171515471Y-38677880D01*
X171512290Y-38675412D01*
X171503422Y-38667837D01*
X171471582Y-38637938D01*
X171454024Y-38628285D01*
X171437764Y-38617604D01*
X171421936Y-38605327D01*
X171381851Y-38587980D01*
X171371361Y-38582841D01*
X171333091Y-38561802D01*
X171313691Y-38556821D01*
X171295284Y-38550519D01*
X171276897Y-38542562D01*
X171233758Y-38535729D01*
X171222324Y-38533361D01*
X171180019Y-38522500D01*
X171159984Y-38522500D01*
X171140586Y-38520973D01*
X171133162Y-38519797D01*
X171120805Y-38517840D01*
X171120804Y-38517840D01*
X171087751Y-38520964D01*
X171077325Y-38521950D01*
X171065656Y-38522500D01*
X133300000Y-38522500D01*
X133232961Y-38502815D01*
X133187206Y-38450011D01*
X133176000Y-38398500D01*
X133176000Y-38223000D01*
X132271572Y-38223000D01*
X132294682Y-38187040D01*
X132336000Y-38046327D01*
X132336000Y-37899673D01*
X132294682Y-37758960D01*
X132271572Y-37723000D01*
X133176000Y-37723000D01*
X133176000Y-37078481D01*
X133175645Y-37071867D01*
X133169599Y-37015628D01*
X133119352Y-36880910D01*
X133033188Y-36765811D01*
X132918088Y-36679647D01*
X132786528Y-36630577D01*
X132730594Y-36588705D01*
X132706178Y-36523240D01*
X132721030Y-36454967D01*
X132742175Y-36426720D01*
X132864495Y-36304401D01*
X133000035Y-36110830D01*
X133099903Y-35896663D01*
X133161063Y-35668408D01*
X133181659Y-35433000D01*
X133161063Y-35197592D01*
X133099903Y-34969337D01*
X133000035Y-34755171D01*
X132864495Y-34561599D01*
X132725474Y-34422578D01*
X140254500Y-34422578D01*
X140254501Y-34425872D01*
X140254853Y-34429152D01*
X140254854Y-34429159D01*
X140260909Y-34485484D01*
X140286056Y-34552907D01*
X140311204Y-34620331D01*
X140397454Y-34735546D01*
X140512669Y-34821796D01*
X140647517Y-34872091D01*
X140707127Y-34878500D01*
X142502872Y-34878499D01*
X142562483Y-34872091D01*
X142697331Y-34821796D01*
X142812546Y-34735546D01*
X142898796Y-34620331D01*
X142947810Y-34488916D01*
X142989681Y-34432983D01*
X143055146Y-34408566D01*
X143123419Y-34423418D01*
X143151673Y-34444569D01*
X143273599Y-34566495D01*
X143467170Y-34702035D01*
X143681337Y-34801903D01*
X143909592Y-34863063D01*
X144145000Y-34883659D01*
X144380408Y-34863063D01*
X144608663Y-34801903D01*
X144822830Y-34702035D01*
X145016401Y-34566495D01*
X145183495Y-34399401D01*
X145313426Y-34213839D01*
X145368002Y-34170217D01*
X145437501Y-34163024D01*
X145499855Y-34194546D01*
X145516571Y-34213837D01*
X145646505Y-34399401D01*
X145813599Y-34566495D01*
X146007170Y-34702035D01*
X146221337Y-34801903D01*
X146449592Y-34863063D01*
X146685000Y-34883659D01*
X146920408Y-34863063D01*
X147148663Y-34801903D01*
X147362830Y-34702035D01*
X147556401Y-34566495D01*
X147723495Y-34399401D01*
X147853426Y-34213839D01*
X147908002Y-34170216D01*
X147977500Y-34163022D01*
X148039855Y-34194545D01*
X148056571Y-34213837D01*
X148186505Y-34399401D01*
X148353599Y-34566495D01*
X148547170Y-34702035D01*
X148761337Y-34801903D01*
X148989592Y-34863063D01*
X149225000Y-34883659D01*
X149460408Y-34863063D01*
X149688663Y-34801903D01*
X149902830Y-34702035D01*
X150096401Y-34566495D01*
X150263495Y-34399401D01*
X150393426Y-34213839D01*
X150448002Y-34170216D01*
X150517500Y-34163022D01*
X150579855Y-34194545D01*
X150596571Y-34213837D01*
X150726505Y-34399401D01*
X150893599Y-34566495D01*
X151087170Y-34702035D01*
X151301337Y-34801903D01*
X151529592Y-34863063D01*
X151765000Y-34883659D01*
X152000408Y-34863063D01*
X152228663Y-34801903D01*
X152442830Y-34702035D01*
X152636401Y-34566495D01*
X152803495Y-34399401D01*
X152939035Y-34205830D01*
X153038903Y-33991663D01*
X153100063Y-33763408D01*
X153120659Y-33528000D01*
X153100063Y-33292592D01*
X153038903Y-33064337D01*
X152939035Y-32850171D01*
X152803495Y-32656599D01*
X152636401Y-32489505D01*
X152442830Y-32353965D01*
X152228663Y-32254097D01*
X152167502Y-32237709D01*
X152000407Y-32192936D01*
X151765000Y-32172340D01*
X151529592Y-32192936D01*
X151301336Y-32254097D01*
X151087170Y-32353965D01*
X150893598Y-32489505D01*
X150726505Y-32656598D01*
X150596575Y-32842159D01*
X150541998Y-32885784D01*
X150472500Y-32892978D01*
X150410145Y-32861455D01*
X150393425Y-32842159D01*
X150312704Y-32726877D01*
X150263495Y-32656599D01*
X150096401Y-32489505D01*
X149902830Y-32353965D01*
X149688663Y-32254097D01*
X149627502Y-32237709D01*
X149460407Y-32192936D01*
X149224999Y-32172340D01*
X148989592Y-32192936D01*
X148761336Y-32254097D01*
X148547170Y-32353965D01*
X148353598Y-32489505D01*
X148186505Y-32656598D01*
X148056575Y-32842159D01*
X148001998Y-32885784D01*
X147932500Y-32892978D01*
X147870145Y-32861455D01*
X147853425Y-32842159D01*
X147772704Y-32726877D01*
X147723495Y-32656599D01*
X147556401Y-32489505D01*
X147362830Y-32353965D01*
X147148663Y-32254097D01*
X147087502Y-32237709D01*
X146920407Y-32192936D01*
X146685000Y-32172340D01*
X146449592Y-32192936D01*
X146221336Y-32254097D01*
X146007170Y-32353965D01*
X145813598Y-32489505D01*
X145646505Y-32656598D01*
X145516575Y-32842159D01*
X145461998Y-32885784D01*
X145392500Y-32892978D01*
X145330145Y-32861455D01*
X145313425Y-32842159D01*
X145232704Y-32726877D01*
X145183495Y-32656599D01*
X145016401Y-32489505D01*
X144822830Y-32353965D01*
X144608663Y-32254097D01*
X144547502Y-32237709D01*
X144380407Y-32192936D01*
X144145000Y-32172340D01*
X143909592Y-32192936D01*
X143681336Y-32254097D01*
X143467170Y-32353965D01*
X143273601Y-32489503D01*
X143151673Y-32611431D01*
X143090350Y-32644915D01*
X143020658Y-32639931D01*
X142964725Y-32598059D01*
X142947810Y-32567082D01*
X142922389Y-32498925D01*
X142898796Y-32435669D01*
X142812546Y-32320454D01*
X142697331Y-32234204D01*
X142562483Y-32183909D01*
X142502873Y-32177500D01*
X142499550Y-32177500D01*
X140710439Y-32177500D01*
X140710420Y-32177500D01*
X140707128Y-32177501D01*
X140703848Y-32177853D01*
X140703840Y-32177854D01*
X140647515Y-32183909D01*
X140512669Y-32234204D01*
X140397454Y-32320454D01*
X140311204Y-32435668D01*
X140260909Y-32570516D01*
X140259893Y-32579971D01*
X140254500Y-32630127D01*
X140254500Y-32633448D01*
X140254500Y-32633449D01*
X140254500Y-34422560D01*
X140254500Y-34422578D01*
X132725474Y-34422578D01*
X132697401Y-34394505D01*
X132511839Y-34264573D01*
X132468215Y-34209997D01*
X132461023Y-34140498D01*
X132492545Y-34078144D01*
X132511831Y-34061432D01*
X132697401Y-33931495D01*
X132864495Y-33764401D01*
X133000035Y-33570830D01*
X133099903Y-33356663D01*
X133161063Y-33128408D01*
X133181659Y-32893000D01*
X133172795Y-32791692D01*
X133161063Y-32657592D01*
X133144500Y-32595778D01*
X133099903Y-32429337D01*
X133000035Y-32215171D01*
X132864495Y-32021599D01*
X132697401Y-31854505D01*
X132503830Y-31718965D01*
X132289663Y-31619097D01*
X132267933Y-31613274D01*
X132208273Y-31576910D01*
X132177744Y-31514063D01*
X132186039Y-31444688D01*
X132230524Y-31390810D01*
X132297076Y-31369535D01*
X132300027Y-31369500D01*
X169740638Y-31369500D01*
X169740644Y-31369501D01*
X169760052Y-31369501D01*
X169764937Y-31370935D01*
X169780568Y-31369817D01*
X169789416Y-31369501D01*
X169792002Y-31369501D01*
X169792002Y-31369502D01*
X169923122Y-31369501D01*
X170069263Y-31350261D01*
X170069902Y-31350360D01*
X170074210Y-31349609D01*
X170083741Y-31348355D01*
X170091062Y-31347612D01*
X170160840Y-31342622D01*
X170176818Y-31336253D01*
X170179072Y-31335804D01*
X170183118Y-31335272D01*
X170344542Y-31292018D01*
X170345463Y-31292039D01*
X170350656Y-31290379D01*
X170374529Y-31283982D01*
X170380257Y-31282594D01*
X170430968Y-31271562D01*
X170442247Y-31265205D01*
X170436421Y-31267399D01*
X170605322Y-31197437D01*
X170606891Y-31197269D01*
X170614383Y-31193684D01*
X170667432Y-31171710D01*
X170671503Y-31170109D01*
X170683100Y-31165783D01*
X170688644Y-31161301D01*
X170849461Y-31068455D01*
X170851743Y-31067901D01*
X170861028Y-31061776D01*
X170905805Y-31035925D01*
X170909029Y-31033451D01*
X170912405Y-31031196D01*
X170909708Y-31033129D01*
X170920391Y-31026171D01*
X170925340Y-31020935D01*
X171073149Y-30907517D01*
X171076087Y-30906381D01*
X171086291Y-30897432D01*
X171113853Y-30876283D01*
X171126933Y-30863202D01*
X171137144Y-30854355D01*
X171140632Y-30849504D01*
X171272505Y-30717630D01*
X171275976Y-30715735D01*
X171286194Y-30703942D01*
X171299285Y-30690852D01*
X171320452Y-30663265D01*
X171328292Y-30654326D01*
X171330520Y-30650145D01*
X171443936Y-30502338D01*
X171447774Y-30499534D01*
X171456138Y-30486694D01*
X171454200Y-30489399D01*
X171456456Y-30486021D01*
X171458926Y-30482803D01*
X171484777Y-30438026D01*
X171490229Y-30429760D01*
X171491454Y-30426461D01*
X171584302Y-30265643D01*
X171588050Y-30262070D01*
X171593111Y-30248501D01*
X171594719Y-30244412D01*
X171616683Y-30191387D01*
X171619918Y-30184626D01*
X171620438Y-30182321D01*
X171690400Y-30013420D01*
X171688152Y-30019393D01*
X171693838Y-30011303D01*
X171705600Y-29957235D01*
X171706983Y-29951530D01*
X171713383Y-29927642D01*
X171714897Y-29922908D01*
X171715019Y-29921539D01*
X171726105Y-29880166D01*
X171758272Y-29760116D01*
X171758803Y-29756078D01*
X171759254Y-29753814D01*
X171765306Y-29742240D01*
X171770611Y-29668070D01*
X171771351Y-29660771D01*
X171772612Y-29651193D01*
X171773305Y-29647218D01*
X171773262Y-29646256D01*
X171792502Y-29500120D01*
X171792502Y-29369000D01*
X171792502Y-29368500D01*
X171792502Y-29366438D01*
X171792818Y-29357592D01*
X171793770Y-29344276D01*
X171792502Y-29337298D01*
X171792502Y-26673243D01*
X173587092Y-26673243D01*
X173607049Y-27054048D01*
X173607726Y-27060491D01*
X173667378Y-27437120D01*
X173668726Y-27443462D01*
X173767422Y-27811802D01*
X173769421Y-27817955D01*
X173906079Y-28173959D01*
X173908716Y-28179883D01*
X174081833Y-28519645D01*
X174085079Y-28525266D01*
X174292757Y-28845061D01*
X174296581Y-28850325D01*
X174503095Y-29105350D01*
X174503096Y-29105350D01*
X175994266Y-27614180D01*
X176157130Y-27804870D01*
X176347819Y-27967733D01*
X174856648Y-29458903D01*
X174856649Y-29458904D01*
X175111674Y-29665418D01*
X175116938Y-29669242D01*
X175436733Y-29876920D01*
X175442354Y-29880166D01*
X175782116Y-30053283D01*
X175788040Y-30055920D01*
X176144044Y-30192578D01*
X176150197Y-30194577D01*
X176518537Y-30293273D01*
X176524879Y-30294621D01*
X176901508Y-30354273D01*
X176907951Y-30354950D01*
X177288756Y-30374908D01*
X177295244Y-30374908D01*
X177676048Y-30354950D01*
X177682491Y-30354273D01*
X178059120Y-30294621D01*
X178065462Y-30293273D01*
X178433802Y-30194577D01*
X178439955Y-30192578D01*
X178795959Y-30055920D01*
X178801883Y-30053283D01*
X179141645Y-29880166D01*
X179147266Y-29876920D01*
X179467061Y-29669242D01*
X179472315Y-29665425D01*
X179727349Y-29458902D01*
X178236180Y-27967733D01*
X178426870Y-27804870D01*
X178589733Y-27614180D01*
X180080902Y-29105349D01*
X180287425Y-28850315D01*
X180291242Y-28845061D01*
X180498920Y-28525266D01*
X180502166Y-28519645D01*
X180675283Y-28179883D01*
X180677920Y-28173959D01*
X180814578Y-27817955D01*
X180816577Y-27811802D01*
X180915273Y-27443462D01*
X180916621Y-27437120D01*
X180976273Y-27060491D01*
X180976950Y-27054048D01*
X180996908Y-26673243D01*
X180996908Y-26666756D01*
X180976950Y-26285951D01*
X180976273Y-26279508D01*
X180916621Y-25902879D01*
X180915273Y-25896537D01*
X180816577Y-25528197D01*
X180814578Y-25522044D01*
X180677920Y-25166040D01*
X180675283Y-25160116D01*
X180502166Y-24820354D01*
X180498920Y-24814733D01*
X180291242Y-24494938D01*
X180287418Y-24489674D01*
X180080904Y-24234649D01*
X180080903Y-24234648D01*
X178589732Y-25725818D01*
X178426870Y-25535130D01*
X178236179Y-25372265D01*
X179727350Y-23881096D01*
X179727350Y-23881095D01*
X179472325Y-23674581D01*
X179467061Y-23670757D01*
X179147266Y-23463079D01*
X179141645Y-23459833D01*
X178801883Y-23286716D01*
X178795959Y-23284079D01*
X178439955Y-23147421D01*
X178433802Y-23145422D01*
X178065462Y-23046726D01*
X178059120Y-23045378D01*
X177682491Y-22985726D01*
X177676048Y-22985049D01*
X177295244Y-22965092D01*
X177288756Y-22965092D01*
X176907951Y-22985049D01*
X176901508Y-22985726D01*
X176524879Y-23045378D01*
X176518537Y-23046726D01*
X176150197Y-23145422D01*
X176144044Y-23147421D01*
X175788040Y-23284079D01*
X175782116Y-23286716D01*
X175442354Y-23459833D01*
X175436733Y-23463079D01*
X175116939Y-23670756D01*
X175111690Y-23674570D01*
X174856648Y-23881096D01*
X176347819Y-25372266D01*
X176157130Y-25535130D01*
X175994266Y-25725818D01*
X174503096Y-24234648D01*
X174296570Y-24489690D01*
X174292756Y-24494939D01*
X174085079Y-24814733D01*
X174081833Y-24820354D01*
X173908716Y-25160116D01*
X173906079Y-25166040D01*
X173769421Y-25522044D01*
X173767422Y-25528197D01*
X173668726Y-25896537D01*
X173667378Y-25902879D01*
X173607726Y-26279508D01*
X173607049Y-26285951D01*
X173587092Y-26666756D01*
X173587092Y-26673243D01*
X171792502Y-26673243D01*
X171792502Y-26672561D01*
X171792608Y-26667437D01*
X171792636Y-26666756D01*
X171801516Y-26452063D01*
X171811904Y-26214116D01*
X171812733Y-26204241D01*
X171841123Y-25976479D01*
X171870881Y-25750447D01*
X171872450Y-25741238D01*
X171920001Y-25514457D01*
X171968992Y-25293474D01*
X171971192Y-25284995D01*
X172037627Y-25061843D01*
X172105523Y-24846509D01*
X172108234Y-24838815D01*
X172192692Y-24622366D01*
X172193551Y-24620229D01*
X172279475Y-24412791D01*
X172282591Y-24405882D01*
X172384780Y-24196851D01*
X172386063Y-24194310D01*
X172489583Y-23995450D01*
X172493013Y-23989296D01*
X172612174Y-23789319D01*
X172614036Y-23786299D01*
X172734351Y-23597443D01*
X172737982Y-23592061D01*
X172873274Y-23402572D01*
X172875732Y-23399254D01*
X173012058Y-23221590D01*
X173015709Y-23217061D01*
X173166220Y-23039354D01*
X173169347Y-23035804D01*
X173320607Y-22870733D01*
X173324261Y-22866917D01*
X173488916Y-22702262D01*
X173492745Y-22698597D01*
X173657812Y-22547341D01*
X173661354Y-22544219D01*
X173839061Y-22393709D01*
X173843590Y-22390058D01*
X174021265Y-22253723D01*
X174024571Y-22251275D01*
X174214061Y-22115982D01*
X174219443Y-22112351D01*
X174408299Y-21992036D01*
X174411319Y-21990174D01*
X174611296Y-21871013D01*
X174617450Y-21867583D01*
X174816317Y-21764060D01*
X174818853Y-21762779D01*
X175027882Y-21660591D01*
X175034791Y-21657475D01*
X175242229Y-21571551D01*
X175244366Y-21570692D01*
X175460808Y-21486236D01*
X175468526Y-21483518D01*
X175683859Y-21415622D01*
X175906982Y-21349196D01*
X175915487Y-21346989D01*
X176136457Y-21298001D01*
X176363234Y-21250451D01*
X176372464Y-21248879D01*
X176598472Y-21219124D01*
X176826237Y-21190734D01*
X176836118Y-21189904D01*
X177073539Y-21179537D01*
X177286923Y-21170712D01*
X177297126Y-21170712D01*
X177509538Y-21179497D01*
X177747904Y-21189905D01*
X177757786Y-21190735D01*
X177985208Y-21219083D01*
X178211576Y-21248884D01*
X178220788Y-21250454D01*
X178447391Y-21297968D01*
X178668537Y-21346995D01*
X178677040Y-21349201D01*
X178900023Y-21415585D01*
X179115496Y-21483525D01*
X179123239Y-21486253D01*
X179339529Y-21570650D01*
X179341719Y-21571531D01*
X179549211Y-21657476D01*
X179556157Y-21660609D01*
X179765062Y-21762736D01*
X179767611Y-21764022D01*
X179966560Y-21867588D01*
X179972767Y-21871050D01*
X180119393Y-21958419D01*
X180172550Y-21990094D01*
X180175625Y-21991989D01*
X180349621Y-22102837D01*
X180364574Y-22112363D01*
X180370001Y-22116026D01*
X180559311Y-22251190D01*
X180562744Y-22253731D01*
X180740390Y-22390043D01*
X180745020Y-22393777D01*
X180833915Y-22469067D01*
X180922552Y-22544139D01*
X180926184Y-22547338D01*
X181091255Y-22698597D01*
X181095163Y-22702339D01*
X181259659Y-22866835D01*
X181263401Y-22870743D01*
X181414660Y-23035814D01*
X181417859Y-23039446D01*
X181479302Y-23111991D01*
X181568211Y-23216965D01*
X181571955Y-23221608D01*
X181708267Y-23399254D01*
X181710808Y-23402687D01*
X181845972Y-23591997D01*
X181849635Y-23597424D01*
X181969970Y-23786310D01*
X181971913Y-23789463D01*
X182090948Y-23989231D01*
X182094414Y-23995446D01*
X182129253Y-24062371D01*
X182197940Y-24194317D01*
X182199292Y-24196995D01*
X182217700Y-24234649D01*
X182301376Y-24405812D01*
X182304536Y-24412819D01*
X182390430Y-24620186D01*
X182391386Y-24622564D01*
X182475736Y-24838735D01*
X182478480Y-24846522D01*
X182546426Y-25062017D01*
X182612792Y-25284938D01*
X182615005Y-25293472D01*
X182664038Y-25514640D01*
X182711540Y-25741191D01*
X182713117Y-25750447D01*
X182742917Y-25976793D01*
X182771261Y-26204190D01*
X182772095Y-26214117D01*
X182782505Y-26452545D01*
X182791394Y-26667437D01*
X182791500Y-26672562D01*
X182791500Y-88008437D01*
X182791394Y-88013562D01*
X182782505Y-88228454D01*
X182772095Y-88466880D01*
X182771261Y-88476808D01*
X182742917Y-88704204D01*
X182713118Y-88930549D01*
X182711540Y-88939808D01*
X182664038Y-89166358D01*
X182615006Y-89387524D01*
X182612791Y-89396062D01*
X182546426Y-89618982D01*
X182478479Y-89834480D01*
X182475738Y-89842258D01*
X182391386Y-90058434D01*
X182390430Y-90060812D01*
X182304536Y-90268179D01*
X182301376Y-90275186D01*
X182199317Y-90483953D01*
X182197905Y-90486751D01*
X182094414Y-90685552D01*
X182090948Y-90691767D01*
X181971913Y-90891535D01*
X181969970Y-90894688D01*
X181849635Y-91083574D01*
X181845972Y-91089001D01*
X181710808Y-91278311D01*
X181708267Y-91281744D01*
X181571955Y-91459390D01*
X181568201Y-91464045D01*
X181417859Y-91641552D01*
X181414660Y-91645184D01*
X181263401Y-91810255D01*
X181259659Y-91814163D01*
X181095163Y-91978659D01*
X181091255Y-91982401D01*
X180926184Y-92133660D01*
X180922552Y-92136859D01*
X180745045Y-92287201D01*
X180740390Y-92290955D01*
X180562744Y-92427267D01*
X180559311Y-92429808D01*
X180370001Y-92564972D01*
X180364574Y-92568635D01*
X180175688Y-92688970D01*
X180172535Y-92690913D01*
X179972767Y-92809948D01*
X179966552Y-92813414D01*
X179791094Y-92904753D01*
X179767803Y-92916878D01*
X179767751Y-92916905D01*
X179764953Y-92918317D01*
X179556186Y-93020376D01*
X179549179Y-93023536D01*
X179341812Y-93109430D01*
X179339434Y-93110386D01*
X179123263Y-93194736D01*
X179115476Y-93197480D01*
X178899982Y-93265426D01*
X178677060Y-93331792D01*
X178668526Y-93334005D01*
X178447359Y-93383038D01*
X178220807Y-93430540D01*
X178211551Y-93432117D01*
X177985206Y-93461917D01*
X177757808Y-93490261D01*
X177747881Y-93491095D01*
X177509454Y-93501505D01*
X177297124Y-93510288D01*
X177286874Y-93510288D01*
X177074947Y-93501522D01*
X176836093Y-93491092D01*
X176826166Y-93490258D01*
X176599091Y-93461954D01*
X176372423Y-93432113D01*
X176363164Y-93430535D01*
X176136815Y-93383075D01*
X175915449Y-93333999D01*
X175906910Y-93331784D01*
X175684125Y-93265458D01*
X175468499Y-93197471D01*
X175460720Y-93194730D01*
X175244632Y-93110412D01*
X175242254Y-93109456D01*
X175034793Y-93023523D01*
X175027786Y-93020363D01*
X174819114Y-92918350D01*
X174816317Y-92916938D01*
X174617415Y-92813395D01*
X174611198Y-92809929D01*
X174411528Y-92690952D01*
X174408377Y-92689009D01*
X174219383Y-92568606D01*
X174213955Y-92564943D01*
X174024724Y-92429835D01*
X174021291Y-92427294D01*
X173843608Y-92290953D01*
X173838953Y-92287200D01*
X173661444Y-92136858D01*
X173657812Y-92133657D01*
X173492733Y-91982390D01*
X173488825Y-91978649D01*
X173324349Y-91814173D01*
X173320608Y-91810265D01*
X173169341Y-91645186D01*
X173166140Y-91641554D01*
X173015798Y-91464045D01*
X173012045Y-91459390D01*
X172875704Y-91281707D01*
X172873163Y-91278274D01*
X172738055Y-91089043D01*
X172734392Y-91083615D01*
X172613989Y-90894621D01*
X172612063Y-90891498D01*
X172493069Y-90691800D01*
X172489603Y-90685583D01*
X172478428Y-90664117D01*
X172386028Y-90486619D01*
X172384679Y-90483946D01*
X172282623Y-90275186D01*
X172279485Y-90268228D01*
X172193522Y-90060695D01*
X172192606Y-90058417D01*
X172108263Y-89842263D01*
X172105526Y-89834494D01*
X172057483Y-89682123D01*
X172037549Y-89618902D01*
X171971210Y-89396071D01*
X171969004Y-89387569D01*
X171919931Y-89166216D01*
X171872458Y-88939807D01*
X171870889Y-88930596D01*
X171841048Y-88703931D01*
X171812738Y-88476808D01*
X171811908Y-88466932D01*
X171801458Y-88227579D01*
X171792634Y-88014243D01*
X173587092Y-88014243D01*
X173607049Y-88395048D01*
X173607726Y-88401491D01*
X173667378Y-88778120D01*
X173668726Y-88784462D01*
X173767422Y-89152802D01*
X173769421Y-89158955D01*
X173906079Y-89514959D01*
X173908716Y-89520883D01*
X174081833Y-89860645D01*
X174085079Y-89866266D01*
X174292757Y-90186061D01*
X174296581Y-90191325D01*
X174503095Y-90446350D01*
X174503096Y-90446350D01*
X175994266Y-88955180D01*
X176157130Y-89145870D01*
X176347819Y-89308733D01*
X174856648Y-90799903D01*
X174856649Y-90799904D01*
X175111674Y-91006418D01*
X175116938Y-91010242D01*
X175436733Y-91217920D01*
X175442354Y-91221166D01*
X175782116Y-91394283D01*
X175788040Y-91396920D01*
X176144044Y-91533578D01*
X176150197Y-91535577D01*
X176518537Y-91634273D01*
X176524879Y-91635621D01*
X176901508Y-91695273D01*
X176907951Y-91695950D01*
X177288756Y-91715908D01*
X177295244Y-91715908D01*
X177676048Y-91695950D01*
X177682491Y-91695273D01*
X178059120Y-91635621D01*
X178065462Y-91634273D01*
X178433802Y-91535577D01*
X178439955Y-91533578D01*
X178795959Y-91396920D01*
X178801883Y-91394283D01*
X179141645Y-91221166D01*
X179147266Y-91217920D01*
X179467061Y-91010242D01*
X179472315Y-91006425D01*
X179727349Y-90799902D01*
X178236180Y-89308733D01*
X178426870Y-89145870D01*
X178589733Y-88955180D01*
X180080902Y-90446349D01*
X180287425Y-90191315D01*
X180291242Y-90186061D01*
X180498920Y-89866266D01*
X180502166Y-89860645D01*
X180675283Y-89520883D01*
X180677920Y-89514959D01*
X180814578Y-89158955D01*
X180816577Y-89152802D01*
X180915273Y-88784462D01*
X180916621Y-88778120D01*
X180976273Y-88401491D01*
X180976950Y-88395048D01*
X180996908Y-88014243D01*
X180996908Y-88007756D01*
X180976950Y-87626951D01*
X180976273Y-87620508D01*
X180916621Y-87243879D01*
X180915273Y-87237537D01*
X180816577Y-86869197D01*
X180814578Y-86863044D01*
X180677920Y-86507040D01*
X180675283Y-86501116D01*
X180502166Y-86161354D01*
X180498920Y-86155733D01*
X180291242Y-85835938D01*
X180287418Y-85830674D01*
X180080904Y-85575649D01*
X180080903Y-85575648D01*
X178589732Y-87066818D01*
X178426870Y-86876130D01*
X178236180Y-86713266D01*
X179727350Y-85222096D01*
X179727350Y-85222095D01*
X179472325Y-85015581D01*
X179467061Y-85011757D01*
X179147266Y-84804079D01*
X179141645Y-84800833D01*
X178801883Y-84627716D01*
X178795959Y-84625079D01*
X178439955Y-84488421D01*
X178433802Y-84486422D01*
X178065462Y-84387726D01*
X178059120Y-84386378D01*
X177682491Y-84326726D01*
X177676048Y-84326049D01*
X177295244Y-84306092D01*
X177288756Y-84306092D01*
X176907951Y-84326049D01*
X176901508Y-84326726D01*
X176524879Y-84386378D01*
X176518537Y-84387726D01*
X176150197Y-84486422D01*
X176144044Y-84488421D01*
X175788040Y-84625079D01*
X175782116Y-84627716D01*
X175442354Y-84800833D01*
X175436733Y-84804079D01*
X175116939Y-85011756D01*
X175111690Y-85015570D01*
X174856648Y-85222096D01*
X176347819Y-86713266D01*
X176157130Y-86876130D01*
X175994266Y-87066818D01*
X174503096Y-85575648D01*
X174296570Y-85830690D01*
X174292756Y-85835939D01*
X174085079Y-86155733D01*
X174081833Y-86161354D01*
X173908716Y-86501116D01*
X173906079Y-86507040D01*
X173769421Y-86863044D01*
X173767422Y-86869197D01*
X173668726Y-87237537D01*
X173667378Y-87243879D01*
X173607726Y-87620508D01*
X173607049Y-87626951D01*
X173587092Y-88007756D01*
X173587092Y-88014243D01*
X171792634Y-88014243D01*
X171792608Y-88013610D01*
X171792502Y-88008486D01*
X171792502Y-85285759D01*
X171792530Y-85285616D01*
X171792526Y-85285616D01*
X171792541Y-85261002D01*
X171792543Y-85261000D01*
X171792464Y-85260808D01*
X171792386Y-85260618D01*
X171792385Y-85260617D01*
X171792381Y-85260615D01*
X171792099Y-85260499D01*
X171792002Y-85260459D01*
X171767448Y-85260459D01*
X171767242Y-85260500D01*
X118300758Y-85260500D01*
X118300552Y-85260459D01*
X118275997Y-85260459D01*
X118275898Y-85260500D01*
X118275616Y-85260615D01*
X118275613Y-85260618D01*
X118275457Y-85260999D01*
X118275474Y-85285616D01*
X118275469Y-85285616D01*
X118275498Y-85285759D01*
X118275498Y-88008437D01*
X118275392Y-88013562D01*
X118266487Y-88228849D01*
X118256096Y-88466856D01*
X118255262Y-88476785D01*
X118226879Y-88704490D01*
X118197121Y-88930524D01*
X118195543Y-88939783D01*
X118148001Y-89166525D01*
X118099012Y-89387497D01*
X118096797Y-89396035D01*
X118030387Y-89619106D01*
X117962489Y-89834448D01*
X117959748Y-89842227D01*
X117875348Y-90058525D01*
X117874392Y-90060903D01*
X117788544Y-90268159D01*
X117785384Y-90275166D01*
X117683290Y-90484003D01*
X117681878Y-90486800D01*
X117578432Y-90685517D01*
X117574966Y-90691734D01*
X117455873Y-90891598D01*
X117453930Y-90894749D01*
X117333656Y-91083540D01*
X117329994Y-91088968D01*
X117194780Y-91278349D01*
X117192238Y-91281782D01*
X117055975Y-91459364D01*
X117052221Y-91464020D01*
X116901825Y-91641590D01*
X116898626Y-91645221D01*
X116747433Y-91810220D01*
X116743691Y-91814128D01*
X116579128Y-91978691D01*
X116575220Y-91982433D01*
X116410221Y-92133626D01*
X116406590Y-92136825D01*
X116229020Y-92287221D01*
X116224364Y-92290975D01*
X116046782Y-92427238D01*
X116043349Y-92429780D01*
X115853968Y-92564994D01*
X115848540Y-92568656D01*
X115659749Y-92688930D01*
X115656598Y-92690873D01*
X115456734Y-92809966D01*
X115450517Y-92813432D01*
X115251800Y-92916878D01*
X115249003Y-92918290D01*
X115040166Y-93020384D01*
X115033159Y-93023544D01*
X114825903Y-93109392D01*
X114823525Y-93110348D01*
X114607232Y-93194746D01*
X114599445Y-93197490D01*
X114384106Y-93265387D01*
X114161033Y-93331798D01*
X114152499Y-93334011D01*
X113931526Y-93383001D01*
X113704782Y-93430543D01*
X113695526Y-93432120D01*
X113469491Y-93461879D01*
X113241783Y-93490262D01*
X113231856Y-93491096D01*
X112994324Y-93501467D01*
X112781101Y-93510287D01*
X112770851Y-93510287D01*
X112558545Y-93501505D01*
X112320118Y-93491095D01*
X112310190Y-93490261D01*
X112082795Y-93461917D01*
X111856449Y-93432118D01*
X111847189Y-93430540D01*
X111620640Y-93383038D01*
X111399474Y-93334006D01*
X111390936Y-93331791D01*
X111168017Y-93265426D01*
X110952519Y-93197479D01*
X110944740Y-93194738D01*
X110728564Y-93110386D01*
X110726186Y-93109430D01*
X110518819Y-93023536D01*
X110511812Y-93020376D01*
X110302991Y-92918290D01*
X110300326Y-92916945D01*
X110168371Y-92848253D01*
X110101446Y-92813414D01*
X110095231Y-92809948D01*
X109895463Y-92690913D01*
X109892310Y-92688970D01*
X109703424Y-92568635D01*
X109697997Y-92564972D01*
X109508687Y-92429808D01*
X109505254Y-92427267D01*
X109327608Y-92290955D01*
X109322965Y-92287211D01*
X109234085Y-92211933D01*
X109145446Y-92136859D01*
X109141814Y-92133660D01*
X108976743Y-91982401D01*
X108972835Y-91978659D01*
X108808339Y-91814163D01*
X108804597Y-91810255D01*
X108653338Y-91645184D01*
X108650139Y-91641552D01*
X108558689Y-91533578D01*
X108499777Y-91464020D01*
X108496043Y-91459390D01*
X108359731Y-91281744D01*
X108357190Y-91278311D01*
X108222026Y-91089001D01*
X108218363Y-91083574D01*
X108169209Y-91006418D01*
X108098001Y-90894644D01*
X108096085Y-90891535D01*
X108096046Y-90891470D01*
X108041485Y-90799904D01*
X107977050Y-90691767D01*
X107973584Y-90685552D01*
X107973566Y-90685517D01*
X107870022Y-90486611D01*
X107868736Y-90484062D01*
X107766609Y-90275157D01*
X107763474Y-90268205D01*
X107677531Y-90060719D01*
X107676649Y-90058525D01*
X107592249Y-89842227D01*
X107589524Y-89834494D01*
X107521564Y-89618951D01*
X107521539Y-89618868D01*
X107455215Y-89396086D01*
X107455207Y-89396060D01*
X107452993Y-89387526D01*
X107403961Y-89166359D01*
X107402409Y-89158955D01*
X107356455Y-88939793D01*
X107354881Y-88930550D01*
X107354878Y-88930524D01*
X107325082Y-88704204D01*
X107296735Y-88476785D01*
X107295905Y-88466904D01*
X107285507Y-88228786D01*
X107276634Y-88014243D01*
X109071092Y-88014243D01*
X109091049Y-88395048D01*
X109091726Y-88401491D01*
X109151378Y-88778120D01*
X109152726Y-88784462D01*
X109251422Y-89152802D01*
X109253421Y-89158955D01*
X109390079Y-89514959D01*
X109392716Y-89520883D01*
X109565833Y-89860645D01*
X109569079Y-89866266D01*
X109776757Y-90186061D01*
X109780581Y-90191325D01*
X109987095Y-90446350D01*
X109987096Y-90446350D01*
X111478266Y-88955180D01*
X111641130Y-89145870D01*
X111831819Y-89308733D01*
X110340648Y-90799903D01*
X110340649Y-90799904D01*
X110595674Y-91006418D01*
X110600938Y-91010242D01*
X110920733Y-91217920D01*
X110926354Y-91221166D01*
X111266116Y-91394283D01*
X111272040Y-91396920D01*
X111628044Y-91533578D01*
X111634197Y-91535577D01*
X112002537Y-91634273D01*
X112008879Y-91635621D01*
X112385508Y-91695273D01*
X112391951Y-91695950D01*
X112772756Y-91715908D01*
X112779244Y-91715908D01*
X113160048Y-91695950D01*
X113166491Y-91695273D01*
X113543120Y-91635621D01*
X113549462Y-91634273D01*
X113917802Y-91535577D01*
X113923955Y-91533578D01*
X114279959Y-91396920D01*
X114285883Y-91394283D01*
X114625645Y-91221166D01*
X114631266Y-91217920D01*
X114951061Y-91010242D01*
X114956315Y-91006425D01*
X115211349Y-90799902D01*
X113720180Y-89308733D01*
X113910870Y-89145870D01*
X114073733Y-88955180D01*
X115564902Y-90446349D01*
X115771425Y-90191315D01*
X115775242Y-90186061D01*
X115982920Y-89866266D01*
X115986166Y-89860645D01*
X116159283Y-89520883D01*
X116161920Y-89514959D01*
X116298578Y-89158955D01*
X116300577Y-89152802D01*
X116399273Y-88784462D01*
X116400621Y-88778120D01*
X116460273Y-88401491D01*
X116460950Y-88395048D01*
X116480908Y-88014243D01*
X116480908Y-88007756D01*
X116460950Y-87626951D01*
X116460273Y-87620508D01*
X116400621Y-87243879D01*
X116399273Y-87237537D01*
X116300577Y-86869197D01*
X116298578Y-86863044D01*
X116161920Y-86507040D01*
X116159283Y-86501116D01*
X115986166Y-86161354D01*
X115982920Y-86155733D01*
X115775242Y-85835938D01*
X115771418Y-85830674D01*
X115564904Y-85575649D01*
X115564903Y-85575648D01*
X114073732Y-87066818D01*
X113910870Y-86876130D01*
X113720180Y-86713266D01*
X115211350Y-85222096D01*
X115211350Y-85222095D01*
X114956325Y-85015581D01*
X114951061Y-85011757D01*
X114631266Y-84804079D01*
X114625645Y-84800833D01*
X114285883Y-84627716D01*
X114279959Y-84625079D01*
X113923955Y-84488421D01*
X113917802Y-84486422D01*
X113549462Y-84387726D01*
X113543120Y-84386378D01*
X113166491Y-84326726D01*
X113160048Y-84326049D01*
X112779244Y-84306092D01*
X112772756Y-84306092D01*
X112391951Y-84326049D01*
X112385508Y-84326726D01*
X112008879Y-84386378D01*
X112002537Y-84387726D01*
X111634197Y-84486422D01*
X111628044Y-84488421D01*
X111272040Y-84625079D01*
X111266116Y-84627716D01*
X110926354Y-84800833D01*
X110920733Y-84804079D01*
X110600939Y-85011756D01*
X110595690Y-85015570D01*
X110340648Y-85222096D01*
X111831819Y-86713266D01*
X111641130Y-86876130D01*
X111478266Y-87066818D01*
X109987096Y-85575648D01*
X109780570Y-85830690D01*
X109776756Y-85835939D01*
X109569079Y-86155733D01*
X109565833Y-86161354D01*
X109392716Y-86501116D01*
X109390079Y-86507040D01*
X109253421Y-86863044D01*
X109251422Y-86869197D01*
X109152726Y-87237537D01*
X109151378Y-87243879D01*
X109091726Y-87620508D01*
X109091049Y-87626951D01*
X109071092Y-88007756D01*
X109071092Y-88014243D01*
X107276634Y-88014243D01*
X107276606Y-88013562D01*
X107276500Y-88008438D01*
X107276500Y-26673243D01*
X109071092Y-26673243D01*
X109091049Y-27054048D01*
X109091726Y-27060491D01*
X109151378Y-27437120D01*
X109152726Y-27443462D01*
X109251422Y-27811802D01*
X109253421Y-27817955D01*
X109390079Y-28173959D01*
X109392716Y-28179883D01*
X109565833Y-28519645D01*
X109569079Y-28525266D01*
X109776757Y-28845061D01*
X109780581Y-28850325D01*
X109987095Y-29105350D01*
X109987096Y-29105350D01*
X111478266Y-27614180D01*
X111641130Y-27804870D01*
X111831819Y-27967733D01*
X110340648Y-29458903D01*
X110340649Y-29458904D01*
X110595674Y-29665418D01*
X110600938Y-29669242D01*
X110920733Y-29876920D01*
X110926354Y-29880166D01*
X111266116Y-30053283D01*
X111272040Y-30055920D01*
X111628044Y-30192578D01*
X111634197Y-30194577D01*
X112002537Y-30293273D01*
X112008879Y-30294621D01*
X112385508Y-30354273D01*
X112391951Y-30354950D01*
X112772756Y-30374908D01*
X112779244Y-30374908D01*
X113160048Y-30354950D01*
X113166491Y-30354273D01*
X113543120Y-30294621D01*
X113549462Y-30293273D01*
X113917802Y-30194577D01*
X113923955Y-30192578D01*
X114279959Y-30055920D01*
X114285883Y-30053283D01*
X114625645Y-29880166D01*
X114631266Y-29876920D01*
X114951061Y-29669242D01*
X114956315Y-29665425D01*
X115211349Y-29458902D01*
X113720180Y-27967733D01*
X113910870Y-27804870D01*
X114073733Y-27614180D01*
X115564902Y-29105349D01*
X115771425Y-28850315D01*
X115775242Y-28845061D01*
X115982920Y-28525266D01*
X115986166Y-28519645D01*
X116159283Y-28179883D01*
X116161920Y-28173959D01*
X116298578Y-27817955D01*
X116300577Y-27811802D01*
X116399273Y-27443462D01*
X116400621Y-27437120D01*
X116460273Y-27060491D01*
X116460950Y-27054048D01*
X116480908Y-26673243D01*
X116480908Y-26666756D01*
X116460950Y-26285951D01*
X116460273Y-26279508D01*
X116400621Y-25902879D01*
X116399273Y-25896537D01*
X116300577Y-25528197D01*
X116298578Y-25522044D01*
X116161920Y-25166040D01*
X116159283Y-25160116D01*
X115986166Y-24820354D01*
X115982920Y-24814733D01*
X115775242Y-24494938D01*
X115771418Y-24489674D01*
X115564904Y-24234649D01*
X115564903Y-24234648D01*
X114073732Y-25725818D01*
X113910870Y-25535130D01*
X113720179Y-25372265D01*
X115211350Y-23881096D01*
X115211350Y-23881095D01*
X114956325Y-23674581D01*
X114951061Y-23670757D01*
X114631266Y-23463079D01*
X114625645Y-23459833D01*
X114285883Y-23286716D01*
X114279959Y-23284079D01*
X113923955Y-23147421D01*
X113917802Y-23145422D01*
X113549462Y-23046726D01*
X113543120Y-23045378D01*
X113166491Y-22985726D01*
X113160048Y-22985049D01*
X112779244Y-22965092D01*
X112772756Y-22965092D01*
X112391951Y-22985049D01*
X112385508Y-22985726D01*
X112008879Y-23045378D01*
X112002537Y-23046726D01*
X111634197Y-23145422D01*
X111628044Y-23147421D01*
X111272040Y-23284079D01*
X111266116Y-23286716D01*
X110926354Y-23459833D01*
X110920733Y-23463079D01*
X110600939Y-23670756D01*
X110595690Y-23674570D01*
X110340648Y-23881096D01*
X111831819Y-25372266D01*
X111641130Y-25535130D01*
X111478267Y-25725818D01*
X109987096Y-24234648D01*
X109780570Y-24489690D01*
X109776756Y-24494939D01*
X109569079Y-24814733D01*
X109565833Y-24820354D01*
X109392716Y-25160116D01*
X109390079Y-25166040D01*
X109253421Y-25522044D01*
X109251422Y-25528197D01*
X109152726Y-25896537D01*
X109151378Y-25902879D01*
X109091726Y-26279508D01*
X109091049Y-26285951D01*
X109071092Y-26666756D01*
X109071092Y-26673243D01*
X107276500Y-26673243D01*
X107276500Y-26672561D01*
X107276606Y-26667437D01*
X107276634Y-26666756D01*
X107285501Y-26452387D01*
X107291436Y-26316446D01*
X107295905Y-26214091D01*
X107296735Y-26204213D01*
X107325096Y-25976682D01*
X107354886Y-25750414D01*
X107356454Y-25741214D01*
X107403969Y-25514599D01*
X107452999Y-25293447D01*
X107455200Y-25284962D01*
X107521590Y-25061963D01*
X107589531Y-24846484D01*
X107592249Y-24838771D01*
X107676680Y-24622394D01*
X107677503Y-24620345D01*
X107763486Y-24412763D01*
X107766597Y-24405866D01*
X107868768Y-24196872D01*
X107869989Y-24194452D01*
X107973604Y-23995409D01*
X107977050Y-23989231D01*
X107977070Y-23989198D01*
X108096130Y-23789389D01*
X108097987Y-23786377D01*
X108218384Y-23597392D01*
X108222026Y-23591997D01*
X108222056Y-23591955D01*
X108357218Y-23402649D01*
X108359704Y-23399291D01*
X108496076Y-23221565D01*
X108499746Y-23217015D01*
X108650172Y-23039408D01*
X108653311Y-23035844D01*
X108804641Y-22870696D01*
X108808293Y-22866882D01*
X108972882Y-22702293D01*
X108976696Y-22698641D01*
X109141844Y-22547311D01*
X109145414Y-22544166D01*
X109323015Y-22393746D01*
X109327565Y-22390076D01*
X109505297Y-22253698D01*
X109508652Y-22251215D01*
X109698003Y-22116021D01*
X109703392Y-22112384D01*
X109892414Y-21991963D01*
X109895398Y-21990125D01*
X110095239Y-21871045D01*
X110101412Y-21867603D01*
X110300452Y-21763989D01*
X110302872Y-21762768D01*
X110511866Y-21660597D01*
X110518763Y-21657486D01*
X110726345Y-21571503D01*
X110728394Y-21570680D01*
X110944772Y-21486248D01*
X110952495Y-21483527D01*
X111168013Y-21415575D01*
X111390960Y-21349201D01*
X111399461Y-21346995D01*
X111620588Y-21297972D01*
X111847215Y-21250453D01*
X111856431Y-21248883D01*
X112082682Y-21219096D01*
X112310215Y-21190734D01*
X112320091Y-21189905D01*
X112558535Y-21179494D01*
X112770899Y-21170711D01*
X112781101Y-21170711D01*
X112993265Y-21179486D01*
G37*
%TD.AperFunction*%
%TA.AperFunction,Conductor*%
G36*
X115467087Y-37742685D02*
G01*
X115487727Y-37759317D01*
X116396238Y-38667829D01*
X117260196Y-39531787D01*
X117273096Y-39547888D01*
X117324223Y-39595900D01*
X117327020Y-39598611D01*
X117346529Y-39618120D01*
X117349709Y-39620587D01*
X117358571Y-39628155D01*
X117372886Y-39641598D01*
X117390418Y-39658062D01*
X117407970Y-39667711D01*
X117424238Y-39678397D01*
X117440064Y-39690673D01*
X117480146Y-39708017D01*
X117490633Y-39713155D01*
X117528907Y-39734197D01*
X117537410Y-39736379D01*
X117548308Y-39739178D01*
X117566713Y-39745478D01*
X117585104Y-39753437D01*
X117628250Y-39760270D01*
X117639668Y-39762635D01*
X117681981Y-39773500D01*
X117702016Y-39773500D01*
X117721415Y-39775027D01*
X117741196Y-39778160D01*
X117784674Y-39774050D01*
X117796344Y-39773500D01*
X130486081Y-39773500D01*
X130553120Y-39793185D01*
X130598875Y-39845989D01*
X130608819Y-39915147D01*
X130598463Y-39949905D01*
X130552097Y-40049336D01*
X130490936Y-40277592D01*
X130470340Y-40512999D01*
X130490936Y-40748407D01*
X130518068Y-40849663D01*
X130552097Y-40976663D01*
X130651965Y-41190830D01*
X130787505Y-41384401D01*
X130954599Y-41551495D01*
X131140160Y-41681426D01*
X131183783Y-41736002D01*
X131190976Y-41805501D01*
X131159454Y-41867855D01*
X131140160Y-41884574D01*
X131020119Y-41968628D01*
X130954595Y-42014508D01*
X130787505Y-42181598D01*
X130651965Y-42375170D01*
X130552097Y-42589336D01*
X130490936Y-42817592D01*
X130470340Y-43052999D01*
X130490936Y-43288407D01*
X130507695Y-43350952D01*
X130552097Y-43516663D01*
X130651965Y-43730830D01*
X130787505Y-43924401D01*
X130954599Y-44091495D01*
X131140160Y-44221426D01*
X131183783Y-44276002D01*
X131190976Y-44345501D01*
X131159454Y-44407855D01*
X131140159Y-44424575D01*
X130954595Y-44554508D01*
X130787505Y-44721598D01*
X130651965Y-44915170D01*
X130552097Y-45129336D01*
X130490936Y-45357592D01*
X130470340Y-45593000D01*
X130490936Y-45828407D01*
X130535709Y-45995501D01*
X130552097Y-46056663D01*
X130651965Y-46270830D01*
X130787505Y-46464401D01*
X130954599Y-46631495D01*
X131140160Y-46761426D01*
X131183783Y-46816002D01*
X131190976Y-46885501D01*
X131159454Y-46947855D01*
X131140159Y-46964575D01*
X130954595Y-47094508D01*
X130787505Y-47261598D01*
X130651965Y-47455170D01*
X130552097Y-47669336D01*
X130490936Y-47897592D01*
X130470340Y-48132999D01*
X130490936Y-48368407D01*
X130490937Y-48368409D01*
X130552097Y-48596663D01*
X130651965Y-48810830D01*
X130787505Y-49004401D01*
X130787507Y-49004403D01*
X130787508Y-49004404D01*
X130909430Y-49126326D01*
X130942915Y-49187649D01*
X130937931Y-49257341D01*
X130896059Y-49313274D01*
X130865083Y-49330189D01*
X130733669Y-49379204D01*
X130618454Y-49465454D01*
X130532204Y-49580668D01*
X130481910Y-49715515D01*
X130481909Y-49715517D01*
X130475500Y-49775127D01*
X130475500Y-49778448D01*
X130475500Y-49778449D01*
X130475501Y-51288500D01*
X130455816Y-51355539D01*
X130403013Y-51401294D01*
X130351501Y-51412500D01*
X118261452Y-51412500D01*
X118194413Y-51392815D01*
X118173771Y-51376181D01*
X115386237Y-48588646D01*
X115352752Y-48527323D01*
X115354143Y-48468872D01*
X115381063Y-48368408D01*
X115401659Y-48133000D01*
X115381063Y-47897592D01*
X115319903Y-47669337D01*
X115220035Y-47455171D01*
X115084495Y-47261599D01*
X114917401Y-47094505D01*
X114731839Y-46964573D01*
X114688216Y-46909998D01*
X114681022Y-46840500D01*
X114712545Y-46778145D01*
X114731837Y-46761428D01*
X114917401Y-46631495D01*
X115084495Y-46464401D01*
X115220035Y-46270830D01*
X115319903Y-46056663D01*
X115381063Y-45828408D01*
X115401659Y-45593000D01*
X115381063Y-45357592D01*
X115319903Y-45129337D01*
X115220035Y-44915171D01*
X115084495Y-44721599D01*
X114917401Y-44554505D01*
X114731839Y-44424573D01*
X114688216Y-44369998D01*
X114681022Y-44300500D01*
X114712545Y-44238145D01*
X114731837Y-44221428D01*
X114917401Y-44091495D01*
X115084495Y-43924401D01*
X115220035Y-43730830D01*
X115319903Y-43516663D01*
X115381063Y-43288408D01*
X115401659Y-43053000D01*
X115381063Y-42817592D01*
X115319903Y-42589337D01*
X115220035Y-42375171D01*
X115084495Y-42181599D01*
X114917401Y-42014505D01*
X114731839Y-41884573D01*
X114688216Y-41829998D01*
X114681022Y-41760500D01*
X114712545Y-41698145D01*
X114731837Y-41681428D01*
X114917401Y-41551495D01*
X115084495Y-41384401D01*
X115220035Y-41190830D01*
X115319903Y-40976663D01*
X115381063Y-40748408D01*
X115401659Y-40513000D01*
X115381063Y-40277592D01*
X115319903Y-40049337D01*
X115220035Y-39835171D01*
X115084495Y-39641599D01*
X114962181Y-39519285D01*
X114928696Y-39457962D01*
X114933680Y-39388270D01*
X114975552Y-39332337D01*
X115006528Y-39315422D01*
X115138089Y-39266352D01*
X115253188Y-39180188D01*
X115339352Y-39065089D01*
X115389599Y-38930371D01*
X115395645Y-38874132D01*
X115396000Y-38867518D01*
X115396000Y-38223000D01*
X114491572Y-38223000D01*
X114514682Y-38187040D01*
X114556000Y-38046327D01*
X114556000Y-37899673D01*
X114514682Y-37758960D01*
X114491572Y-37723000D01*
X115400048Y-37723000D01*
X115467087Y-37742685D01*
G37*
%TD.AperFunction*%
%TD*%
M02*
